{
.appVersion = "1075";
DisplayStrings = (
"ANTHROPOCENE ",
H,
s
);
date = "2017-11-10 18:10:46 +0000";
disablesAutomaticAlignment = 1;
familyName = Wrinkle;
fontMaster = (
{
ascender = 800;
capHeight = 700;
descender = -200;
id = "E9291901-8CC5-48BD-9A84-10F491B4D832";
xHeight = 500;
}
);
glyphs = (
{
glyphname = A;
lastChange = "2017-11-19 16:53:35 +0000";
layers = (
{
layerId = "E9291901-8CC5-48BD-9A84-10F491B4D832";
paths = (
{
closed = 1;
nodes = (
"623 361 LINE",
"603 331 LINE",
"603 331 OFFCURVE",
"592 301 OFFCURVE",
"582 291 CURVE",
"553 252 LINE",
"524 202 LINE",
"504 174 LINE",
"484 143 LINE",
"484 143 OFFCURVE",
"465 133 OFFCURVE",
"454 123 CURVE",
"425 114 LINE",
"425 114 OFFCURVE",
"406 104 OFFCURVE",
"396 104 CURVE",
"366 95 LINE",
"337 95 LINE",
"307 85 LINE",
"267 85 LINE",
"267 85 OFFCURVE",
"259 85 OFFCURVE",
"249 85 CURVE",
"209 74 LINE",
"150 74 LINE",
"150 74 OFFCURVE",
"128 65 OFFCURVE",
"120 65 CURVE SMOOTH",
"70 65 LINE",
"31 55 LINE",
"31 55 OFFCURVE",
"11 55 OFFCURVE",
"1 55 CURVE SMOOTH",
"-27 55 LINE",
"-28 58 LINE",
"0 58 LINE SMOOTH",
"10 58 OFFCURVE",
"30 58 OFFCURVE",
"30 58 CURVE",
"69 68 LINE",
"119 68 LINE SMOOTH",
"127 68 OFFCURVE",
"149 77 OFFCURVE",
"149 77 CURVE",
"208 77 LINE",
"248 88 LINE",
"258 88 OFFCURVE",
"266 88 OFFCURVE",
"266 88 CURVE",
"306 88 LINE",
"336 98 LINE",
"365 98 LINE",
"395 107 LINE",
"405 107 OFFCURVE",
"424 117 OFFCURVE",
"424 117 CURVE",
"453 126 LINE",
"464 136 OFFCURVE",
"483 146 OFFCURVE",
"483 146 CURVE",
"503 177 LINE",
"523 205 LINE",
"552 255 LINE",
"581 294 LINE",
"591 304 OFFCURVE",
"602 334 OFFCURVE",
"602 334 CURVE",
"622 364 LINE"
);
},
{
closed = 1;
nodes = (
"625 360 LINE",
"605 330 LINE",
"605 330 OFFCURVE",
"594 300 OFFCURVE",
"584 290 CURVE",
"555 251 LINE",
"526 201 LINE",
"506 173 LINE",
"486 142 LINE",
"486 142 OFFCURVE",
"467 132 OFFCURVE",
"456 122 CURVE",
"427 113 LINE",
"427 113 OFFCURVE",
"408 103 OFFCURVE",
"398 103 CURVE",
"368 94 LINE",
"339 94 LINE",
"309 84 LINE",
"269 84 LINE",
"269 84 OFFCURVE",
"261 84 OFFCURVE",
"251 84 CURVE",
"211 73 LINE",
"152 73 LINE",
"152 73 OFFCURVE",
"130 64 OFFCURVE",
"122 64 CURVE SMOOTH",
"72 64 LINE",
"33 54 LINE",
"33 54 OFFCURVE",
"13 54 OFFCURVE",
"3 54 CURVE SMOOTH",
"-25 54 LINE",
"-26 57 LINE",
"2 57 LINE SMOOTH",
"12 57 OFFCURVE",
"32 57 OFFCURVE",
"32 57 CURVE",
"71 67 LINE",
"121 67 LINE SMOOTH",
"129 67 OFFCURVE",
"151 76 OFFCURVE",
"151 76 CURVE",
"210 76 LINE",
"250 87 LINE",
"260 87 OFFCURVE",
"268 87 OFFCURVE",
"268 87 CURVE",
"308 87 LINE",
"338 97 LINE",
"367 97 LINE",
"397 106 LINE",
"407 106 OFFCURVE",
"426 116 OFFCURVE",
"426 116 CURVE",
"455 125 LINE",
"466 135 OFFCURVE",
"485 145 OFFCURVE",
"485 145 CURVE",
"505 176 LINE",
"525 204 LINE",
"554 254 LINE",
"583 293 LINE",
"593 303 OFFCURVE",
"604 333 OFFCURVE",
"604 333 CURVE",
"624 363 LINE"
);
}
);
width = 600;
}
);
unicode = 0041;
},
{
glyphname = B;
lastChange = "2017-11-19 16:36:10 +0000";
layers = (
{
backgroundImage = {
crop = "{{0, 0}, {490, 362}}";
imagePath = "../../../Desktop/Capture d’écran 2017-11-10 à 19.15.35.png";
transform = "{1.60891, 0.07179, -0.07179, 1.60891, -1251, -149}";
};
layerId = "E9291901-8CC5-48BD-9A84-10F491B4D832";
paths = (
{
closed = 1;
nodes = (
"612 383 LINE",
"604 372 LINE",
"587 330 LINE",
"587 306 LINE",
"579 280 LINE",
"568 254 LINE",
"562 222 LINE",
"555 201 LINE",
"547 181 LINE",
"535 160 LINE",
"525 136 LINE",
"515 116 LINE",
"504 95 LINE",
"498 78 LINE",
"480 52 LINE",
"466 41 LINE",
"462 25 LINE",
"447 28 LINE",
"429 18 LINE",
"408 18 LINE",
"395 11 LINE",
"377 15 LINE",
"372 6 LINE",
"349 6 LINE",
"333 4 LINE",
"316 3 LINE",
"296 -2 LINE",
"282 0 LINE",
"264 -4 LINE",
"221 -6 LINE",
"167 -6 LINE",
"117 -7 LINE",
"60 -4 LINE",
"38 -4 LINE",
"6 -5 LINE",
"1 1 LINE",
"33 2 LINE",
"55 2 LINE",
"112 -1 LINE",
"162 0 LINE",
"216 0 LINE",
"259 2 LINE",
"277 6 LINE",
"291 4 LINE",
"311 9 LINE",
"328 10 LINE",
"344 12 LINE",
"367 12 LINE",
"372 21 LINE",
"390 17 LINE",
"403 24 LINE",
"424 24 LINE",
"442 34 LINE",
"457 31 LINE",
"461 47 LINE",
"475 58 LINE",
"493 84 LINE",
"499 101 LINE",
"510 122 LINE",
"520 142 LINE",
"530 166 LINE",
"542 187 LINE",
"550 207 LINE",
"557 228 LINE",
"563 260 LINE",
"574 286 LINE",
"582 312 LINE",
"582 336 LINE",
"599 378 LINE",
"607 389 LINE"
);
}
);
width = 600;
}
);
unicode = 0042;
},
{
glyphname = C;
lastChange = "2017-11-19 16:36:43 +0000";
layers = (
{
backgroundImage = {
crop = "{{0, 0}, {582, 451}}";
imagePath = "../../../Desktop/Capture d’écran 2017-11-10 à 19.18.12.png";
transform = "{1.32994, 0.0532, -0.0532, 1.32994, -1491, 742}";
};
layerId = "E9291901-8CC5-48BD-9A84-10F491B4D832";
paths = (
{
closed = 1;
nodes = (
"595 309 LINE",
"596 206 LINE",
"588 303 LINE",
"586 186 LINE",
"578 130 LINE",
"569 218 LINE",
"561 47 LINE",
"555 21 LINE",
"548 29 LINE",
"541 5 LINE",
"528 10 LINE",
"523 0 LINE",
"523 7 OFFCURVE",
"512 -1 OFFCURVE",
"506 -1 CURVE SMOOTH",
"480 -1 LINE",
"448 -3 LINE",
"426 -4 LINE",
"7 -4 LINE",
"0 3 LINE",
"419 3 LINE",
"441 4 LINE",
"473 6 LINE",
"499 6 LINE SMOOTH",
"505 6 OFFCURVE",
"516 14 OFFCURVE",
"516 7 CURVE",
"521 17 LINE",
"534 12 LINE",
"541 36 LINE",
"548 28 LINE",
"554 54 LINE",
"562 225 LINE",
"571 137 LINE",
"579 193 LINE",
"581 310 LINE",
"589 213 LINE",
"588 316 LINE"
);
}
);
width = 600;
}
);
unicode = 0043;
},
{
glyphname = D;
lastChange = "2017-11-19 16:37:14 +0000";
layers = (
{
backgroundImage = {
crop = "{{0, 0}, {882, 671}}";
imagePath = "../../../Desktop/Capture d’écran 2017-11-10 à 19.19.56.png";
transform = "{0.89953, 0.02902, -0.02902, 0.89953, -1680, 635}";
};
layerId = "E9291901-8CC5-48BD-9A84-10F491B4D832";
paths = (
{
closed = 1;
nodes = (
"628 365 LINE",
"550 135 OFFCURVE",
"515 15 OFFCURVE",
"262 15 CURVE",
"-1 12 LINE",
"6 4 LINE",
"269 7 LINE",
"522 7 OFFCURVE",
"557 127 OFFCURVE",
"635 357 CURVE"
);
}
);
width = 600;
}
);
unicode = 0044;
},
{
glyphname = E;
lastChange = "2017-11-19 16:37:48 +0000";
layers = (
{
backgroundImage = {
crop = "{{0, 0}, {885, 659}}";
imagePath = "../../../Desktop/Capture d’écran 2017-11-10 à 19.21.24.png";
transform = "{0.89946, 0.03103, -0.03103, 0.89946, -2143, 1062}";
};
layerId = "E9291901-8CC5-48BD-9A84-10F491B4D832";
paths = (
{
closed = 1;
nodes = (
"625 370 LINE",
"617 336 LINE",
"607 304 LINE",
"595 288 LINE",
"590 272 LINE",
"576 265 LINE",
"567 236 LINE",
"562 215 LINE",
"552 215 LINE",
"539 177 LINE",
"526 148 LINE",
"510 115 LINE",
"496 93 LINE",
"488 76 LINE",
"475 59 LINE",
"463 64 LINE",
"449 58 LINE",
"441 47 LINE",
"429 54 LINE",
"413 45 LINE",
"395 45 LINE",
"369 27 LINE",
"318 25 LINE",
"270 17 LINE",
"214 17 LINE",
"166 12 LINE",
"124 11 LINE",
"72 11 LINE",
"34 11 LINE",
"0 10 LINE",
"5 3 LINE",
"39 4 LINE",
"77 4 LINE",
"129 4 LINE",
"171 5 LINE",
"219 10 LINE",
"275 10 LINE",
"323 18 LINE",
"374 20 LINE",
"400 38 LINE",
"418 38 LINE",
"434 47 LINE",
"446 40 LINE",
"454 51 LINE",
"468 57 LINE",
"480 52 LINE",
"493 69 LINE",
"501 86 LINE",
"515 108 LINE",
"531 141 LINE",
"544 170 LINE",
"557 208 LINE",
"567 208 LINE",
"572 229 LINE",
"581 258 LINE",
"595 265 LINE",
"600 281 LINE",
"612 297 LINE",
"622 329 LINE",
"630 363 LINE"
);
}
);
width = 600;
}
);
unicode = 0045;
},
{
glyphname = F;
lastChange = "2017-11-19 16:38:10 +0000";
layers = (
{
backgroundImage = {
crop = "{{0, 0}, {853, 645}}";
imagePath = "../../../Desktop/Capture d’écran 2017-11-10 à 19.22.48.png";
transform = "{0.89943, 0.03202, -0.03202, 0.89943, -2364, 1430}";
};
layerId = "E9291901-8CC5-48BD-9A84-10F491B4D832";
paths = (
{
closed = 1;
nodes = (
"627 363 LINE",
"618 325 LINE",
"599 285 LINE",
"590 283 LINE",
"582 252 LINE",
"567 301 LINE",
"559 266 LINE",
"555 237 LINE",
"548 241 LINE",
"534 174 LINE",
"507 69 LINE",
"487 42 LINE",
"477 27 LINE",
"464 14 LINE",
"450 18 LINE",
"443 15 LINE",
"430 13 LINE",
"420 6 LINE",
"406 4 LINE",
"382 4 LINE",
"359 1 LINE",
"365 -5 LINE",
"388 -2 LINE",
"412 -2 LINE",
"426 0 LINE",
"436 7 LINE",
"449 9 LINE",
"456 12 LINE",
"470 8 LINE",
"483 21 LINE",
"493 36 LINE",
"513 63 LINE",
"540 168 LINE",
"554 235 LINE",
"561 231 LINE",
"565 260 LINE",
"573 295 LINE",
"588 246 LINE",
"596 277 LINE",
"605 279 LINE",
"624 319 LINE",
"633 357 LINE"
);
}
);
width = 600;
}
);
unicode = 0046;
},
{
glyphname = G;
lastChange = "2017-11-19 16:38:31 +0000";
layers = (
{
backgroundImage = {
crop = "{{0, 0}, {676, 561}}";
imagePath = "../../../Desktop/Capture d’écran 2017-11-10 à 19.24.09.png";
transform = "{1.03959, 0.04114, -0.04114, 1.03959, -1771, 933}";
};
layerId = "E9291901-8CC5-48BD-9A84-10F491B4D832";
paths = (
{
closed = 1;
nodes = (
"602 363 LINE",
"522 367 OFFCURVE",
"517 182 OFFCURVE",
"475 92 CURVE",
"458 71 LINE",
"437 59 LINE",
"413 45 LINE",
"392 26 LINE",
"370 25 LINE",
"327 13 LINE",
"271 7 LINE",
"-1 4 LINE",
"5 -3 LINE",
"277 0 LINE",
"333 6 LINE",
"376 18 LINE",
"398 19 LINE",
"419 38 LINE",
"443 52 LINE",
"464 64 LINE",
"481 85 LINE",
"523 175 OFFCURVE",
"528 360 OFFCURVE",
"608 356 CURVE"
);
}
);
width = 600;
}
);
unicode = 0047;
},
{
glyphname = H;
lastChange = "2017-11-19 16:38:48 +0000";
layers = (
{
backgroundImage = {
crop = "{{0, 0}, {670, 546}}";
imagePath = "../../../Desktop/Capture d’écran 2017-11-10 à 19.25.27.png";
transform = "{0.99925, 0.03861, -0.03861, 0.99925, -1266, 815}";
};
layerId = "E9291901-8CC5-48BD-9A84-10F491B4D832";
paths = (
{
closed = 1;
nodes = (
"569 336 LINE",
"567 344 LINE",
"563 336 LINE",
"551 318 LINE",
"551 325 LINE",
"542 300 LINE",
"535 287 LINE",
"521 281 LINE",
"513 258 LINE",
"502 258 LINE",
"484 203 LINE",
"473 171 LINE",
"463 151 LINE",
"447 118 LINE",
"433 98 LINE",
"417 91 LINE",
"406 86 LINE",
"390 74 LINE",
"371 74 LINE",
"365 65 LINE",
"354 67 LINE",
"340 56 LINE",
"332 56 LINE",
"338 50 LINE",
"346 50 LINE",
"360 61 LINE",
"371 59 LINE",
"377 68 LINE",
"396 68 LINE",
"412 80 LINE",
"423 85 LINE",
"439 92 LINE",
"453 112 LINE",
"469 145 LINE",
"479 165 LINE",
"490 197 LINE",
"508 252 LINE",
"519 252 LINE",
"527 275 LINE",
"541 281 LINE",
"548 294 LINE",
"557 319 LINE",
"557 312 LINE",
"569 330 LINE",
"573 338 LINE",
"575 330 LINE"
);
}
);
width = 600;
}
);
unicode = 0048;
},
{
glyphname = I;
lastChange = "2017-11-19 16:39:07 +0000";
layers = (
{
backgroundImage = {
crop = "{{0, 0}, {697, 552}}";
imagePath = "../../../Desktop/Capture d’écran 2017-11-10 à 19.26.51.png";
transform = "{1.03967, 0.03899, -0.03899, 1.03967, -1151, 653}";
};
layerId = "E9291901-8CC5-48BD-9A84-10F491B4D832";
paths = (
{
closed = 1;
nodes = (
"605 358 LINE",
"596 355 LINE",
"587 331 LINE",
"584 312 LINE",
"579 290 LINE",
"571 289 LINE",
"560 245 LINE",
"559 227 LINE",
"551 206 LINE",
"549 184 LINE",
"532 151 LINE",
"525 151 LINE",
"520 138 LINE",
"517 115 LINE",
"512 131 LINE",
"501 108 LINE",
"500 94 LINE",
"494 94 LINE",
"485 64 LINE",
"491 58 LINE",
"500 88 LINE",
"506 88 LINE",
"507 102 LINE",
"518 125 LINE",
"523 109 LINE",
"526 132 LINE",
"531 145 LINE",
"538 145 LINE",
"555 178 LINE",
"557 200 LINE",
"565 221 LINE",
"566 239 LINE",
"577 283 LINE",
"585 284 LINE",
"590 306 LINE",
"593 325 LINE",
"602 349 LINE",
"611 352 LINE"
);
}
);
width = 600;
}
);
unicode = 0049;
},
{
glyphname = J;
lastChange = "2017-11-19 16:39:25 +0000";
layers = (
{
backgroundImage = {
crop = "{{0, 0}, {703, 561}}";
imagePath = "../../../Desktop/Capture d’écran 2017-11-10 à 19.28.14.png";
transform = "{1.0397, 0.03816, -0.03816, 1.0397, -1237, 760}";
};
layerId = "E9291901-8CC5-48BD-9A84-10F491B4D832";
paths = (
{
closed = 1;
nodes = (
"602 374 LINE",
"594 369 LINE",
"585 329 LINE",
"583 295 LINE",
"576 251 LINE",
"570 225 LINE",
"559 214 LINE",
"546 165 LINE",
"534 169 LINE",
"533 141 LINE",
"532 154 LINE",
"520 108 LINE",
"504 81 LINE",
"485 49 LINE",
"492 45 LINE",
"511 77 LINE",
"527 104 LINE",
"539 150 LINE",
"540 137 LINE",
"541 165 LINE",
"553 161 LINE",
"566 210 LINE",
"577 221 LINE",
"583 247 LINE",
"590 291 LINE",
"592 325 LINE",
"601 365 LINE",
"609 370 LINE"
);
}
);
width = 600;
}
);
unicode = 004A;
},
{
glyphname = K;
lastChange = "2017-11-19 16:39:46 +0000";
layers = (
{
backgroundImage = {
crop = "{{0, 0}, {668, 550}}";
imagePath = "../../../Desktop/Capture d’écran 2017-11-10 à 19.29.12.png";
transform = "{1.03969, 0.03851, -0.03851, 1.03969, -1420, 681}";
};
layerId = "E9291901-8CC5-48BD-9A84-10F491B4D832";
paths = (
{
closed = 1;
nodes = (
"605 368 LINE",
"596 291 LINE",
"590 216 LINE",
"584 133 LINE",
"569 43 LINE SMOOTH",
"565 20 OFFCURVE",
"540 10 OFFCURVE",
"525 7 CURVE",
"491 0 LINE",
"463 -4 LINE",
"456 2 LINE",
"484 6 LINE",
"518 13 LINE",
"533 16 OFFCURVE",
"558 26 OFFCURVE",
"562 49 CURVE SMOOTH",
"577 139 LINE",
"583 222 LINE",
"589 297 LINE",
"598 374 LINE"
);
}
);
width = 600;
}
);
unicode = 004B;
},
{
glyphname = L;
lastChange = "2017-11-19 16:40:03 +0000";
layers = (
{
layerId = "E9291901-8CC5-48BD-9A84-10F491B4D832";
paths = (
{
closed = 1;
nodes = (
"608 370 LINE",
"598 356 LINE",
"590 305 LINE",
"580 264 LINE",
"536 103 LINE",
"527 101 LINE",
"509 59 LINE",
"482 13 LINE",
"460 2 LINE",
"454 7 LINE",
"476 18 LINE",
"503 64 LINE",
"521 106 LINE",
"530 108 LINE",
"574 269 LINE",
"584 310 LINE",
"592 361 LINE",
"602 375 LINE"
);
}
);
width = 600;
}
);
unicode = 004C;
},
{
glyphname = M;
lastChange = "2017-11-19 16:40:22 +0000";
layers = (
{
backgroundImage = {
crop = "{{0, 0}, {651, 535}}";
imagePath = "../../../Desktop/Capture d’écran 2017-11-10 à 19.32.04.png";
transform = "{1.14869, 0, 0, 1.14869, -1455, 609}";
};
layerId = "E9291901-8CC5-48BD-9A84-10F491B4D832";
paths = (
{
closed = 1;
nodes = (
"619 409 LINE",
"592 327 LINE",
"567 273 LINE",
"551 238 LINE",
"530 192 LINE",
"511 165 LINE",
"488 148 LINE",
"471 136 LINE",
"451 139 LINE",
"411 110 LINE",
"401 111 LINE",
"386 96 LINE",
"375 97 LINE",
"356 85 LINE",
"346 85 LINE",
"309 60 LINE",
"282 66 OFFCURVE",
"286 55 OFFCURVE",
"275 52 CURVE",
"252 51 LINE",
"225 56 OFFCURVE",
"228 44 OFFCURVE",
"216 41 CURVE",
"192 45 LINE",
"168 41 LINE",
"139 47 OFFCURVE",
"111 29 OFFCURVE",
"83 23 CURVE",
"65 22 LINE",
"48 18 LINE",
"5 17 LINE",
"0 24 LINE",
"43 25 LINE",
"60 29 LINE",
"78 30 LINE",
"106 36 OFFCURVE",
"134 54 OFFCURVE",
"163 48 CURVE",
"187 52 LINE",
"211 48 LINE",
"223 51 OFFCURVE",
"220 63 OFFCURVE",
"247 58 CURVE",
"270 59 LINE",
"281 62 OFFCURVE",
"277 73 OFFCURVE",
"304 67 CURVE",
"341 92 LINE",
"351 92 LINE",
"370 104 LINE",
"381 103 LINE",
"396 118 LINE",
"406 117 LINE",
"446 146 LINE",
"466 143 LINE",
"483 155 LINE",
"506 172 LINE",
"525 199 LINE",
"546 245 LINE",
"562 280 LINE",
"587 334 LINE",
"614 416 LINE"
);
}
);
width = 600;
}
);
unicode = 004D;
},
{
glyphname = N;
lastChange = "2017-11-19 16:40:39 +0000";
layers = (
{
backgroundImage = {
crop = "{{0, 0}, {679, 517}}";
imagePath = "../../../Desktop/Capture d’écran 2017-11-10 à 19.33.23.png";
transform = "{1.15762, 0, 0, 1.15762, -1542, 1156}";
};
layerId = "E9291901-8CC5-48BD-9A84-10F491B4D832";
paths = (
{
closed = 1;
nodes = (
"620 391 LINE",
"600 343 LINE",
"583 315 LINE",
"561 272 LINE",
"539 245 LINE",
"509 196 LINE",
"469 163 LINE",
"454 161 OFFCURVE",
"442 156 OFFCURVE",
"429 153 CURVE",
"411 142 LINE",
"386 126 LINE",
"379 118 OFFCURVE",
"375 103 OFFCURVE",
"348 101 CURVE SMOOTH",
"321 99 OFFCURVE",
"308 88 OFFCURVE",
"296 81 CURVE SMOOTH",
"284 74 OFFCURVE",
"266 50 OFFCURVE",
"223 54 CURVE SMOOTH",
"180 58 OFFCURVE",
"188 65 OFFCURVE",
"152 65 CURVE",
"123 65 LINE",
"64 78 LINE SMOOTH",
"17 88 OFFCURVE",
"22 65 OFFCURVE",
"1 58 CURVE",
"-3 65 LINE",
"18 72 OFFCURVE",
"13 97 OFFCURVE",
"60 85 CURVE SMOOTH",
"119 72 LINE",
"148 72 LINE",
"184 72 OFFCURVE",
"176 65 OFFCURVE",
"219 61 CURVE SMOOTH",
"262 57 OFFCURVE",
"280 81 OFFCURVE",
"292 88 CURVE SMOOTH",
"304 95 OFFCURVE",
"317 106 OFFCURVE",
"344 108 CURVE SMOOTH",
"371 110 OFFCURVE",
"375 125 OFFCURVE",
"382 133 CURVE",
"407 149 LINE",
"425 160 LINE",
"438 163 OFFCURVE",
"450 168 OFFCURVE",
"465 170 CURVE",
"505 203 LINE",
"535 252 LINE",
"557 279 LINE",
"579 322 LINE",
"596 350 LINE",
"616 398 LINE"
);
}
);
width = 600;
}
);
unicode = 004E;
},
{
glyphname = O;
lastChange = "2017-11-22 13:35:11 +0000";
layers = (
{
layerId = "E9291901-8CC5-48BD-9A84-10F491B4D832";
paths = (
{
closed = 1;
nodes = (
"626 392 LINE",
"584 377 LINE",
"558 345 LINE",
"544 303 LINE",
"524 262 LINE",
"496 213 LINE",
"470 177 LINE",
"439 148 LINE",
"412 133 LINE",
"394 112 LINE",
"374 106 LINE",
"341 91 LINE",
"285 73 LINE",
"257 66 LINE",
"240 68 LINE",
"172 51 LINE",
"132 50 LINE",
"89 44 LINE",
"53 44 LINE",
"29 36 LINE",
"1 34 LINE",
"6 28 LINE",
"34 30 LINE",
"58 38 LINE",
"94 38 LINE",
"137 44 LINE",
"177 45 LINE",
"245 62 LINE",
"262 60 LINE",
"290 67 LINE",
"346 85 LINE",
"379 100 LINE",
"399 106 LINE",
"417 127 LINE",
"444 142 LINE",
"475 171 LINE",
"501 207 LINE",
"529 256 LINE",
"549 297 LINE",
"563 339 LINE",
"589 371 LINE",
"631 386 LINE"
);
}
);
width = 800;
},
{
associatedMasterId = "E9291901-8CC5-48BD-9A84-10F491B4D832";
backgroundImage = {
crop = "{{0, 0}, {1000, 1000}}";
imagePath = image/O.svg;
transform = "{1, 0, 0, 1, 6, -196}";
};
layerId = "F60E21DF-3E3D-4000-BE62-F51B94BDBBD5";
name = svg;
paths = (
{
closed = 1;
nodes = (
"626 392 LINE",
"584 377 LINE",
"558 345 LINE",
"544 303 LINE",
"524 262 LINE",
"496 213 LINE",
"470 177 LINE",
"439 148 LINE",
"412 133 LINE",
"394 112 LINE",
"374 106 LINE",
"341 91 LINE",
"285 73 LINE",
"257 66 LINE",
"240 68 LINE",
"172 51 LINE",
"132 50 LINE",
"89 44 LINE",
"53 44 LINE",
"29 36 LINE",
"1 34 LINE",
"6 28 LINE",
"34 30 LINE",
"58 38 LINE",
"94 38 LINE",
"137 44 LINE",
"177 45 LINE",
"245 62 LINE",
"262 60 LINE",
"290 67 LINE",
"346 85 LINE",
"379 100 LINE",
"399 106 LINE",
"417 127 LINE",
"444 142 LINE",
"475 171 LINE",
"501 207 LINE",
"529 256 LINE",
"549 297 LINE",
"563 339 LINE",
"589 371 LINE",
"631 386 LINE"
);
}
);
visible = 1;
width = 800;
}
);
unicode = 004F;
},
{
glyphname = P;
lastChange = "2017-11-19 16:41:17 +0000";
layers = (
{
backgroundImage = {
crop = "{{0, 0}, {670, 494}}";
imagePath = "../../../Desktop/Capture d’écran 2017-11-10 à 19.35.56.png";
transform = "{1.122, 0, 0, 1.122, -1376, 789}";
};
layerId = "E9291901-8CC5-48BD-9A84-10F491B4D832";
paths = (
{
closed = 1;
nodes = (
"597 259 LINE",
"596 222 LINE",
"588 251 LINE",
"579 198 LINE",
"574 248 LINE",
"564 247 LINE",
"558 258 LINE",
"554 242 LINE",
"549 186 LINE",
"537 202 LINE",
"530 112 LINE",
"520 70 LINE",
"512 96 LINE",
"509 57 LINE",
"501 88 LINE",
"501 50 LINE",
"493 37 LINE",
"489 7 LINE",
"482 57 LINE",
"476 22 LINE",
"470 36 LINE",
"476 29 LINE",
"482 15 LINE",
"488 50 LINE",
"495 0 LINE",
"499 30 LINE",
"507 43 LINE",
"507 81 LINE",
"515 50 LINE",
"518 89 LINE",
"526 63 LINE",
"536 105 LINE",
"543 195 LINE",
"555 179 LINE",
"560 235 LINE",
"564 251 LINE",
"570 240 LINE",
"580 241 LINE",
"585 191 LINE",
"594 244 LINE",
"602 215 LINE",
"603 252 LINE"
);
}
);
width = 600;
}
);
unicode = 0050;
},
{
glyphname = Q;
lastChange = "2017-11-19 16:41:34 +0000";
layers = (
{
backgroundImage = {
crop = "{{0, 0}, {675, 515}}";
imagePath = "../../../Desktop/Capture d’écran 2017-11-10 à 19.37.42.png";
transform = "{1.12, 0, 0, 1.12, -1568, 974}";
};
layerId = "E9291901-8CC5-48BD-9A84-10F491B4D832";
paths = (
{
closed = 1;
nodes = (
"603 345 LINE",
"572 353 OFFCURVE",
"579 304 OFFCURVE",
"567 284 CURVE",
"551 234 LINE",
"527 192 LINE",
"527 168 OFFCURVE",
"517 162 OFFCURVE",
"505 165 CURVE SMOOTH",
"493 168 OFFCURVE",
"497 177 OFFCURVE",
"485 178 CURVE SMOOTH",
"473 179 OFFCURVE",
"473 166 OFFCURVE",
"465 171 CURVE SMOOTH",
"457 176 OFFCURVE",
"453 189 OFFCURVE",
"445 188 CURVE SMOOTH",
"437 187 OFFCURVE",
"436 171 OFFCURVE",
"431 163 CURVE",
"421 130 LINE",
"405 109 LINE",
"385 78 LINE",
"368 39 LINE",
"357 38 OFFCURVE",
"354 81 OFFCURVE",
"345 81 CURVE SMOOTH",
"336 81 OFFCURVE",
"337 68 OFFCURVE",
"326 68 CURVE SMOOTH",
"315 68 OFFCURVE",
"315 90 OFFCURVE",
"308 105 CURVE SMOOTH",
"301 120 OFFCURVE",
"293 108 OFFCURVE",
"291 99 CURVE SMOOTH",
"289 90 OFFCURVE",
"285 96 OFFCURVE",
"278 95 CURVE SMOOTH",
"271 94 OFFCURVE",
"269 66 OFFCURVE",
"259 66 CURVE SMOOTH",
"249 66 OFFCURVE",
"254 93 OFFCURVE",
"232 92 CURVE",
"229 102 LINE",
"251 103 OFFCURVE",
"246 76 OFFCURVE",
"256 76 CURVE SMOOTH",
"266 76 OFFCURVE",
"268 104 OFFCURVE",
"275 105 CURVE SMOOTH",
"282 106 OFFCURVE",
"286 100 OFFCURVE",
"288 109 CURVE SMOOTH",
"290 118 OFFCURVE",
"298 130 OFFCURVE",
"305 115 CURVE SMOOTH",
"312 100 OFFCURVE",
"312 78 OFFCURVE",
"323 78 CURVE SMOOTH",
"334 78 OFFCURVE",
"333 91 OFFCURVE",
"342 91 CURVE SMOOTH",
"351 91 OFFCURVE",
"354 48 OFFCURVE",
"365 49 CURVE",
"382 88 LINE",
"402 119 LINE",
"418 140 LINE",
"428 173 LINE",
"433 181 OFFCURVE",
"434 197 OFFCURVE",
"442 198 CURVE SMOOTH",
"450 199 OFFCURVE",
"454 186 OFFCURVE",
"462 181 CURVE SMOOTH",
"470 176 OFFCURVE",
"470 189 OFFCURVE",
"482 188 CURVE SMOOTH",
"494 187 OFFCURVE",
"490 178 OFFCURVE",
"502 175 CURVE SMOOTH",
"514 172 OFFCURVE",
"524 178 OFFCURVE",
"524 202 CURVE",
"548 244 LINE",
"564 294 LINE",
"576 314 OFFCURVE",
"569 363 OFFCURVE",
"600 355 CURVE"
);
}
);
width = 600;
}
);
unicode = 0051;
},
{
glyphname = R;
lastChange = "2017-11-19 16:41:53 +0000";
layers = (
{
backgroundImage = {
crop = "{{0, 0}, {674, 494}}";
imagePath = "../../../Desktop/Capture d’écran 2017-11-10 à 19.39.21.png";
transform = "{1.12, 0, 0, 1.12, -1845, 1440}";
};
layerId = "E9291901-8CC5-48BD-9A84-10F491B4D832";
paths = (
{
closed = 1;
nodes = (
"599 398 LINE",
"579 321 OFFCURVE",
"570 307 OFFCURVE",
"555 262 CURVE",
"543 240 LINE",
"530 211 LINE",
"518 183 LINE",
"499 149 LINE",
"487 137 LINE",
"460 117 LINE",
"448 113 OFFCURVE",
"443 116 OFFCURVE",
"435 115 CURVE",
"417 108 LINE",
"390 89 LINE",
"373 81 LINE",
"341 61 LINE",
"325 61 LINE",
"306 45 LINE",
"279 35 LINE",
"259 31 LINE",
"231 27 LINE",
"237 21 LINE",
"265 25 LINE",
"285 29 LINE",
"312 39 LINE",
"331 55 LINE",
"347 55 LINE",
"379 75 LINE",
"396 83 LINE",
"423 102 LINE",
"441 109 LINE",
"449 110 OFFCURVE",
"454 107 OFFCURVE",
"466 111 CURVE",
"493 131 LINE",
"505 143 LINE",
"524 177 LINE",
"536 205 LINE",
"549 234 LINE",
"561 256 LINE",
"576 301 OFFCURVE",
"585 315 OFFCURVE",
"605 392 CURVE"
);
}
);
width = 600;
}
);
unicode = 0052;
},
{
glyphname = S;
lastChange = "2017-11-19 16:42:09 +0000";
layers = (
{
backgroundImage = {
crop = "{{0, 0}, {665, 495}}";
imagePath = "../../../Desktop/Capture d’écran 2017-11-10 à 19.40.18.png";
transform = "{1.12, 0, 0, 1.12, -1761, 1294}";
};
layerId = "E9291901-8CC5-48BD-9A84-10F491B4D832";
paths = (
{
closed = 1;
nodes = (
"608 312 LINE",
"582 338 LINE",
"571 354 LINE",
"571 333 LINE",
"564 370 LINE",
"552 336 LINE",
"546 363 LINE",
"539 343 LINE",
"531 295 LINE",
"518 270 LINE",
"511 241 LINE",
"504 268 LINE",
"484 163 LINE",
"466 90 LINE",
"457 73 LINE",
"464 71 LINE",
"473 88 LINE",
"491 161 LINE",
"511 266 LINE",
"518 239 LINE",
"525 268 LINE",
"538 293 LINE",
"546 341 LINE",
"553 361 LINE",
"559 334 LINE",
"571 368 LINE",
"578 331 LINE",
"578 352 LINE",
"589 336 LINE",
"615 310 LINE"
);
}
);
width = 600;
}
);
unicode = 0053;
},
{
glyphname = T;
lastChange = "2017-11-19 16:42:28 +0000";
layers = (
{
backgroundImage = {
crop = "{{0, 0}, {675, 500}}";
imagePath = "../../../Desktop/Capture d’écran 2017-11-10 à 19.41.05.png";
transform = "{1.12, 0, 0, 1.12, -1581, 1145}";
};
layerId = "E9291901-8CC5-48BD-9A84-10F491B4D832";
paths = (
{
closed = 1;
nodes = (
"605 403 LINE",
"589 339 LINE",
"585 309 LINE",
"583 289 LINE",
"579 217 LINE",
"575 151 LINE",
"565 102 LINE",
"560 92 LINE",
"550 86 LINE",
"537 35 LINE",
"537 4 OFFCURVE",
"518 2 OFFCURVE",
"506 2 CURVE",
"454 3 LINE",
"460 -4 LINE",
"512 -5 LINE",
"524 -5 OFFCURVE",
"543 -3 OFFCURVE",
"543 28 CURVE",
"556 79 LINE",
"566 85 LINE",
"571 95 LINE",
"581 144 LINE",
"585 210 LINE",
"589 282 LINE",
"591 302 LINE",
"595 332 LINE",
"611 396 LINE"
);
}
);
width = 600;
}
);
unicode = 0054;
},
{
glyphname = U;
lastChange = "2017-11-19 16:50:22 +0000";
layers = (
{
backgroundImage = {
crop = "{{0, 0}, {677, 506}}";
imagePath = "../../../Desktop/Capture d’écran 2017-11-10 à 19.42.02.png";
transform = "{1.12, 0, 0, 1.12, -1672, 979}";
};
layerId = "E9291901-8CC5-48BD-9A84-10F491B4D832";
paths = (
{
closed = 1;
nodes = (
"597 385 LINE",
"597 383 OFFCURVE",
"565 320 OFFCURVE",
"514 172 CURVE SMOOTH",
"461 17 OFFCURVE",
"351 52 OFFCURVE",
"253 44 CURVE SMOOTH",
"218 41 OFFCURVE",
"84.992 26 OFFCURVE",
"1 17 CURVE",
"7 10 LINE",
"91 19 OFFCURVE",
"224 34 OFFCURVE",
"259 37 CURVE SMOOTH",
"357 45 OFFCURVE",
"467 10 OFFCURVE",
"520 165 CURVE SMOOTH",
"571 313 OFFCURVE",
"603 376 OFFCURVE",
"603 378 CURVE"
);
}
);
width = 600;
}
);
unicode = 0055;
},
{
glyphname = V;
lastChange = "2017-11-19 16:50:40 +0000";
layers = (
{
backgroundImage = {
crop = "{{0, 0}, {684, 491}}";
imagePath = "../../../Desktop/Capture d’écran 2017-11-10 à 19.43.03.png";
transform = "{1.12, 0, 0, 1.12, -1822, 1250}";
};
layerId = "E9291901-8CC5-48BD-9A84-10F491B4D832";
paths = (
{
closed = 1;
nodes = (
"602 376 LINE",
"589 372 OFFCURVE",
"572 315 OFFCURVE",
"554 308 CURVE SMOOTH",
"536 301 OFFCURVE",
"538 285 OFFCURVE",
"506 271 CURVE SMOOTH",
"474 257 OFFCURVE",
"473 229 OFFCURVE",
"457 208 CURVE",
"416 169 LINE",
"366 121 LINE",
"307 83 LINE",
"220 50 LINE",
"111 28 LINE",
"1 12 LINE",
"7 7 LINE",
"117 23 LINE",
"226 45 LINE",
"313 78 LINE",
"372 116 LINE",
"422 164 LINE",
"463 203 LINE",
"479 224 OFFCURVE",
"480 252 OFFCURVE",
"512 266 CURVE SMOOTH",
"544 280 OFFCURVE",
"542 296 OFFCURVE",
"560 303 CURVE SMOOTH",
"578 310 OFFCURVE",
"595 367 OFFCURVE",
"608 371 CURVE"
);
}
);
width = 600;
}
);
unicode = 0056;
},
{
glyphname = W;
lastChange = "2017-11-19 16:51:02 +0000";
layers = (
{
backgroundImage = {
crop = "{{0, 0}, {680, 494}}";
imagePath = "../../../Desktop/Capture d’écran 2017-11-10 à 19.44.08.png";
transform = "{1.12, 0, 0, 1.12, -1541, 1054}";
};
layerId = "E9291901-8CC5-48BD-9A84-10F491B4D832";
paths = (
{
closed = 1;
nodes = (
"614 300 LINE",
"488 266 LINE",
"461 243 LINE",
"394 165 OFFCURVE",
"256 108 OFFCURVE",
"223 99 CURVE SMOOTH",
"190 90 OFFCURVE",
"79 70 OFFCURVE",
"7 56 CURVE",
"2 63 LINE",
"74 77 OFFCURVE",
"185 97 OFFCURVE",
"218 106 CURVE SMOOTH",
"251 115 OFFCURVE",
"389 172 OFFCURVE",
"456 250 CURVE",
"483 273 LINE",
"609 307 LINE"
);
}
);
width = 600;
}
);
unicode = 0057;
},
{
glyphname = X;
lastChange = "2017-11-19 16:51:19 +0000";
layers = (
{
backgroundImage = {
crop = "{{0, 0}, {669, 495}}";
imagePath = "../../../Desktop/Capture d’écran 2017-11-10 à 19.44.58.png";
transform = "{1.12, 0, 0, 1.12, -1855, 1206}";
};
layerId = "E9291901-8CC5-48BD-9A84-10F491B4D832";
paths = (
{
closed = 1;
nodes = (
"609 307 LINE",
"556 275 OFFCURVE",
"533 216 OFFCURVE",
"489 159 CURVE SMOOTH",
"444 100 OFFCURVE",
"401 102 OFFCURVE",
"345 88 CURVE",
"288 69 LINE",
"178 48 LINE",
"71 36 LINE",
"6 27 LINE",
"2 34 LINE",
"67 43 LINE",
"174 55 LINE",
"284 76 LINE",
"341 95 LINE",
"397 109 OFFCURVE",
"440 107 OFFCURVE",
"485 166 CURVE SMOOTH",
"529 223 OFFCURVE",
"552 282 OFFCURVE",
"605 314 CURVE"
);
}
);
width = 600;
}
);
unicode = 0058;
},
{
glyphname = Y;
lastChange = "2017-11-19 16:52:19 +0000";
layers = (
{
backgroundImage = {
crop = "{{0, 0}, {669, 495}}";
imagePath = "../../../Desktop/Capture d’écran 2017-11-10 à 19.44.58.png";
transform = "{1.12, 0, 0, 1.12, -1314, 881}";
};
layerId = "E9291901-8CC5-48BD-9A84-10F491B4D832";
paths = (
{
closed = 1;
nodes = (
"6 -18 LINE",
"6 400 LINE",
"-1 400 LINE",
"-1 -18 LINE"
);
},
{
closed = 1;
nodes = (
"603 11 LINE",
"-20 12 LINE",
"-20 5 LINE",
"603 4 LINE"
);
}
);
width = 600;
}
);
unicode = 0059;
},
{
glyphname = Z;
lastChange = "2017-11-19 16:52:44 +0000";
layers = (
{
backgroundImage = {
crop = "{{0, 0}, {669, 495}}";
imagePath = "../../../Desktop/Capture d’écran 2017-11-10 à 19.44.58.png";
transform = "{1.12, 0, 0, 1.12, -1939, 1402}";
};
layerId = "E9291901-8CC5-48BD-9A84-10F491B4D832";
paths = (
{
closed = 1;
nodes = (
"463 -804 LINE",
"463 1039 LINE",
"457 1039 LINE",
"457 -804 LINE"
);
}
);
width = 600;
}
);
unicode = 005A;
},
{
glyphname = a;
lastChange = "2017-11-20 09:42:17 +0000";
layers = (
{
backgroundImage = {
crop = "{{0, 0}, {718, 502}}";
imagePath = "../../../Desktop/Capture d’écran 2017-11-13 à 08.01.32.png";
transform = "{1, 0, 0, 1, -1738, 1142}";
};
layerId = "E9291901-8CC5-48BD-9A84-10F491B4D832";
paths = (
{
closed = 1;
nodes = (
"493.607 118.69 LINE",
"498.988 132.553 OFFCURVE",
"501.335 144.953 OFFCURVE",
"501.335 155.775 CURVE SMOOTH",
"501 189 OFFCURVE",
"478.988 207.538 OFFCURVE",
"454.459 207.538 CURVE SMOOTH",
"424.62 207.538 OFFCURVE",
"391.55 180.352 OFFCURVE",
"391.55 119.948 CURVE",
"393 124 LINE",
"393 184 OFFCURVE",
"426 212 OFFCURVE",
"455 212 CURVE SMOOTH",
"480 212 OFFCURVE",
"502 193 OFFCURVE",
"502 160 CURVE SMOOTH",
"502 149 OFFCURVE",
"500 137 OFFCURVE",
"495 123 CURVE SMOOTH"
);
},
{
closed = 1;
nodes = (
"554 167 LINE",
"572 199 OFFCURVE",
"585.304 224.699 OFFCURVE",
"585.304 252.986 CURVE SMOOTH",
"585.304 264.457 OFFCURVE",
"582.929 276.38 OFFCURVE",
"576.546 289.348 CURVE SMOOTH",
"568.099 306.51 OFFCURVE",
"554.245 313.026 OFFCURVE",
"538.473 313.026 CURVE SMOOTH",
"504.703 313.026 OFFCURVE",
"462.135 283.156 OFFCURVE",
"444.995 263.953 CURVE SMOOTH",
"428.007 244.92 OFFCURVE",
"415.366 222.964 OFFCURVE",
"405.398 199.57 CURVE",
"406 204 LINE",
"416 227 OFFCURVE",
"429 249 OFFCURVE",
"446 268 CURVE SMOOTH",
"463 287 OFFCURVE",
"506 317 OFFCURVE",
"539 317 CURVE SMOOTH",
"555 317 OFFCURVE",
"570 311 OFFCURVE",
"578 293 CURVE SMOOTH",
"584 280 OFFCURVE",
"586 268 OFFCURVE",
"586 257 CURVE SMOOTH",
"586 229 OFFCURVE",
"573 203 OFFCURVE",
"555 171 CURVE"
);
},
{
closed = 1;
nodes = (
"398 192 LINE",
"386 233 OFFCURVE",
"357 296 OFFCURVE",
"313 296 CURVE SMOOTH",
"302 296 OFFCURVE",
"289 291 OFFCURVE",
"275 281 CURVE SMOOTH",
"254 264 OFFCURVE",
"239 222 OFFCURVE",
"224 200 CURVE",
"224 205 LINE",
"239 227 OFFCURVE",
"254 269 OFFCURVE",
"275 286 CURVE SMOOTH",
"288 297 OFFCURVE",
"302 301 OFFCURVE",
"313 301 CURVE SMOOTH",
"357 301 OFFCURVE",
"386 238 OFFCURVE",
"398 197 CURVE"
);
}
);
width = 600;
}
);
unicode = 0061;
},
{
glyphname = b;
lastChange = "2017-11-13 08:03:42 +0000";
layers = (
{
backgroundImage = {
crop = "{{0, 0}, {718, 502}}";
imagePath = "../../../Desktop/Capture d’écran 2017-11-13 à 08.01.32.png";
transform = "{1, 0, 0, 1, 1491, 1334}";
};
layerId = "E9291901-8CC5-48BD-9A84-10F491B4D832";
paths = (
{
closed = 0;
nodes = (
"291.257 162.686 LINE",
"299.102 186.824 OFFCURVE",
"302.734 210.643 OFFCURVE",
"302.734 233.912 CURVE SMOOTH",
"302.734 308.826 OFFCURVE",
"265.094 378.047 OFFCURVE",
"209.263 433.908 CURVE SMOOTH",
"198.719 444.458 OFFCURVE",
"182.62 446.314 OFFCURVE",
"169.106 450.871 CURVE SMOOTH",
"151.918 456.668 OFFCURVE",
"135.472 459.893 OFFCURVE",
"120.105 459.893 CURVE SMOOTH",
"85.865 459.893 OFFCURVE",
"56.987 443.882 OFFCURVE",
"37.205 404.645 CURVE SMOOTH",
"28.335 387.053 OFFCURVE",
"24.382 365.617 OFFCURVE",
"24.382 342.475 CURVE SMOOTH",
"24.382 265.77 OFFCURVE",
"67.814 170.315 OFFCURVE",
"119.619 133.907 CURVE SMOOTH",
"141.507 118.524 OFFCURVE",
"177.749 106.354 OFFCURVE",
"211.515 106.354 CURVE SMOOTH",
"237.882 106.354 OFFCURVE",
"262.74 113.774 OFFCURVE",
"278.077 132.88 CURVE SMOOTH",
"285.583 142.231 OFFCURVE",
"285.824 153.929 OFFCURVE",
"292.28 163.514 CURVE"
);
},
{
closed = 0;
nodes = (
"288.844 182.903 LINE",
"288.844 206.638 OFFCURVE",
"285.6 227.984 OFFCURVE",
"275.668 249.546 CURVE SMOOTH",
"256.503 291.153 OFFCURVE",
"190.404 354.446 OFFCURVE",
"145.186 354.446 CURVE SMOOTH",
"121.073 354.446 OFFCURVE",
"102.897 336.449 OFFCURVE",
"100.941 287.568 CURVE SMOOTH",
"98.279 221.044 OFFCURVE",
"143.026 173.102 OFFCURVE",
"198.871 145.18 CURVE SMOOTH",
"215.187 137.022 OFFCURVE",
"226.464 128.189 OFFCURVE",
"243.964 122.368 CURVE SMOOTH",
"274.314 112.273 OFFCURVE",
"286.965 180.068 OFFCURVE",
"286.965 198.005 CURVE"
);
},
{
closed = 0;
nodes = (
"233.887 246.461 LINE",
"227.799 246.461 OFFCURVE",
"219.344 247.627 OFFCURVE",
"211.444 247.627 CURVE SMOOTH",
"205.544 247.627 OFFCURVE",
"199.952 246.976 OFFCURVE",
"195.887 244.704 CURVE SMOOTH",
"176.705 233.984 OFFCURVE",
"168.995 219.822 OFFCURVE",
"168.995 205.2 CURVE SMOOTH",
"168.995 172.313 OFFCURVE",
"207.999 137.101 OFFCURVE",
"243.19 133.5 CURVE SMOOTH",
"275.959 130.147 OFFCURVE",
"288.766 146.641 OFFCURVE",
"288.766 168.211 CURVE SMOOTH",
"288.766 199.899 OFFCURVE",
"261.124 242.542 OFFCURVE",
"228.523 249.304 CURVE"
);
}
);
width = 600;
}
);
unicode = 0062;
},
{
glyphname = c;
lastChange = "2017-11-13 08:07:00 +0000";
layers = (
{
backgroundImage = {
crop = "{{0, 0}, {718, 502}}";
imagePath = "../../../Desktop/Capture d’écran 2017-11-13 à 08.01.32.png";
transform = "{1.97382, 0, 0, 1.97382, -2051, 488}";
};
layerId = "E9291901-8CC5-48BD-9A84-10F491B4D832";
paths = (
{
closed = 0;
nodes = (
"275 129 LINE",
"275 103 OFFCURVE",
"272 90 OFFCURVE",
"272 82 CURVE SMOOTH",
"272 76 OFFCURVE",
"274 75 OFFCURVE",
"281 75 CURVE SMOOTH",
"286 75 OFFCURVE",
"294 76 OFFCURVE",
"307 76 CURVE"
);
},
{
closed = 0;
nodes = (
"276 101 LINE",
"286 101 OFFCURVE",
"295 101 OFFCURVE",
"305 101 CURVE"
);
},
{
closed = 0;
nodes = (
"271 134 LINE",
"285 134 OFFCURVE",
"298 134 OFFCURVE",
"312 134 CURVE"
);
},
{
closed = 0;
nodes = (
"340 111 LINE",
"323 117 OFFCURVE",
"312 107 OFFCURVE",
"312 97 CURVE SMOOTH",
"312 89 OFFCURVE",
"320 79 OFFCURVE",
"338 77 CURVE"
);
},
{
closed = 0;
nodes = (
"363 111 LINE",
"357 101 OFFCURVE",
"354 95 OFFCURVE",
"354 91 CURVE SMOOTH",
"354 86 OFFCURVE",
"357 84 OFFCURVE",
"361 84 CURVE SMOOTH",
"369 84 OFFCURVE",
"381 91 OFFCURVE",
"381 98 CURVE SMOOTH",
"381 103 OFFCURVE",
"376 108 OFFCURVE",
"360 110 CURVE"
);
},
{
closed = 0;
nodes = (
"402 136 LINE",
"402 117 OFFCURVE",
"402 97 OFFCURVE",
"402 77 CURVE"
);
},
{
closed = 0;
nodes = (
"436 112 LINE",
"423 112 OFFCURVE",
"417 112 OFFCURVE",
"417 99 CURVE SMOOTH",
"417 99 OFFCURVE",
"417 98 OFFCURVE",
"417 97 CURVE SMOOTH",
"417 83 OFFCURVE",
"426 77 OFFCURVE",
"434 77 CURVE SMOOTH",
"442 77 OFFCURVE",
"449 82 OFFCURVE",
"449 90 CURVE SMOOTH",
"449 96 OFFCURVE",
"445 104 OFFCURVE",
"432 112 CURVE"
);
},
{
closed = 0;
nodes = (
"492 111 LINE",
"473 111 OFFCURVE",
"467 104 OFFCURVE",
"467 97 CURVE SMOOTH",
"467 89 OFFCURVE",
"474 81 OFFCURVE",
"481 81 CURVE SMOOTH",
"484 81 OFFCURVE",
"486 82 OFFCURVE",
"488 85 CURVE SMOOTH",
"492 91 OFFCURVE",
"494 113 OFFCURVE",
"495 106 CURVE SMOOTH",
"497 95 OFFCURVE",
"497 83 OFFCURVE",
"497 72 CURVE SMOOTH",
"497 60 OFFCURVE",
"490 57 OFFCURVE",
"482 57 CURVE SMOOTH",
"476 57 OFFCURVE",
"468 59 OFFCURVE",
"461 61 CURVE"
);
},
{
closed = 0;
nodes = (
"513 109 LINE",
"513 99 OFFCURVE",
"513 89 OFFCURVE",
"513 79 CURVE"
);
},
{
closed = 0;
nodes = (
"513 129 LINE",
"513 124 OFFCURVE",
"513 126 OFFCURVE",
"513 123 CURVE"
);
},
{
closed = 0;
nodes = (
"551 107 LINE",
"537 110 OFFCURVE",
"531 101 OFFCURVE",
"531 93 CURVE SMOOTH",
"531 85 OFFCURVE",
"536 78 OFFCURVE",
"545 78 CURVE SMOOTH",
"548 78 OFFCURVE",
"552 79 OFFCURVE",
"556 80 CURVE"
);
},
{
closed = 0;
nodes = (
"569 112 LINE",
"593 112 OFFCURVE",
"594 102 OFFCURVE",
"594 83 CURVE SMOOTH",
"594 81 OFFCURVE",
"594 78 OFFCURVE",
"594 76 CURVE"
);
},
{
closed = 0;
nodes = (
"593 100 LINE",
"576 96 OFFCURVE",
"567 89 OFFCURVE",
"567 84 CURVE SMOOTH",
"567 80 OFFCURVE",
"572 78 OFFCURVE",
"582 78 CURVE SMOOTH",
"586 78 OFFCURVE",
"591 78 OFFCURVE",
"597 79 CURVE"
);
},
{
closed = 0;
nodes = (
"611 133 LINE",
"611 114 OFFCURVE",
"610 95 OFFCURVE",
"611 76 CURVE"
);
},
{
closed = 0;
nodes = (
"274 56 LINE",
"274 37 OFFCURVE",
"274 18 OFFCURVE",
"274 -2 CURVE"
);
},
{
closed = 0;
nodes = (
"274 20 LINE",
"283 26 OFFCURVE",
"290 32 OFFCURVE",
"299 39 CURVE"
);
},
{
closed = 0;
nodes = (
"281 24 LINE",
"287 16 OFFCURVE",
"291 9 OFFCURVE",
"297 0 CURVE"
);
},
{
closed = 0;
nodes = (
"312 33 LINE",
"312 22 OFFCURVE",
"312 11 OFFCURVE",
"311 0 CURVE"
);
},
{
closed = 0;
nodes = (
"313 25 LINE",
"319 33 OFFCURVE",
"324 37 OFFCURVE",
"327 37 CURVE SMOOTH",
"337 37 OFFCURVE",
"339 13 OFFCURVE",
"339 1 CURVE"
);
},
{
closed = 0;
nodes = (
"369 29 LINE",
"363 26 OFFCURVE",
"357 18 OFFCURVE",
"357 11 CURVE SMOOTH",
"357 6 OFFCURVE",
"361 2 OFFCURVE",
"370 1 CURVE SMOOTH",
"382 0 OFFCURVE",
"390 9 OFFCURVE",
"390 17 CURVE SMOOTH",
"390 24 OFFCURVE",
"385 30 OFFCURVE",
"374 30 CURVE SMOOTH",
"372 30 OFFCURVE",
"369 29 OFFCURVE",
"367 29 CURVE"
);
},
{
closed = 0;
nodes = (
"396 33 LINE",
"400 14 OFFCURVE",
"401 8 OFFCURVE",
"403 8 CURVE SMOOTH",
"406 8 OFFCURVE",
"409 19 OFFCURVE",
"421 31 CURVE SMOOTH",
"423 33 OFFCURVE",
"430 1 OFFCURVE",
"436 1 CURVE SMOOTH",
"437 1 OFFCURVE",
"439 4 OFFCURVE",
"440 10 CURVE SMOOTH",
"441 15 OFFCURVE",
"440 13 OFFCURVE",
"444 22 CURVE SMOOTH",
"446 27 OFFCURVE",
"448 32 OFFCURVE",
"450 37 CURVE"
);
},
{
closed = 0;
nodes = (
"461 51 LINE",
"461 35 OFFCURVE",
"461 18 OFFCURVE",
"461 1 CURVE"
);
},
{
closed = 0;
nodes = (
"480 17 LINE",
"499 17 OFFCURVE",
"505 21 OFFCURVE",
"505 25 CURVE SMOOTH",
"505 29 OFFCURVE",
"499 33 OFFCURVE",
"493 33 CURVE SMOOTH",
"491 33 OFFCURVE",
"489 33 OFFCURVE",
"487 32 CURVE SMOOTH",
"466 21 OFFCURVE",
"479 1 OFFCURVE",
"497 1 CURVE SMOOTH",
"501 1 OFFCURVE",
"505 2 OFFCURVE",
"509 4 CURVE"
);
},
{
closed = 0;
nodes = (
"552 56 LINE",
"552 37 OFFCURVE",
"552 18 OFFCURVE",
"552 0 CURVE"
);
},
{
closed = 0;
nodes = (
"553 25 LINE",
"546 31 OFFCURVE",
"540 34 OFFCURVE",
"536 34 CURVE SMOOTH",
"527 34 OFFCURVE",
"522 24 OFFCURVE",
"522 14 CURVE SMOOTH",
"522 5 OFFCURVE",
"527 -5 OFFCURVE",
"534 -5 CURVE SMOOTH",
"539 -5 OFFCURVE",
"545 -1 OFFCURVE",
"553 9 CURVE"
);
},
{
closed = 0;
nodes = (
"611 19 LINE",
"632 19 OFFCURVE",
"638 21 OFFCURVE",
"638 24 CURVE SMOOTH",
"638 26 OFFCURVE",
"634 27 OFFCURVE",
"628 27 CURVE SMOOTH",
"622 27 OFFCURVE",
"616 25 OFFCURVE",
"614 18 CURVE SMOOTH",
"610 3 OFFCURVE",
"620 -2 OFFCURVE",
"631 -2 CURVE SMOOTH",
"635 -2 OFFCURVE",
"639 -1 OFFCURVE",
"643 0 CURVE"
);
},
{
closed = 0;
nodes = (
"592 27 LINE",
"572 27 OFFCURVE",
"566 20 OFFCURVE",
"566 14 CURVE SMOOTH",
"566 5 OFFCURVE",
"574 -4 OFFCURVE",
"581 -4 CURVE SMOOTH",
"583 -4 OFFCURVE",
"585 -2 OFFCURVE",
"588 1 CURVE SMOOTH",
"594 7 OFFCURVE",
"594 29 OFFCURVE",
"594 23 CURVE SMOOTH",
"594 12 OFFCURVE",
"596 -2 OFFCURVE",
"596 -13 CURVE SMOOTH",
"596 -24 OFFCURVE",
"590 -28 OFFCURVE",
"581 -28 CURVE SMOOTH",
"574 -28 OFFCURVE",
"568 -26 OFFCURVE",
"561 -22 CURVE"
);
}
);
width = 600;
}
);
unicode = 0063;
},
{
glyphname = d;
lastChange = "2017-11-27 16:38:25 +0000";
layers = (
{
backgroundImage = {
crop = "{{0, 0}, {942, 601}}";
imagePath = "../../../Desktop/Capture d’écran 2017-11-13 à 08.07.22.png";
transform = "{1, 0, 0, 1, -1731, 1621}";
};
layerId = "E9291901-8CC5-48BD-9A84-10F491B4D832";
paths = (
{
closed = 1;
nodes = (
"149 479 LINE",
"149 123 LINE",
"151 121 LINE",
"418 121 LINE",
"420 123 LINE",
"420 479 LINE",
"418 481 LINE",
"151 481 LINE"
);
},
{
closed = 1;
nodes = (
"156 473 LINE",
"413 473 LINE",
"413 129 LINE",
"156 129 LINE"
);
},
{
closed = 1;
nodes = (
"284 29 LINE",
"284 79 LINE",
"289 79 LINE",
"291 82 LINE",
"283 100 LINE",
"279 100 LINE",
"271 82 LINE",
"273 79 LINE",
"278 79 LINE",
"278 25 LINE",
"280 23 LINE",
"379 23 LINE",
"379 29 LINE"
);
},
{
closed = 1;
nodes = (
"284 85 LINE",
"278 85 LINE",
"281 92 LINE"
);
}
);
width = 600;
}
);
unicode = 0064;
},
{
glyphname = e;
lastChange = "2017-11-27 16:41:00 +0000";
layers = (
{
backgroundImage = {
crop = "{{0, 0}, {942, 601}}";
imagePath = "../../../Desktop/Capture d’écran 2017-11-13 à 08.07.22.png";
transform = "{1, 0, 0, 1, -1781, 1809}";
};
layerId = "E9291901-8CC5-48BD-9A84-10F491B4D832";
paths = (
{
closed = 0;
nodes = (
"146 504 LINE",
"-49 504 LINE",
"-49 295 LINE"
);
},
{
closed = 0;
nodes = (
"402 504 LINE",
"619 504 LINE",
"619 280 LINE"
);
},
{
closed = 0;
nodes = (
"619 199 LINE",
"619 1 LINE",
"575 1 LINE"
);
},
{
closed = 1;
nodes = (
"-42 296 LINE",
"-56 296 LINE",
"-49 280 LINE"
);
},
{
closed = 1;
nodes = (
"-41 298 LINE",
"-47 298 LINE",
"-47 502 LINE",
"148 502 LINE",
"148 506 LINE",
"-50 506 LINE",
"-51 505 LINE",
"-51 298 LINE",
"-57 298 LINE",
"-58 296 LINE",
"-50 278 LINE",
"-48 278 LINE",
"-40 296 LINE"
);
},
{
closed = 1;
nodes = (
"620 506 LINE",
"400 506 LINE",
"400 502 LINE",
"617 502 LINE",
"617 278 LINE",
"621 278 LINE",
"621 505 LINE"
);
},
{
closed = 1;
nodes = (
"-47 293 LINE",
"-47 294 LINE",
"-45 294 LINE",
"-49 286 LINE",
"-53 294 LINE",
"-51 294 LINE",
"-51 293 LINE"
);
},
{
closed = 1;
nodes = (
"621 201 LINE",
"617 201 LINE",
"617 3 LINE",
"573 3 LINE",
"573 -1 LINE",
"620 -1 LINE",
"621 0 LINE"
);
},
{
closed = 1;
nodes = (
"275 3 LINE",
"275 59 LINE",
"281 59 LINE",
"282 61 LINE",
"274 79 LINE",
"272 79 LINE",
"264 61 LINE",
"265 59 LINE",
"271 59 LINE",
"271 0 LINE",
"272 -1 LINE",
"370 -1 LINE",
"370 3 LINE"
);
}
);
width = 600;
}
);
unicode = 0065;
},
{
glyphname = f;
lastChange = "2017-11-27 16:41:39 +0000";
layers = (
{
backgroundImage = {
crop = "{{0, 0}, {942, 601}}";
imagePath = "../../../Desktop/Capture d’écran 2017-11-13 à 08.07.22.png";
transform = "{1, 0, 0, 1, -1999, 1558}";
};
layerId = "E9291901-8CC5-48BD-9A84-10F491B4D832";
paths = (
{
closed = 1;
nodes = (
"267 307 LINE",
"280 322 LINE",
"279 325 LINE",
"260 325 LINE",
"259 323 LINE",
"261 318 LINE",
"55 266 LINE",
"56 263 LINE",
"262 315 LINE",
"264 307 LINE"
);
},
{
closed = 1;
nodes = (
"265 319 LINE",
"265 319 LINE",
"264 321 LINE",
"273 321 LINE",
"267 313 LINE",
"266 316 LINE"
);
},
{
closed = 1;
nodes = (
"563 273 LINE",
"549 286 LINE",
"546 286 LINE",
"544 280 LINE",
"433 319 LINE",
"431 315 LINE",
"543 275 LINE",
"542 271 LINE",
"543 269 LINE",
"562 270 LINE"
);
},
{
closed = 1;
nodes = (
"329 295 LINE",
"335 314 LINE",
"333 316 LINE",
"315 310 LINE",
"315 307 LINE",
"319 303 LINE",
"277 262 LINE",
"280 259 LINE",
"322 300 LINE",
"326 295 LINE"
);
},
{
closed = 1;
nodes = (
"322 306 LINE",
"321 305 LINE",
"320 307 LINE",
"329 310 LINE",
"326 300 LINE",
"324 302 LINE",
"325 303 LINE"
);
},
{
closed = 1;
nodes = (
"549 278 LINE",
"549 281 LINE",
"557 274 LINE",
"547 273 LINE",
"548 275 LINE",
"549 278 LINE"
);
},
{
closed = 1;
nodes = (
"166 239 LINE",
"148 247 LINE",
"146 246 LINE",
"146 240 LINE",
"55 240 LINE",
"55 236 LINE",
"146 236 LINE",
"146 230 LINE",
"148 229 LINE",
"166 237 LINE"
);
},
{
closed = 1;
nodes = (
"563 236 LINE",
"545 244 LINE",
"543 243 LINE",
"543 237 LINE",
"329 237 LINE",
"329 233 LINE",
"543 233 LINE",
"543 227 LINE",
"545 226 LINE",
"563 234 LINE"
);
},
{
closed = 1;
nodes = (
"158 238 LINE",
"150 234 LINE",
"150 242 LINE"
);
},
{
closed = 1;
nodes = (
"547 231 LINE",
"547 239 LINE",
"555 235 LINE"
);
},
{
closed = 1;
nodes = (
"280 154 LINE",
"264 164 LINE",
"262 164 LINE",
"260 158 LINE",
"54 215 LINE",
"53 212 LINE",
"259 155 LINE",
"257 149 LINE",
"258 147 LINE",
"279 151 LINE"
);
},
{
closed = 1;
nodes = (
"335 160 LINE",
"335 160 LINE",
"335 160 LINE",
"327 175 LINE",
"326 175 LINE",
"321 171 LINE",
"277 214 LINE",
"274 211 LINE",
"317 168 LINE",
"313 165 LINE",
"313 162 LINE",
"334 156 LINE",
"336 158 LINE"
);
},
{
closed = 1;
nodes = (
"547 179 LINE",
"561 193 LINE",
"560 196 LINE",
"541 197 LINE",
"540 195 LINE",
"541 190 LINE",
"428 154 LINE",
"430 150 LINE",
"542 186 LINE",
"544 179 LINE"
);
},
{
closed = 1;
nodes = (
"546 192 LINE",
"545 192 LINE",
"545 193 LINE",
"555 192 LINE",
"547 184 LINE",
"546 187 LINE",
"548 188 LINE"
);
},
{
closed = 1;
nodes = (
"324 168 LINE",
"324 168 LINE",
"325 170 LINE",
"329 162 LINE",
"320 165 LINE",
"320 166 LINE",
"321 165 LINE"
);
},
{
closed = 1;
nodes = (
"273 154 LINE",
"262 152 LINE",
"265 159 LINE"
);
}
);
width = 600;
}
);
unicode = 0066;
},
{
glyphname = g;
lastChange = "2017-11-27 16:42:05 +0000";
layers = (
{
backgroundImage = {
crop = "{{0, 0}, {942, 601}}";
imagePath = "../../../Desktop/Capture d’écran 2017-11-13 à 08.07.22.png";
transform = "{1, 0, 0, 1, -2825, 1462}";
};
layerId = "E9291901-8CC5-48BD-9A84-10F491B4D832";
paths = (
{
closed = 1;
nodes = (
"428 264 LINE",
"428 337 LINE",
"527 303 LINE",
"529 307 LINE",
"428 342 LINE",
"428 460 LINE",
"427 461 LINE",
"156 461 LINE",
"156 457 LINE",
"424 457 LINE",
"424 343 LINE",
"413 347 LINE",
"411 343 LINE",
"424 339 LINE",
"424 261 LINE",
"425 260 LINE",
"526 260 LINE",
"526 264 LINE"
);
},
{
closed = 1;
nodes = (
"155 109 LINE",
"155 211 LINE",
"32 245 LINE",
"31 242 LINE",
"151 207 LINE",
"151 106 LINE",
"152 105 LINE",
"423 105 LINE",
"423 109 LINE"
);
}
);
width = 600;
}
);
unicode = 0067;
},
{
glyphname = h;
lastChange = "2017-11-27 16:42:54 +0000";
layers = (
{
layerId = "E9291901-8CC5-48BD-9A84-10F491B4D832";
paths = (
{
closed = 0;
nodes = (
"-452 361 LINE",
"451 585 LINE"
);
},
{
closed = 0;
nodes = (
"-443 245 LINE",
"-48 245 LINE"
);
},
{
closed = 0;
nodes = (
"503 348 LINE",
"705 529 LINE"
);
},
{
closed = 0;
nodes = (
"503 133 LINE",
"692 -56 LINE"
);
},
{
closed = 1;
nodes = (
"453 584 LINE",
"-453 359 LINE",
"-454 362 LINE",
"452 587 LINE"
);
},
{
closed = 1;
nodes = (
"-46 243 LINE",
"-445 243 LINE",
"-445 247 LINE",
"-46 247 LINE"
);
},
{
closed = 1;
nodes = (
"708 529 LINE",
"503 345 LINE",
"500 348 LINE",
"705 532 LINE"
);
},
{
closed = 1;
nodes = (
"692 -59 LINE",
"500 133 LINE",
"503 136 LINE",
"695 -56 LINE"
);
},
{
closed = 1;
nodes = (
"453 584 LINE",
"-453 359 LINE",
"-454 362 LINE",
"452 587 LINE"
);
},
{
closed = 1;
nodes = (
"-46 243 LINE",
"-445 243 LINE",
"-445 247 LINE",
"-46 247 LINE"
);
},
{
closed = 1;
nodes = (
"708 529 LINE",
"503 345 LINE",
"500 348 LINE",
"705 532 LINE"
);
},
{
closed = 1;
nodes = (
"692 -59 LINE",
"500 133 LINE",
"503 136 LINE",
"695 -56 LINE"
);
}
);
width = 600;
}
);
unicode = 0068;
},
{
glyphname = i;
lastChange = "2017-11-27 16:43:58 +0000";
layers = (
{
backgroundImage = {
crop = "{{0, 0}, {945, 582}}";
imagePath = "../../../Desktop/Capture d’écran 2017-11-13 à 08.21.39.png";
transform = "{1, 0, 0, 1, -2008, 1572}";
};
layerId = "E9291901-8CC5-48BD-9A84-10F491B4D832";
paths = (
{
closed = 1;
nodes = (
"691 71 LINE",
"909 71 LINE",
"909 461 LINE",
"691 461 LINE"
);
},
{
closed = 1;
nodes = (
"524 385 LINE",
"633 385 LINE",
"633 461 LINE",
"524 461 LINE"
);
},
{
closed = 1;
nodes = (
"140 385 LINE",
"453 385 LINE",
"453 461 LINE",
"140 461 LINE"
);
},
{
closed = 1;
nodes = (
"451 459 LINE",
"451 387 LINE",
"142 387 LINE",
"142 459 LINE"
);
},
{
closed = 0;
nodes = (
"456 422 LINE",
"530 422 LINE"
);
},
{
closed = 0;
nodes = (
"636 421 LINE",
"728 421 LINE"
);
},
{
closed = 1;
nodes = (
"911 462 LINE",
"910 463 LINE",
"690 463 LINE",
"689 462 LINE",
"689 423 LINE",
"645 423 LINE",
"645 433 LINE",
"642 434 LINE",
"635 426 LINE",
"635 462 LINE",
"634 463 LINE",
"523 463 LINE",
"522 462 LINE",
"522 424 LINE",
"464 424 LINE",
"464 434 LINE",
"461 435 LINE",
"455 427 LINE",
"455 462 LINE",
"454 463 LINE",
"139 463 LINE",
"138 462 LINE",
"138 384 LINE",
"139 383 LINE",
"454 383 LINE",
"455 384 LINE",
"455 417 LINE",
"461 409 LINE",
"464 410 LINE",
"464 420 LINE",
"522 420 LINE",
"522 384 LINE",
"523 383 LINE",
"634 383 LINE",
"635 384 LINE",
"635 415 LINE",
"642 407 LINE",
"645 408 LINE",
"645 419 LINE",
"689 419 LINE",
"689 70 LINE",
"690 69 LINE",
"910 69 LINE",
"911 70 LINE"
);
},
{
closed = 1;
nodes = (
"730 423 LINE",
"693 423 LINE",
"693 459 LINE",
"907 459 LINE",
"907 73 LINE",
"693 73 LINE",
"693 419 LINE",
"730 419 LINE"
);
},
{
closed = 1;
nodes = (
"532 424 LINE",
"526 424 LINE",
"526 459 LINE",
"631 459 LINE",
"631 387 LINE",
"526 387 LINE",
"526 420 LINE",
"532 420 LINE"
);
},
{
closed = 1;
nodes = (
"144 457 LINE",
"449 457 LINE",
"449 389 LINE",
"144 389 LINE"
);
}
);
width = 600;
}
);
unicode = 0069;
},
{
glyphname = j;
lastChange = "2017-11-27 16:44:24 +0000";
layers = (
{
backgroundImage = {
crop = "{{0, 0}, {945, 582}}";
imagePath = "../../../Desktop/Capture d’écran 2017-11-13 à 08.21.39.png";
transform = "{1, 0, 0, 1, -3033, 1769}";
};
layerId = "E9291901-8CC5-48BD-9A84-10F491B4D832";
paths = (
{
closed = 1;
nodes = (
"-13 358 OFFCURVE",
"6 400 OFFCURVE",
"6 450 CURVE SMOOTH",
"6 500 OFFCURVE",
"-13 542 OFFCURVE",
"-39 542 CURVE SMOOTH",
"-63 542 OFFCURVE",
"-83 500 OFFCURVE",
"-83 450 CURVE SMOOTH",
"-83 400 OFFCURVE",
"-63 358 OFFCURVE",
"-39 358 CURVE SMOOTH"
);
},
{
closed = 1;
nodes = (
"-63 360 OFFCURVE",
"-81 402 OFFCURVE",
"-81 450 CURVE SMOOTH",
"-81 499 OFFCURVE",
"-63 540 OFFCURVE",
"-39 540 CURVE SMOOTH",
"-13 540 OFFCURVE",
"4 499 OFFCURVE",
"4 450 CURVE SMOOTH",
"4 402 OFFCURVE",
"-13 360 OFFCURVE",
"-39 360 CURVE SMOOTH"
);
},
{
closed = 1;
nodes = (
"-13 358 OFFCURVE",
"6 400 OFFCURVE",
"6 450 CURVE SMOOTH",
"6 500 OFFCURVE",
"-13 542 OFFCURVE",
"-39 542 CURVE SMOOTH",
"-63 542 OFFCURVE",
"-83 500 OFFCURVE",
"-83 450 CURVE SMOOTH",
"-83 400 OFFCURVE",
"-63 358 OFFCURVE",
"-39 358 CURVE SMOOTH"
);
},
{
closed = 1;
nodes = (
"-63 360 OFFCURVE",
"-81 402 OFFCURVE",
"-81 450 CURVE SMOOTH",
"-81 499 OFFCURVE",
"-63 540 OFFCURVE",
"-39 540 CURVE SMOOTH",
"-13 540 OFFCURVE",
"4 499 OFFCURVE",
"4 450 CURVE SMOOTH",
"4 402 OFFCURVE",
"-13 360 OFFCURVE",
"-39 360 CURVE SMOOTH"
);
},
{
closed = 1;
nodes = (
"-13 358 OFFCURVE",
"6 400 OFFCURVE",
"6 450 CURVE SMOOTH",
"6 500 OFFCURVE",
"-13 542 OFFCURVE",
"-39 542 CURVE SMOOTH",
"-63 542 OFFCURVE",
"-83 500 OFFCURVE",
"-83 450 CURVE SMOOTH",
"-83 400 OFFCURVE",
"-63 358 OFFCURVE",
"-39 358 CURVE SMOOTH"
);
},
{
closed = 1;
nodes = (
"-63 360 OFFCURVE",
"-81 402 OFFCURVE",
"-81 450 CURVE SMOOTH",
"-81 499 OFFCURVE",
"-63 540 OFFCURVE",
"-39 540 CURVE SMOOTH",
"-13 540 OFFCURVE",
"4 499 OFFCURVE",
"4 450 CURVE SMOOTH",
"4 402 OFFCURVE",
"-13 360 OFFCURVE",
"-39 360 CURVE SMOOTH"
);
},
{
closed = 1;
nodes = (
"-15 -12 OFFCURVE",
"4 30 OFFCURVE",
"4 80 CURVE SMOOTH",
"4 130 OFFCURVE",
"-15 172 OFFCURVE",
"-41 172 CURVE SMOOTH",
"-65 172 OFFCURVE",
"-84 130 OFFCURVE",
"-84 80 CURVE SMOOTH",
"-84 30 OFFCURVE",
"-65 -12 OFFCURVE",
"-41 -12 CURVE SMOOTH"
);
},
{
closed = 1;
nodes = (
"-65 -10 OFFCURVE",
"-83 31 OFFCURVE",
"-83 80 CURVE SMOOTH",
"-83 128 OFFCURVE",
"-65 170 OFFCURVE",
"-41 170 CURVE SMOOTH",
"-15 170 OFFCURVE",
"3 128 OFFCURVE",
"3 80 CURVE SMOOTH",
"3 31 OFFCURVE",
"-15 -10 OFFCURVE",
"-41 -10 CURVE SMOOTH"
);
},
{
closed = 0;
nodes = (
"-47 540 LINE",
"-47 627 LINE",
"-131 627 LINE",
"-131 -39 LINE",
"-55 -39 LINE",
"-55 -6 LINE"
);
},
{
closed = 0;
nodes = (
"-50 362 LINE",
"-50 168 LINE"
);
},
{
closed = 0;
nodes = (
"-36 542 LINE",
"-36 586 LINE",
"45 586 LINE"
);
},
{
closed = 0;
nodes = (
"-41 360 LINE",
"-41 317 LINE",
"45 317 LINE"
);
},
{
closed = 0;
nodes = (
"-41 170 LINE",
"-41 205 LINE",
"46 205 LINE"
);
},
{
closed = 1;
nodes = (
"59 586 LINE",
"45 568 LINE",
"45 603 LINE"
);
},
{
closed = 1;
nodes = (
"59 317 LINE",
"45 299 LINE",
"45 334 LINE"
);
},
{
closed = 1;
nodes = (
"59 205 LINE",
"45 188 LINE",
"45 223 LINE"
);
},
{
closed = 1;
nodes = (
"-64 356 OFFCURVE",
"-85 398 OFFCURVE",
"-85 450 CURVE",
"-85 502 OFFCURVE",
"-64 544 OFFCURVE",
"-39 544 CURVE",
"-12 544 OFFCURVE",
"8 502 OFFCURVE",
"8 450 CURVE",
"8 398 OFFCURVE",
"-12 356 OFFCURVE",
"-39 356 CURVE"
);
},
{
closed = 1;
nodes = (
"-14 362 OFFCURVE",
"2 404 OFFCURVE",
"2 450 CURVE",
"2 497 OFFCURVE",
"-14 538 OFFCURVE",
"-39 538 CURVE",
"-62 538 OFFCURVE",
"-79 497 OFFCURVE",
"-79 450 CURVE",
"-79 404 OFFCURVE",
"-62 362 OFFCURVE",
"-39 362 CURVE"
);
},
{
closed = 1;
nodes = (
"-64 356 OFFCURVE",
"-85 398 OFFCURVE",
"-85 450 CURVE",
"-85 502 OFFCURVE",
"-64 544 OFFCURVE",
"-39 544 CURVE",
"-12 544 OFFCURVE",
"8 502 OFFCURVE",
"8 450 CURVE",
"8 398 OFFCURVE",
"-12 356 OFFCURVE",
"-39 356 CURVE"
);
},
{
closed = 1;
nodes = (
"-14 362 OFFCURVE",
"2 404 OFFCURVE",
"2 450 CURVE",
"2 497 OFFCURVE",
"-14 538 OFFCURVE",
"-39 538 CURVE",
"-62 538 OFFCURVE",
"-79 497 OFFCURVE",
"-79 450 CURVE",
"-79 404 OFFCURVE",
"-62 362 OFFCURVE",
"-39 362 CURVE"
);
},
{
closed = 1;
nodes = (
"-64 356 OFFCURVE",
"-85 398 OFFCURVE",
"-85 450 CURVE",
"-85 502 OFFCURVE",
"-64 544 OFFCURVE",
"-39 544 CURVE",
"-12 544 OFFCURVE",
"8 502 OFFCURVE",
"8 450 CURVE",
"8 398 OFFCURVE",
"-12 356 OFFCURVE",
"-39 356 CURVE"
);
},
{
closed = 1;
nodes = (
"-14 362 OFFCURVE",
"2 404 OFFCURVE",
"2 450 CURVE",
"2 497 OFFCURVE",
"-14 538 OFFCURVE",
"-39 538 CURVE",
"-62 538 OFFCURVE",
"-79 497 OFFCURVE",
"-79 450 CURVE",
"-79 404 OFFCURVE",
"-62 362 OFFCURVE",
"-39 362 CURVE"
);
},
{
closed = 1;
nodes = (
"-66 -14 OFFCURVE",
"-86 28 OFFCURVE",
"-86 80 CURVE",
"-86 132 OFFCURVE",
"-66 174 OFFCURVE",
"-41 174 CURVE",
"-14 174 OFFCURVE",
"6 132 OFFCURVE",
"6 80 CURVE",
"6 28 OFFCURVE",
"-14 -14 OFFCURVE",
"-41 -14 CURVE"
);
},
{
closed = 1;
nodes = (
"-16 -8 OFFCURVE",
"1 33 OFFCURVE",
"1 80 CURVE",
"1 126 OFFCURVE",
"-16 168 OFFCURVE",
"-41 168 CURVE",
"-64 168 OFFCURVE",
"-81 126 OFFCURVE",
"-81 80 CURVE",
"-81 33 OFFCURVE",
"-64 -8 OFFCURVE",
"-41 -8 CURVE"
);
},
{
closed = 1;
nodes = (
"47 603 LINE",
"47 568 LINE",
"43 569 LINE",
"57 587 LINE",
"57 585 LINE",
"43 602 LINE"
);
},
{
closed = 1;
nodes = (
"47 334 LINE",
"47 299 LINE",
"43 300 LINE",
"57 318 LINE",
"57 316 LINE",
"43 333 LINE"
);
},
{
closed = 1;
nodes = (
"47 223 LINE",
"47 188 LINE",
"43 189 LINE",
"57 206 LINE",
"57 204 LINE",
"43 222 LINE"
);
},
{
closed = 1;
nodes = (
"-14 360 OFFCURVE",
"4 402 OFFCURVE",
"4 450 CURVE",
"4 498 OFFCURVE",
"-14 540 OFFCURVE",
"-39 540 CURVE",
"-62 540 OFFCURVE",
"-81 498 OFFCURVE",
"-81 450 CURVE",
"-81 402 OFFCURVE",
"-62 360 OFFCURVE",
"-39 360 CURVE"
);
},
{
closed = 1;
nodes = (
"-64 358 OFFCURVE",
"-83 400 OFFCURVE",
"-83 450 CURVE",
"-83 501 OFFCURVE",
"-64 542 OFFCURVE",
"-39 542 CURVE",
"-12 542 OFFCURVE",
"6 501 OFFCURVE",
"6 450 CURVE",
"6 400 OFFCURVE",
"-12 358 OFFCURVE",
"-39 358 CURVE"
);
},
{
closed = 1;
nodes = (
"-14 360 OFFCURVE",
"4 402 OFFCURVE",
"4 450 CURVE",
"4 498 OFFCURVE",
"-14 540 OFFCURVE",
"-39 540 CURVE",
"-62 540 OFFCURVE",
"-81 498 OFFCURVE",
"-81 450 CURVE",
"-81 402 OFFCURVE",
"-62 360 OFFCURVE",
"-39 360 CURVE"
);
},
{
closed = 1;
nodes = (
"-64 358 OFFCURVE",
"-83 400 OFFCURVE",
"-83 450 CURVE",
"-83 501 OFFCURVE",
"-64 542 OFFCURVE",
"-39 542 CURVE",
"-12 542 OFFCURVE",
"6 501 OFFCURVE",
"6 450 CURVE",
"6 400 OFFCURVE",
"-12 358 OFFCURVE",
"-39 358 CURVE"
);
},
{
closed = 1;
nodes = (
"-14 360 OFFCURVE",
"4 402 OFFCURVE",
"4 450 CURVE",
"4 498 OFFCURVE",
"-14 540 OFFCURVE",
"-39 540 CURVE",
"-62 540 OFFCURVE",
"-81 498 OFFCURVE",
"-81 450 CURVE",
"-81 402 OFFCURVE",
"-62 360 OFFCURVE",
"-39 360 CURVE"
);
},
{
closed = 1;
nodes = (
"-64 358 OFFCURVE",
"-83 400 OFFCURVE",
"-83 450 CURVE",
"-83 501 OFFCURVE",
"-64 542 OFFCURVE",
"-39 542 CURVE",
"-12 542 OFFCURVE",
"6 501 OFFCURVE",
"6 450 CURVE",
"6 400 OFFCURVE",
"-12 358 OFFCURVE",
"-39 358 CURVE"
);
},
{
closed = 1;
nodes = (
"-16 -10 OFFCURVE",
"2 32 OFFCURVE",
"2 80 CURVE",
"2 128 OFFCURVE",
"-16 170 OFFCURVE",
"-41 170 CURVE",
"-64 170 OFFCURVE",
"-82 128 OFFCURVE",
"-82 80 CURVE",
"-82 32 OFFCURVE",
"-64 -10 OFFCURVE",
"-41 -10 CURVE"
);
},
{
closed = 1;
nodes = (
"-66 -12 OFFCURVE",
"-85 29 OFFCURVE",
"-85 80 CURVE",
"-85 130 OFFCURVE",
"-66 172 OFFCURVE",
"-41 172 CURVE",
"-14 172 OFFCURVE",
"5 130 OFFCURVE",
"5 80 CURVE",
"5 29 OFFCURVE",
"-14 -12 OFFCURVE",
"-41 -12 CURVE"
);
},
{
closed = 1;
nodes = (
"-47 625 LINE",
"-131 625 LINE",
"-129 627 LINE",
"-129 -39 LINE",
"-131 -37 LINE",
"-55 -37 LINE",
"-57 -39 LINE",
"-57 -4 LINE",
"-53 -4 LINE",
"-53 -40 LINE",
"-54 -41 LINE",
"-132 -41 LINE",
"-133 -40 LINE",
"-133 628 LINE",
"-132 629 LINE",
"-46 629 LINE",
"-45 628 LINE",
"-45 538 LINE",
"-49 538 LINE",
"-49 627 LINE"
);
},
{
closed = 1;
nodes = (
"-52 166 LINE",
"-52 364 LINE",
"-48 364 LINE",
"-48 166 LINE"
);
},
{
closed = 1;
nodes = (
"-37 588 LINE",
"47 588 LINE",
"47 584 LINE",
"-36 584 LINE",
"-34 586 LINE",
"-34 540 LINE",
"-38 540 LINE",
"-38 587 LINE"
);
},
{
closed = 1;
nodes = (
"-41 319 LINE",
"47 319 LINE",
"47 315 LINE",
"-42 315 LINE",
"-43 316 LINE",
"-43 362 LINE",
"-39 362 LINE",
"-39 317 LINE"
);
},
{
closed = 1;
nodes = (
"-42 207 LINE",
"48 207 LINE",
"48 203 LINE",
"-41 203 LINE",
"-39 205 LINE",
"-39 168 LINE",
"-43 168 LINE",
"-43 206 LINE"
);
},
{
closed = 1;
nodes = (
"61 586 LINE",
"46 566 LINE",
"43 567 LINE",
"43 604 LINE",
"46 605 LINE",
"61 586 LINE"
);
},
{
closed = 1;
nodes = (
"61 317 LINE",
"46 297 LINE",
"43 298 LINE",
"43 335 LINE",
"46 336 LINE",
"61 317 LINE"
);
},
{
closed = 1;
nodes = (
"61 205 LINE",
"46 186 LINE",
"43 187 LINE",
"43 224 LINE",
"46 225 LINE",
"61 205 LINE"
);
}
);
width = 600;
}
);
unicode = 006A;
},
{
glyphname = k;
lastChange = "2017-11-27 16:44:50 +0000";
layers = (
{
backgroundImage = {
crop = "{{0, 0}, {945, 582}}";
imagePath = "../../../Desktop/Capture d’écran 2017-11-13 à 08.21.39.png";
transform = "{1, 0, 0, 1, -1965, 1443}";
};
layerId = "E9291901-8CC5-48BD-9A84-10F491B4D832";
paths = (
{
closed = 1;
nodes = (
"573 499 LINE",
"573 439 LINE",
"-6 439 LINE",
"-6 499 LINE"
);
},
{
closed = 1;
nodes = (
"-7 438 LINE",
"574 438 LINE",
"574 500 LINE",
"-7 500 LINE"
);
},
{
closed = 1;
nodes = (
"46 391 LINE",
"46 154 LINE",
"-9 154 LINE",
"-9 391 LINE"
);
},
{
closed = 1;
nodes = (
"-10 153 LINE",
"47 153 LINE",
"47 392 LINE",
"-10 392 LINE"
);
},
{
closed = 1;
nodes = (
"489 391 LINE",
"489 348 LINE",
"299 348 LINE",
"299 391 LINE"
);
},
{
closed = 1;
nodes = (
"298 347 LINE",
"490 347 LINE",
"490 392 LINE",
"298 392 LINE"
);
},
{
closed = 0;
nodes = (
"6 433 LINE",
"6 391 LINE"
);
},
{
closed = 0;
nodes = (
"34 439 LINE",
"34 396 LINE"
);
},
{
closed = 0;
nodes = (
"319 434 LINE",
"319 392 LINE"
);
},
{
closed = 0;
nodes = (
"347 438 LINE",
"347 396 LINE"
);
},
{
closed = 1;
nodes = (
"34 392 LINE",
"24 401 LINE",
"44 401 LINE"
);
},
{
closed = 1;
nodes = (
"-4 429 LINE",
"6 438 LINE",
"16 429 LINE"
);
},
{
closed = 1;
nodes = (
"347 392 LINE",
"337 401 LINE",
"357 401 LINE"
);
},
{
closed = 1;
nodes = (
"309 429 LINE",
"319 438 LINE",
"329 429 LINE"
);
},
{
closed = 1;
nodes = (
"-4 499 LINE",
"-4 439 LINE",
"-6 441 LINE",
"573 441 LINE",
"571 439 LINE",
"571 499 LINE",
"573 497 LINE",
"-6 497 LINE"
);
},
{
closed = 1;
nodes = (
"-9 501 LINE",
"-8 502 LINE",
"575 502 LINE",
"576 501 LINE",
"576 437 LINE",
"575 436 LINE",
"-8 436 LINE",
"-9 437 LINE"
);
},
{
closed = 1;
nodes = (
"-7 391 LINE",
"-7 154 LINE",
"-9 156 LINE",
"46 156 LINE",
"44 154 LINE",
"44 391 LINE",
"46 389 LINE",
"-9 389 LINE"
);
},
{
closed = 1;
nodes = (
"-12 393 LINE",
"-11 394 LINE",
"48 394 LINE",
"49 393 LINE",
"49 152 LINE",
"48 151 LINE",
"-11 151 LINE",
"-12 152 LINE"
);
},
{
closed = 1;
nodes = (
"301 391 LINE",
"301 348 LINE",
"299 350 LINE",
"489 350 LINE",
"487 348 LINE",
"487 391 LINE",
"489 389 LINE",
"299 389 LINE"
);
},
{
closed = 1;
nodes = (
"296 393 LINE",
"297 394 LINE",
"491 394 LINE",
"492 393 LINE",
"492 346 LINE",
"491 345 LINE",
"297 345 LINE",
"296 346 LINE"
);
},
{
closed = 1;
nodes = (
"44 399 LINE",
"24 399 LINE",
"25 402 LINE",
"35 393 LINE",
"33 393 LINE",
"43 402 LINE"
);
},
{
closed = 1;
nodes = (
"15 428 LINE",
"5 437 LINE",
"7 437 LINE",
"-3 428 LINE",
"-4 431 LINE",
"16 431 LINE"
);
},
{
closed = 1;
nodes = (
"357 399 LINE",
"337 399 LINE",
"338 402 LINE",
"348 393 LINE",
"346 393 LINE",
"356 402 LINE"
);
},
{
closed = 1;
nodes = (
"328 428 LINE",
"318 437 LINE",
"320 437 LINE",
"310 428 LINE",
"309 431 LINE",
"329 431 LINE"
);
},
{
closed = 1;
nodes = (
"575 500 LINE",
"575 438 LINE",
"574 437 LINE",
"-7 437 LINE",
"-8 438 LINE",
"-8 500 LINE",
"-7 501 LINE",
"574 501 LINE"
);
},
{
closed = 1;
nodes = (
"-5 438 LINE",
"-7 440 LINE",
"574 440 LINE",
"572 438 LINE",
"572 500 LINE",
"574 498 LINE",
"-7 498 LINE",
"-5 500 LINE"
);
},
{
closed = 1;
nodes = (
"48 392 LINE",
"48 153 LINE",
"47 152 LINE",
"-10 152 LINE",
"-11 153 LINE",
"-11 392 LINE",
"-10 393 LINE",
"47 393 LINE"
);
},
{
closed = 1;
nodes = (
"-8 153 LINE",
"-10 155 LINE",
"47 155 LINE",
"45 153 LINE",
"45 392 LINE",
"47 390 LINE",
"-10 390 LINE",
"-8 392 LINE"
);
},
{
closed = 1;
nodes = (
"491 392 LINE",
"491 347 LINE",
"490 346 LINE",
"298 346 LINE",
"297 347 LINE",
"297 392 LINE",
"298 393 LINE",
"490 393 LINE"
);
},
{
closed = 1;
nodes = (
"300 347 LINE",
"298 349 LINE",
"490 349 LINE",
"488 347 LINE",
"488 392 LINE",
"490 390 LINE",
"298 390 LINE",
"300 392 LINE"
);
},
{
closed = 1;
nodes = (
"4 389 LINE",
"4 435 LINE",
"8 435 LINE",
"8 389 LINE"
);
},
{
closed = 1;
nodes = (
"32 394 LINE",
"32 441 LINE",
"36 441 LINE",
"36 394 LINE"
);
},
{
closed = 1;
nodes = (
"317 390 LINE",
"317 436 LINE",
"321 436 LINE",
"321 390 LINE"
);
},
{
closed = 1;
nodes = (
"345 394 LINE",
"345 440 LINE",
"349 440 LINE",
"349 394 LINE"
);
},
{
closed = 1;
nodes = (
"33 390 LINE",
"22 400 LINE",
"23 403 LINE",
"45 403 LINE",
"46 400 LINE",
"35 390 LINE"
);
},
{
closed = 1;
nodes = (
"-6 430 LINE",
"5 440 LINE",
"7 440 LINE",
"18 430 LINE",
"17 427 LINE",
"-5 427 LINE"
);
},
{
closed = 1;
nodes = (
"346 390 LINE",
"335 400 LINE",
"336 403 LINE",
"358 403 LINE",
"359 400 LINE",
"348 390 LINE"
);
},
{
closed = 1;
nodes = (
"307 430 LINE",
"318 440 LINE",
"320 440 LINE",
"331 430 LINE",
"330 427 LINE",
"308 427 LINE"
);
}
);
width = 600;
}
);
unicode = 006B;
},
{
glyphname = l;
lastChange = "2017-11-27 16:45:24 +0000";
layers = (
{
layerId = "E9291901-8CC5-48BD-9A84-10F491B4D832";
paths = (
{
closed = 1;
nodes = (
"384 300 LINE",
"384 242 LINE",
"212 242 LINE",
"212 300 LINE"
);
},
{
closed = 1;
nodes = (
"211 241 LINE",
"385 241 LINE",
"385 301 LINE",
"211 301 LINE"
);
},
{
closed = 0;
nodes = (
"339 343 LINE",
"339 301 LINE"
);
},
{
closed = 0;
nodes = (
"367 347 LINE",
"367 305 LINE"
);
},
{
closed = 1;
nodes = (
"367 301 LINE",
"357 310 LINE",
"377 310 LINE"
);
},
{
closed = 1;
nodes = (
"329 338 LINE",
"339 347 LINE",
"349 338 LINE"
);
},
{
closed = 0;
nodes = (
"227 347 LINE",
"227 305 LINE"
);
},
{
closed = 0;
nodes = (
"255 343 LINE",
"255 301 LINE"
);
},
{
closed = 1;
nodes = (
"245 338 LINE",
"255 347 LINE",
"265 338 LINE"
);
},
{
closed = 1;
nodes = (
"227 301 LINE",
"217 310 LINE",
"237 310 LINE"
);
},
{
closed = 0;
nodes = (
"227 241 LINE",
"227 199 LINE"
);
},
{
closed = 0;
nodes = (
"255 237 LINE",
"255 195 LINE"
);
},
{
closed = 1;
nodes = (
"245 232 LINE",
"255 241 LINE",
"265 232 LINE"
);
},
{
closed = 1;
nodes = (
"227 195 LINE",
"217 204 LINE",
"237 204 LINE"
);
},
{
closed = 0;
nodes = (
"338 237 LINE",
"338 195 LINE"
);
},
{
closed = 0;
nodes = (
"366 241 LINE",
"366 199 LINE"
);
},
{
closed = 1;
nodes = (
"366 195 LINE",
"356 204 LINE",
"376 204 LINE"
);
},
{
closed = 1;
nodes = (
"328 232 LINE",
"338 241 LINE",
"348 232 LINE"
);
},
{
closed = 1;
nodes = (
"214 300 LINE",
"214 242 LINE",
"212 244 LINE",
"384 244 LINE",
"382 242 LINE",
"382 300 LINE",
"384 298 LINE",
"212 298 LINE"
);
},
{
closed = 1;
nodes = (
"209 302 LINE",
"210 303 LINE",
"386 303 LINE",
"387 302 LINE",
"387 240 LINE",
"386 239 LINE",
"210 239 LINE",
"209 240 LINE"
);
},
{
closed = 1;
nodes = (
"377 308 LINE",
"357 308 LINE",
"358 311 LINE",
"368 302 LINE",
"366 302 LINE",
"376 311 LINE"
);
},
{
closed = 1;
nodes = (
"348 337 LINE",
"338 346 LINE",
"340 346 LINE",
"330 337 LINE",
"329 340 LINE",
"349 340 LINE"
);
},
{
closed = 1;
nodes = (
"264 337 LINE",
"254 346 LINE",
"256 346 LINE",
"246 337 LINE",
"245 340 LINE",
"265 340 LINE"
);
},
{
closed = 1;
nodes = (
"237 308 LINE",
"217 308 LINE",
"218 311 LINE",
"228 302 LINE",
"226 302 LINE",
"236 311 LINE"
);
},
{
closed = 1;
nodes = (
"264 231 LINE",
"254 240 LINE",
"256 240 LINE",
"246 231 LINE",
"245 234 LINE",
"265 234 LINE"
);
},
{
closed = 1;
nodes = (
"237 202 LINE",
"217 202 LINE",
"218 205 LINE",
"228 196 LINE",
"226 196 LINE",
"236 205 LINE"
);
},
{
closed = 1;
nodes = (
"376 202 LINE",
"356 202 LINE",
"357 205 LINE",
"367 196 LINE",
"365 196 LINE",
"375 205 LINE"
);
},
{
closed = 1;
nodes = (
"347 231 LINE",
"337 240 LINE",
"339 240 LINE",
"329 231 LINE",
"328 234 LINE",
"348 234 LINE"
);
},
{
closed = 1;
nodes = (
"386 301 LINE",
"386 241 LINE",
"385 240 LINE",
"211 240 LINE",
"210 241 LINE",
"210 301 LINE",
"211 302 LINE",
"385 302 LINE"
);
},
{
closed = 1;
nodes = (
"213 241 LINE",
"211 243 LINE",
"385 243 LINE",
"383 241 LINE",
"383 301 LINE",
"385 299 LINE",
"211 299 LINE",
"213 301 LINE"
);
},
{
closed = 1;
nodes = (
"337 299 LINE",
"337 345 LINE",
"341 345 LINE",
"341 299 LINE"
);
},
{
closed = 1;
nodes = (
"365 303 LINE",
"365 349 LINE",
"369 349 LINE",
"369 303 LINE"
);
},
{
closed = 1;
nodes = (
"366 299 LINE",
"355 309 LINE",
"356 312 LINE",
"378 312 LINE",
"379 309 LINE",
"368 299 LINE"
);
},
{
closed = 1;
nodes = (
"327 339 LINE",
"338 349 LINE",
"340 349 LINE",
"351 339 LINE",
"350 336 LINE",
"328 336 LINE"
);
},
{
closed = 1;
nodes = (
"225 303 LINE",
"225 349 LINE",
"229 349 LINE",
"229 303 LINE"
);
},
{
closed = 1;
nodes = (
"253 299 LINE",
"253 345 LINE",
"257 345 LINE",
"257 299 LINE"
);
},
{
closed = 1;
nodes = (
"243 339 LINE",
"254 349 LINE",
"256 349 LINE",
"267 339 LINE",
"266 336 LINE",
"244 336 LINE"
);
},
{
closed = 1;
nodes = (
"226 299 LINE",
"215 309 LINE",
"216 312 LINE",
"238 312 LINE",
"239 309 LINE",
"228 299 LINE"
);
},
{
closed = 1;
nodes = (
"225 197 LINE",
"225 243 LINE",
"229 243 LINE",
"229 197 LINE"
);
},
{
closed = 1;
nodes = (
"253 193 LINE",
"253 239 LINE",
"257 239 LINE",
"257 193 LINE"
);
},
{
closed = 1;
nodes = (
"243 233 LINE",
"254 243 LINE",
"256 243 LINE",
"267 233 LINE",
"266 230 LINE",
"244 230 LINE"
);
},
{
closed = 1;
nodes = (
"226 193 LINE",
"215 203 LINE",
"216 206 LINE",
"238 206 LINE",
"239 203 LINE",
"228 193 LINE"
);
},
{
closed = 1;
nodes = (
"336 193 LINE",
"336 239 LINE",
"340 239 LINE",
"340 193 LINE"
);
},
{
closed = 1;
nodes = (
"364 197 LINE",
"364 243 LINE",
"368 243 LINE",
"368 197 LINE"
);
},
{
closed = 1;
nodes = (
"365 193 LINE",
"354 203 LINE",
"355 206 LINE",
"377 206 LINE",
"378 203 LINE",
"367 193 LINE"
);
},
{
closed = 1;
nodes = (
"326 233 LINE",
"337 243 LINE",
"339 243 LINE",
"350 233 LINE",
"349 230 LINE",
"327 230 LINE"
);
}
);
width = 600;
}
);
unicode = 006C;
},
{
glyphname = m;
lastChange = "2017-11-27 16:45:59 +0000";
layers = (
{
layerId = "E9291901-8CC5-48BD-9A84-10F491B4D832";
paths = (
{
closed = 0;
nodes = (
"733 -38 LINE",
"734 -63 OFFCURVE",
"737 -89 OFFCURVE",
"728 -114 CURVE",
"722 -135 OFFCURVE",
"705 -150 OFFCURVE",
"695 -169 CURVE",
"686 -185 OFFCURVE",
"673 -198 OFFCURVE",
"663 -214 CURVE",
"647 -238 OFFCURVE",
"627 -248 OFFCURVE",
"597 -242 CURVE",
"574 -237 OFFCURVE",
"549 -240 OFFCURVE",
"525 -243 CURVE",
"493 -248 OFFCURVE",
"460 -248 OFFCURVE",
"430 -237 CURVE",
"407 -228 OFFCURVE",
"386 -228 OFFCURVE",
"364 -235 CURVE",
"340 -243 OFFCURVE",
"315 -248 OFFCURVE",
"291 -249 CURVE",
"266 -250 OFFCURVE",
"241 -243 OFFCURVE",
"219 -230 CURVE",
"200 -218 OFFCURVE",
"183 -219 OFFCURVE",
"162 -228 CURVE",
"107 -253 OFFCURVE",
"51 -255 OFFCURVE",
"-2 -220 CURVE",
"-10 -215 OFFCURVE",
"-18 -210 OFFCURVE",
"-24 -203 CURVE",
"-35 -192 OFFCURVE",
"-46 -190 OFFCURVE",
"-60 -196 CURVE",
"-78 -203 OFFCURVE",
"-96 -210 OFFCURVE",
"-114 -218 CURVE",
"-140 -231 OFFCURVE",
"-169 -235 OFFCURVE",
"-197 -236 CURVE",
"-209 -236 OFFCURVE",
"-219 -241 OFFCURVE",
"-230 -239 CURVE"
);
},
{
closed = 0;
nodes = (
"657 -163 LINE",
"652 -169 OFFCURVE",
"648 -174 OFFCURVE",
"643 -180 CURVE",
"637 -179 OFFCURVE",
"630 -178 OFFCURVE",
"624 -179 CURVE",
"602 -183 OFFCURVE",
"580 -179 OFFCURVE",
"558 -178 CURVE",
"536 -176 OFFCURVE",
"514 -183 OFFCURVE",
"492 -184 CURVE",
"475 -185 OFFCURVE",
"459 -180 OFFCURVE",
"443 -175 CURVE",
"412 -163 OFFCURVE",
"382 -164 OFFCURVE",
"352 -175 CURVE",
"313 -190 OFFCURVE",
"277 -183 OFFCURVE",
"241 -166 CURVE",
"224 -158 OFFCURVE",
"205 -152 OFFCURVE",
"185 -154 CURVE"
);
},
{
closed = 0;
nodes = (
"576 -351 LINE",
"534 -351 OFFCURVE",
"492 -351 OFFCURVE",
"450 -351 CURVE",
"443 -351 OFFCURVE",
"435 -352 OFFCURVE",
"430 -348 CURVE",
"411 -334 OFFCURVE",
"391 -337 OFFCURVE",
"372 -346 CURVE",
"362 -350 OFFCURVE",
"353 -351 OFFCURVE",
"343 -351 CURVE",
"314 -351 OFFCURVE",
"285 -350 OFFCURVE",
"256 -351 CURVE",
"236 -352 OFFCURVE",
"217 -349 OFFCURVE",
"200 -338 CURVE",
"193 -334 OFFCURVE",
"187 -329 OFFCURVE",
"179 -330 CURVE"
);
},
{
closed = 0;
nodes = (
"671 -109 LINE",
"669 -112 OFFCURVE",
"666 -115 OFFCURVE",
"664 -118 CURVE",
"652 -144 OFFCURVE",
"631 -141 OFFCURVE",
"609 -138 CURVE",
"595 -136 OFFCURVE",
"581 -134 OFFCURVE",
"567 -133 CURVE",
"553 -132 OFFCURVE",
"539 -134 OFFCURVE",
"525 -138 CURVE",
"501 -144 OFFCURVE",
"477 -142 OFFCURVE",
"454 -134 CURVE",
"424 -124 OFFCURVE",
"393 -121 OFFCURVE",
"362 -127 CURVE",
"348 -130 OFFCURVE",
"333 -134 OFFCURVE",
"319 -139 CURVE",
"301 -145 OFFCURVE",
"285 -141 OFFCURVE",
"268 -134 CURVE",
"266 -134 OFFCURVE",
"264 -133 OFFCURVE",
"262 -133 CURVE"
);
},
{
closed = 0;
nodes = (
"646 -344 LINE",
"639 -333 OFFCURVE",
"650 -320 OFFCURVE",
"640 -309 CURVE",
"634 -308 OFFCURVE",
"626 -306 OFFCURVE",
"618 -306 CURVE",
"586 -307 OFFCURVE",
"554 -301 OFFCURVE",
"522 -308 CURVE",
"501 -313 OFFCURVE",
"478 -314 OFFCURVE",
"456 -309 CURVE"
);
},
{
closed = 0;
nodes = (
"-6 -139 LINE",
"-29 -123 OFFCURVE",
"-54 -124 OFFCURVE",
"-78 -135 CURVE",
"-97 -143 OFFCURVE",
"-116 -153 OFFCURVE",
"-136 -161 CURVE",
"-158 -169 OFFCURVE",
"-179 -173 OFFCURVE",
"-202 -172 CURVE",
"-209 -172 OFFCURVE",
"-217 -170 OFFCURVE",
"-224 -173 CURVE"
);
},
{
closed = 0;
nodes = (
"15 -103 LINE",
"-15 -81 OFFCURVE",
"-48 -81 OFFCURVE",
"-81 -93 CURVE",
"-103 -101 OFFCURVE",
"-125 -111 OFFCURVE",
"-147 -119 CURVE",
"-167 -128 OFFCURVE",
"-189 -129 OFFCURVE",
"-211 -129 CURVE",
"-225 -128 OFFCURVE",
"-228 -129 OFFCURVE",
"-227 -142 CURVE",
"-226 -166 OFFCURVE",
"-229 -190 OFFCURVE",
"-226 -214 CURVE"
);
},
{
closed = 0;
nodes = (
"-226 -256 LINE",
"-230 -276 OFFCURVE",
"-227 -296 OFFCURVE",
"-227 -317 CURVE",
"-228 -348 OFFCURVE",
"-227 -348 OFFCURVE",
"-196 -348 CURVE",
"-180 -348 OFFCURVE",
"-164 -347 OFFCURVE",
"-148 -347 CURVE",
"-137 -346 OFFCURVE",
"-128 -336 OFFCURVE",
"-117 -336 CURVE"
);
},
{
closed = 0;
nodes = (
"65 -348 LINE",
"3 -348 OFFCURVE",
"-60 -348 OFFCURVE",
"-123 -348 CURVE",
"-128 -348 OFFCURVE",
"-133 -350 OFFCURVE",
"-138 -347 CURVE"
);
},
{
closed = 0;
nodes = (
"728 -36 LINE",
"701 -35 OFFCURVE",
"673 -31 OFFCURVE",
"646 -28 CURVE",
"638 -27 OFFCURVE",
"630 -31 OFFCURVE",
"622 -31 CURVE",
"604 -33 OFFCURVE",
"586 -31 OFFCURVE",
"568 -23 CURVE",
"545 -12 OFFCURVE",
"521 -17 OFFCURVE",
"498 -26 CURVE",
"476 -36 OFFCURVE",
"453 -36 OFFCURVE",
"433 -26 CURVE",
"397 -8 OFFCURVE",
"361 -9 OFFCURVE",
"325 -23 CURVE",
"296 -34 OFFCURVE",
"269 -28 OFFCURVE",
"241 -15 CURVE",
"216 -4 OFFCURVE",
"189 6 OFFCURVE",
"159 1 CURVE",
"137 -2 OFFCURVE",
"116 -11 OFFCURVE",
"95 -20 CURVE",
"84 -25 OFFCURVE",
"72 -28 OFFCURVE",
"61 -25 CURVE",
"44 -21 OFFCURVE",
"31 -29 OFFCURVE",
"16 -34 CURVE",
"-8 -44 OFFCURVE",
"-33 -53 OFFCURVE",
"-57 -61 CURVE"
);
},
{
closed = 0;
nodes = (
"236 -118 LINE",
"224 -115 OFFCURVE",
"212 -110 OFFCURVE",
"200 -109 CURVE",
"177 -107 OFFCURVE",
"158 -118 OFFCURVE",
"138 -127 CURVE",
"104 -142 OFFCURVE",
"70 -145 OFFCURVE",
"38 -121 CURVE"
);
},
{
closed = 0;
nodes = (
"119 -309 LINE",
"109 -309 OFFCURVE",
"99 -309 OFFCURVE",
"89 -309 CURVE",
"61 -311 OFFCURVE",
"35 -306 OFFCURVE",
"9 -297 CURVE"
);
},
{
closed = 0;
nodes = (
"-84 -73 LINE",
"-114 -84 OFFCURVE",
"-144 -95 OFFCURVE",
"-174 -106 CURVE"
);
},
{
closed = 0;
nodes = (
"-144 -294 LINE",
"-162 -297 OFFCURVE",
"-179 -298 OFFCURVE",
"-197 -297 CURVE",
"-206 -297 OFFCURVE",
"-215 -296 OFFCURVE",
"-224 -296 CURVE"
);
},
{
closed = 0;
nodes = (
"307 -312 LINE",
"281 -314 OFFCURVE",
"255 -311 OFFCURVE",
"230 -303 CURVE"
);
},
{
closed = 0;
nodes = (
"218 -350 LINE",
"194 -352 OFFCURVE",
"170 -352 OFFCURVE",
"146 -350 CURVE"
);
},
{
closed = 0;
nodes = (
"412 -294 LINE",
"389 -292 OFFCURVE",
"368 -299 OFFCURVE",
"346 -303 CURVE"
);
},
{
closed = 0;
nodes = (
"427 -350 LINE",
"408 -352 OFFCURVE",
"389 -352 OFFCURVE",
"370 -350 CURVE"
);
},
{
closed = 0;
nodes = (
"128 -178 LINE",
"111 -185 OFFCURVE",
"92 -184 OFFCURVE",
"74 -184 CURVE"
);
},
{
closed = 0;
nodes = (
"143 -348 LINE",
"128 -352 OFFCURVE",
"113 -351 OFFCURVE",
"98 -351 CURVE"
);
},
{
closed = 0;
nodes = (
"-66 -312 LINE",
"-80 -318 OFFCURVE",
"-94 -324 OFFCURVE",
"-108 -330 CURVE"
);
},
{
closed = 0;
nodes = (
"733 -32 LINE",
"721 -47 OFFCURVE",
"710 -61 OFFCURVE",
"698 -76 CURVE"
);
},
{
closed = 0;
nodes = (
"730 -133 LINE",
"731 -136 OFFCURVE",
"734 -139 OFFCURVE",
"734 -142 CURVE",
"731 -159 OFFCURVE",
"733 -176 OFFCURVE",
"733 -193 CURVE",
"733 -199 OFFCURVE",
"730 -203 OFFCURVE",
"728 -208 CURVE"
);
},
{
closed = 0;
nodes = (
"643 -265 LINE",
"647 -276 OFFCURVE",
"642 -288 OFFCURVE",
"646 -299 CURVE"
);
},
{
closed = 0;
nodes = (
"643 -181 LINE",
"647 -192 OFFCURVE",
"642 -203 OFFCURVE",
"646 -214 CURVE"
);
},
{
closed = 0;
nodes = (
"645 -142 LINE",
"645 -153 OFFCURVE",
"643 -163 OFFCURVE",
"646 -173 CURVE"
);
},
{
closed = 0;
nodes = (
"-21 -330 LINE",
"-12 -335 OFFCURVE",
"-2 -340 OFFCURVE",
"7 -345 CURVE"
);
},
{
closed = 0;
nodes = (
"701 -321 LINE",
"693 -327 OFFCURVE",
"697 -333 OFFCURVE",
"700 -339 CURVE"
);
},
{
closed = 0;
nodes = (
"707 -321 LINE",
"722 -325 OFFCURVE",
"710 -332 OFFCURVE",
"709 -338 CURVE"
);
},
{
closed = 0;
nodes = (
"651 -339 LINE",
"646 -347 OFFCURVE",
"641 -356 OFFCURVE",
"630 -354 CURVE"
);
},
{
closed = 0;
nodes = (
"731 -69 LINE",
"728 -72 OFFCURVE",
"725 -76 OFFCURVE",
"722 -79 CURVE"
);
},
{
closed = 0;
nodes = (
"651 -294 LINE",
"648 -298 OFFCURVE",
"646 -302 OFFCURVE",
"643 -306 CURVE"
);
},
{
closed = 1;
nodes = (
"736 -63 OFFCURVE",
"739 -89 OFFCURVE",
"730 -115 CURVE",
"724 -136 OFFCURVE",
"707 -151 OFFCURVE",
"697 -170 CURVE",
"688 -186 OFFCURVE",
"675 -199 OFFCURVE",
"665 -215 CURVE",
"648 -240 OFFCURVE",
"628 -250 OFFCURVE",
"597 -244 CURVE",
"574 -239 OFFCURVE",
"549 -242 OFFCURVE",
"525 -245 CURVE",
"493 -250 OFFCURVE",
"460 -250 OFFCURVE",
"429 -239 CURVE",
"407 -230 OFFCURVE",
"386 -230 OFFCURVE",
"365 -237 CURVE",
"340 -245 OFFCURVE",
"315 -250 OFFCURVE",
"291 -251 CURVE",
"266 -252 OFFCURVE",
"240 -245 OFFCURVE",
"218 -232 CURVE",
"200 -220 OFFCURVE",
"183 -221 OFFCURVE",
"163 -230 CURVE",
"107 -255 OFFCURVE",
"51 -257 OFFCURVE",
"-3 -222 CURVE",
"-11 -217 OFFCURVE",
"-19 -211 OFFCURVE",
"-26 -204 CURVE",
"-25 -204 LINE",
"-36 -194 OFFCURVE",
"-46 -192 OFFCURVE",
"-59 -198 CURVE",
"-77 -205 OFFCURVE",
"-95 -212 OFFCURVE",
"-113 -220 CURVE",
"-139 -233 OFFCURVE",
"-169 -237 OFFCURVE",
"-197 -238 CURVE",
"-209 -238 OFFCURVE",
"-219 -243 OFFCURVE",
"-230 -241 CURVE",
"-232 -241 LINE",
"-232 -237 LINE",
"-230 -237 LINE",
"-219 -239 OFFCURVE",
"-209 -234 OFFCURVE",
"-197 -234 CURVE",
"-169 -233 OFFCURVE",
"-141 -229 OFFCURVE",
"-115 -216 CURVE",
"-97 -208 OFFCURVE",
"-79 -201 OFFCURVE",
"-61 -194 CURVE",
"-46 -188 OFFCURVE",
"-34 -190 OFFCURVE",
"-23 -202 CURVE",
"-23 -202 LINE",
"-22 -202 LINE",
"-17 -209 OFFCURVE",
"-9 -213 OFFCURVE",
"-1 -218 CURVE",
"51 -253 OFFCURVE",
"107 -251 OFFCURVE",
"161 -226 CURVE",
"183 -217 OFFCURVE",
"200 -216 OFFCURVE",
"220 -228 CURVE",
"242 -241 OFFCURVE",
"266 -248 OFFCURVE",
"291 -247 CURVE",
"315 -246 OFFCURVE",
"340 -241 OFFCURVE",
"363 -233 CURVE",
"386 -226 OFFCURVE",
"407 -226 OFFCURVE",
"431 -235 CURVE",
"460 -246 OFFCURVE",
"493 -246 OFFCURVE",
"525 -241 CURVE",
"549 -238 OFFCURVE",
"574 -235 OFFCURVE",
"597 -240 CURVE",
"626 -246 OFFCURVE",
"646 -236 OFFCURVE",
"661 -213 CURVE",
"671 -197 OFFCURVE",
"684 -184 OFFCURVE",
"693 -168 CURVE",
"703 -149 OFFCURVE",
"720 -134 OFFCURVE",
"726 -113 CURVE",
"735 -89 OFFCURVE",
"732 -63 OFFCURVE",
"731 -38 CURVE",
"731 -36 LINE",
"735 -36 LINE",
"735 -38 LINE"
);
},
{
closed = 1;
nodes = (
"654 -170 OFFCURVE",
"650 -175 OFFCURVE",
"645 -181 CURVE",
"644 -182 LINE",
"644 -182 LINE",
"643 -182 LINE",
"637 -181 OFFCURVE",
"630 -180 OFFCURVE",
"624 -181 CURVE",
"602 -185 OFFCURVE",
"580 -181 OFFCURVE",
"558 -180 CURVE",
"536 -178 OFFCURVE",
"514 -185 OFFCURVE",
"492 -186 CURVE",
"475 -187 OFFCURVE",
"459 -182 OFFCURVE",
"442 -177 CURVE",
"412 -165 OFFCURVE",
"382 -166 OFFCURVE",
"353 -177 CURVE",
"313 -192 OFFCURVE",
"277 -185 OFFCURVE",
"240 -168 CURVE",
"223 -160 OFFCURVE",
"205 -154 OFFCURVE",
"185 -156 CURVE",
"183 -156 LINE",
"183 -152 LINE",
"185 -152 LINE",
"205 -150 OFFCURVE",
"225 -156 OFFCURVE",
"242 -164 CURVE",
"277 -181 OFFCURVE",
"313 -188 OFFCURVE",
"351 -173 CURVE",
"382 -162 OFFCURVE",
"412 -161 OFFCURVE",
"444 -173 CURVE",
"459 -178 OFFCURVE",
"475 -183 OFFCURVE",
"492 -182 CURVE",
"514 -181 OFFCURVE",
"536 -174 OFFCURVE",
"558 -176 CURVE",
"580 -177 OFFCURVE",
"602 -181 OFFCURVE",
"624 -177 CURVE",
"630 -176 OFFCURVE",
"637 -177 OFFCURVE",
"643 -178 CURVE",
"641 -179 LINE",
"646 -173 OFFCURVE",
"650 -168 OFFCURVE",
"655 -162 CURVE",
"657 -160 LINE",
"660 -163 LINE",
"659 -164 LINE"
);
},
{
closed = 1;
nodes = (
"534 -353 OFFCURVE",
"492 -353 OFFCURVE",
"450 -353 CURVE",
"443 -353 OFFCURVE",
"434 -354 OFFCURVE",
"429 -350 CURVE",
"410 -336 OFFCURVE",
"391 -339 OFFCURVE",
"373 -348 CURVE",
"362 -352 OFFCURVE",
"353 -353 OFFCURVE",
"343 -353 CURVE",
"314 -353 OFFCURVE",
"285 -352 OFFCURVE",
"256 -353 CURVE",
"236 -354 OFFCURVE",
"216 -351 OFFCURVE",
"199 -340 CURVE",
"192 -336 OFFCURVE",
"187 -331 OFFCURVE",
"179 -332 CURVE",
"177 -332 LINE",
"177 -328 LINE",
"179 -328 LINE",
"187 -327 OFFCURVE",
"194 -332 OFFCURVE",
"201 -336 CURVE",
"218 -347 OFFCURVE",
"236 -350 OFFCURVE",
"256 -349 CURVE",
"285 -348 OFFCURVE",
"314 -349 OFFCURVE",
"343 -349 CURVE",
"353 -349 OFFCURVE",
"362 -348 OFFCURVE",
"371 -344 CURVE",
"391 -335 OFFCURVE",
"412 -332 OFFCURVE",
"431 -346 CURVE",
"436 -350 OFFCURVE",
"444 -349 OFFCURVE",
"450 -349 CURVE",
"492 -349 OFFCURVE",
"534 -349 OFFCURVE",
"576 -349 CURVE",
"578 -349 LINE",
"578 -353 LINE",
"576 -353 LINE"
);
},
{
closed = 1;
nodes = (
"671 -113 OFFCURVE",
"668 -116 OFFCURVE",
"666 -119 CURVE",
"666 -119 LINE",
"653 -146 OFFCURVE",
"632 -143 OFFCURVE",
"609 -140 CURVE",
"595 -138 OFFCURVE",
"581 -136 OFFCURVE",
"567 -135 CURVE",
"553 -134 OFFCURVE",
"539 -136 OFFCURVE",
"526 -140 CURVE",
"501 -146 OFFCURVE",
"477 -144 OFFCURVE",
"453 -136 CURVE",
"424 -126 OFFCURVE",
"393 -123 OFFCURVE",
"362 -129 CURVE",
"349 -132 OFFCURVE",
"334 -136 OFFCURVE",
"320 -141 CURVE",
"301 -147 OFFCURVE",
"285 -143 OFFCURVE",
"267 -136 CURVE",
"268 -136 LINE",
"266 -136 OFFCURVE",
"264 -135 OFFCURVE",
"262 -135 CURVE",
"260 -135 LINE",
"260 -131 LINE",
"262 -131 LINE",
"264 -131 OFFCURVE",
"266 -132 OFFCURVE",
"268 -132 CURVE",
"268 -132 LINE",
"269 -132 LINE",
"285 -139 OFFCURVE",
"301 -143 OFFCURVE",
"318 -137 CURVE",
"332 -132 OFFCURVE",
"347 -128 OFFCURVE",
"362 -125 CURVE",
"393 -119 OFFCURVE",
"424 -122 OFFCURVE",
"455 -132 CURVE",
"477 -140 OFFCURVE",
"501 -142 OFFCURVE",
"524 -136 CURVE",
"539 -132 OFFCURVE",
"553 -130 OFFCURVE",
"567 -131 CURVE",
"581 -132 OFFCURVE",
"595 -134 OFFCURVE",
"609 -136 CURVE",
"630 -139 OFFCURVE",
"651 -142 OFFCURVE",
"662 -117 CURVE",
"662 -117 LINE",
"662 -117 LINE",
"664 -114 OFFCURVE",
"667 -111 OFFCURVE",
"669 -108 CURVE",
"670 -106 LINE",
"674 -108 LINE",
"673 -110 LINE"
);
},
{
closed = 1;
nodes = (
"637 -334 OFFCURVE",
"648 -321 OFFCURVE",
"639 -310 CURVE",
"640 -311 LINE",
"634 -310 OFFCURVE",
"626 -308 OFFCURVE",
"618 -308 CURVE",
"586 -309 OFFCURVE",
"554 -303 OFFCURVE",
"522 -310 CURVE",
"501 -315 OFFCURVE",
"478 -316 OFFCURVE",
"456 -311 CURVE",
"454 -311 LINE",
"454 -307 LINE",
"456 -307 LINE",
"478 -312 OFFCURVE",
"501 -311 OFFCURVE",
"522 -306 CURVE",
"554 -299 OFFCURVE",
"586 -305 OFFCURVE",
"618 -304 CURVE",
"626 -304 OFFCURVE",
"634 -306 OFFCURVE",
"640 -307 CURVE",
"641 -307 LINE",
"641 -308 LINE",
"652 -319 OFFCURVE",
"641 -332 OFFCURVE",
"648 -343 CURVE",
"649 -345 LINE",
"645 -347 LINE",
"644 -345 LINE"
);
},
{
closed = 1;
nodes = (
"-30 -125 OFFCURVE",
"-54 -126 OFFCURVE",
"-77 -137 CURVE",
"-96 -145 OFFCURVE",
"-115 -155 OFFCURVE",
"-135 -163 CURVE",
"-158 -171 OFFCURVE",
"-179 -175 OFFCURVE",
"-202 -174 CURVE",
"-209 -174 OFFCURVE",
"-216 -172 OFFCURVE",
"-223 -175 CURVE",
"-225 -176 LINE",
"-227 -172 LINE",
"-225 -171 LINE",
"-218 -168 OFFCURVE",
"-209 -170 OFFCURVE",
"-202 -170 CURVE",
"-179 -171 OFFCURVE",
"-158 -167 OFFCURVE",
"-137 -159 CURVE",
"-117 -151 OFFCURVE",
"-98 -141 OFFCURVE",
"-79 -133 CURVE",
"-54 -122 OFFCURVE",
"-28 -121 OFFCURVE",
"-5 -137 CURVE",
"-3 -139 LINE",
"-6 -142 LINE",
"-7 -141 LINE"
);
},
{
closed = 1;
nodes = (
"-16 -83 OFFCURVE",
"-48 -83 OFFCURVE",
"-80 -95 CURVE",
"-102 -103 OFFCURVE",
"-124 -113 OFFCURVE",
"-146 -121 CURVE",
"-146 -121 LINE",
"-166 -130 OFFCURVE",
"-189 -131 OFFCURVE",
"-211 -131 CURVE",
"-211 -131 LINE",
"-211 -131 LINE",
"-223 -130 OFFCURVE",
"-226 -131 OFFCURVE",
"-225 -142 CURVE",
"-224 -166 OFFCURVE",
"-227 -190 OFFCURVE",
"-224 -214 CURVE",
"-224 -216 LINE",
"-228 -216 LINE",
"-228 -214 LINE",
"-231 -190 OFFCURVE",
"-228 -166 OFFCURVE",
"-229 -142 CURVE",
"-230 -127 OFFCURVE",
"-227 -126 OFFCURVE",
"-211 -127 CURVE",
"-211 -127 LINE",
"-189 -127 OFFCURVE",
"-168 -126 OFFCURVE",
"-148 -117 CURVE",
"-148 -117 LINE",
"-148 -117 LINE",
"-126 -109 OFFCURVE",
"-104 -99 OFFCURVE",
"-82 -91 CURVE",
"-48 -79 OFFCURVE",
"-14 -79 OFFCURVE",
"16 -101 CURVE",
"18 -103 LINE",
"15 -106 LINE",
"14 -105 LINE"
);
},
{
closed = 1;
nodes = (
"-228 -276 OFFCURVE",
"-225 -296 OFFCURVE",
"-225 -317 CURVE",
"-226 -346 OFFCURVE",
"-225 -346 OFFCURVE",
"-196 -346 CURVE",
"-180 -346 OFFCURVE",
"-164 -345 OFFCURVE",
"-148 -345 CURVE",
"-148 -345 LINE",
"-137 -344 OFFCURVE",
"-128 -334 OFFCURVE",
"-117 -334 CURVE",
"-115 -334 LINE",
"-115 -338 LINE",
"-117 -338 LINE",
"-128 -338 OFFCURVE",
"-137 -348 OFFCURVE",
"-148 -349 CURVE",
"-148 -349 LINE",
"-148 -349 LINE",
"-164 -349 OFFCURVE",
"-180 -350 OFFCURVE",
"-196 -350 CURVE",
"-229 -350 OFFCURVE",
"-230 -350 OFFCURVE",
"-229 -317 CURVE",
"-229 -296 OFFCURVE",
"-232 -276 OFFCURVE",
"-228 -256 CURVE",
"-228 -254 LINE",
"-224 -254 LINE",
"-224 -256 LINE"
);
},
{
closed = 1;
nodes = (
"3 -350 OFFCURVE",
"-60 -350 OFFCURVE",
"-123 -350 CURVE",
"-128 -350 OFFCURVE",
"-134 -352 OFFCURVE",
"-139 -349 CURVE",
"-141 -348 LINE",
"-139 -344 LINE",
"-137 -345 LINE",
"-132 -348 OFFCURVE",
"-128 -346 OFFCURVE",
"-123 -346 CURVE",
"-60 -346 OFFCURVE",
"3 -346 OFFCURVE",
"65 -346 CURVE",
"67 -346 LINE",
"67 -350 LINE",
"65 -350 LINE"
);
},
{
closed = 1;
nodes = (
"701 -37 OFFCURVE",
"673 -33 OFFCURVE",
"646 -30 CURVE",
"638 -29 OFFCURVE",
"630 -33 OFFCURVE",
"622 -33 CURVE",
"622 -33 LINE",
"604 -35 OFFCURVE",
"586 -33 OFFCURVE",
"567 -25 CURVE",
"545 -14 OFFCURVE",
"521 -19 OFFCURVE",
"499 -28 CURVE",
"476 -38 OFFCURVE",
"453 -38 OFFCURVE",
"432 -28 CURVE",
"397 -10 OFFCURVE",
"361 -11 OFFCURVE",
"326 -25 CURVE",
"296 -36 OFFCURVE",
"269 -30 OFFCURVE",
"240 -17 CURVE",
"216 -6 OFFCURVE",
"189 4 OFFCURVE",
"159 -1 CURVE",
"137 -4 OFFCURVE",
"117 -13 OFFCURVE",
"96 -22 CURVE",
"84 -27 OFFCURVE",
"72 -30 OFFCURVE",
"60 -27 CURVE",
"44 -23 OFFCURVE",
"31 -31 OFFCURVE",
"17 -36 CURVE",
"-7 -46 OFFCURVE",
"-32 -55 OFFCURVE",
"-56 -63 CURVE",
"-58 -64 LINE",
"-60 -60 LINE",
"-58 -59 LINE",
"-34 -51 OFFCURVE",
"-9 -42 OFFCURVE",
"15 -32 CURVE",
"31 -27 OFFCURVE",
"44 -19 OFFCURVE",
"62 -23 CURVE",
"72 -26 OFFCURVE",
"84 -23 OFFCURVE",
"94 -18 CURVE",
"115 -9 OFFCURVE",
"137 0 OFFCURVE",
"159 3 CURVE",
"189 8 OFFCURVE",
"216 -2 OFFCURVE",
"242 -13 CURVE",
"269 -26 OFFCURVE",
"296 -32 OFFCURVE",
"324 -21 CURVE",
"361 -7 OFFCURVE",
"397 -6 OFFCURVE",
"434 -24 CURVE",
"453 -34 OFFCURVE",
"476 -34 OFFCURVE",
"497 -24 CURVE",
"521 -15 OFFCURVE",
"545 -10 OFFCURVE",
"569 -21 CURVE",
"586 -29 OFFCURVE",
"604 -31 OFFCURVE",
"622 -29 CURVE",
"622 -29 LINE",
"622 -29 LINE",
"630 -29 OFFCURVE",
"638 -25 OFFCURVE",
"646 -26 CURVE",
"673 -29 OFFCURVE",
"701 -33 OFFCURVE",
"728 -34 CURVE",
"730 -34 LINE",
"730 -38 LINE",
"728 -38 LINE"
);
},
{
closed = 1;
nodes = (
"224 -117 OFFCURVE",
"212 -112 OFFCURVE",
"200 -111 CURVE",
"177 -109 OFFCURVE",
"158 -120 OFFCURVE",
"139 -129 CURVE",
"104 -144 OFFCURVE",
"69 -147 OFFCURVE",
"37 -123 CURVE",
"35 -121 LINE",
"38 -118 LINE",
"39 -119 LINE",
"71 -143 OFFCURVE",
"104 -140 OFFCURVE",
"137 -125 CURVE",
"158 -116 OFFCURVE",
"177 -105 OFFCURVE",
"200 -107 CURVE",
"212 -108 OFFCURVE",
"224 -113 OFFCURVE",
"236 -116 CURVE",
"238 -117 LINE",
"237 -120 LINE",
"236 -120 LINE"
);
},
{
closed = 1;
nodes = (
"109 -311 OFFCURVE",
"99 -311 OFFCURVE",
"89 -311 CURVE",
"61 -313 OFFCURVE",
"35 -308 OFFCURVE",
"8 -299 CURVE",
"6 -298 LINE",
"8 -294 LINE",
"10 -295 LINE",
"35 -304 OFFCURVE",
"61 -309 OFFCURVE",
"89 -307 CURVE",
"99 -307 OFFCURVE",
"109 -307 OFFCURVE",
"119 -307 CURVE",
"121 -307 LINE",
"121 -311 LINE",
"119 -311 LINE"
);
},
{
closed = 1;
nodes = (
"-113 -86 OFFCURVE",
"-143 -97 OFFCURVE",
"-173 -108 CURVE",
"-175 -109 LINE",
"-177 -105 LINE",
"-175 -104 LINE",
"-145 -93 OFFCURVE",
"-115 -82 OFFCURVE",
"-85 -71 CURVE",
"-83 -70 LINE",
"-81 -74 LINE",
"-83 -75 LINE"
);
},
{
closed = 1;
nodes = (
"-162 -299 OFFCURVE",
"-179 -300 OFFCURVE",
"-197 -299 CURVE",
"-206 -299 OFFCURVE",
"-215 -298 OFFCURVE",
"-224 -298 CURVE",
"-226 -298 LINE",
"-226 -294 LINE",
"-224 -294 LINE",
"-215 -294 OFFCURVE",
"-206 -295 OFFCURVE",
"-197 -295 CURVE",
"-179 -296 OFFCURVE",
"-162 -295 OFFCURVE",
"-144 -292 CURVE",
"-142 -292 LINE",
"-142 -296 LINE",
"-144 -296 LINE"
);
},
{
closed = 1;
nodes = (
"281 -316 OFFCURVE",
"255 -313 OFFCURVE",
"229 -305 CURVE",
"227 -304 LINE",
"229 -300 LINE",
"231 -301 LINE",
"255 -309 OFFCURVE",
"281 -312 OFFCURVE",
"307 -310 CURVE",
"309 -310 LINE",
"309 -314 LINE",
"307 -314 LINE"
);
},
{
closed = 1;
nodes = (
"194 -354 OFFCURVE",
"170 -354 OFFCURVE",
"146 -352 CURVE",
"144 -352 LINE",
"144 -348 LINE",
"146 -348 LINE",
"170 -350 OFFCURVE",
"194 -350 OFFCURVE",
"218 -348 CURVE",
"220 -348 LINE",
"220 -352 LINE",
"218 -352 LINE"
);
},
{
closed = 1;
nodes = (
"389 -294 OFFCURVE",
"368 -301 OFFCURVE",
"346 -305 CURVE",
"344 -305 LINE",
"344 -301 LINE",
"346 -301 LINE",
"368 -297 OFFCURVE",
"389 -290 OFFCURVE",
"412 -292 CURVE",
"414 -292 LINE",
"414 -296 LINE",
"412 -296 LINE"
);
},
{
closed = 1;
nodes = (
"408 -354 OFFCURVE",
"389 -354 OFFCURVE",
"370 -352 CURVE",
"368 -352 LINE",
"368 -348 LINE",
"370 -348 LINE",
"389 -350 OFFCURVE",
"408 -350 OFFCURVE",
"427 -348 CURVE",
"429 -348 LINE",
"429 -352 LINE",
"427 -352 LINE"
);
},
{
closed = 1;
nodes = (
"112 -187 OFFCURVE",
"92 -186 OFFCURVE",
"74 -186 CURVE",
"72 -186 LINE",
"72 -182 LINE",
"74 -182 LINE",
"92 -182 OFFCURVE",
"110 -183 OFFCURVE",
"127 -176 CURVE",
"129 -175 LINE",
"131 -179 LINE",
"129 -180 LINE"
);
},
{
closed = 1;
nodes = (
"128 -354 OFFCURVE",
"113 -353 OFFCURVE",
"98 -353 CURVE",
"96 -353 LINE",
"96 -349 LINE",
"98 -349 LINE",
"113 -349 OFFCURVE",
"128 -350 OFFCURVE",
"142 -346 CURVE",
"144 -346 LINE",
"145 -349 LINE",
"144 -350 LINE"
);
},
{
closed = 1;
nodes = (
"-79 -320 OFFCURVE",
"-93 -326 OFFCURVE",
"-107 -332 CURVE",
"-109 -333 LINE",
"-111 -329 LINE",
"-109 -328 LINE",
"-95 -322 OFFCURVE",
"-81 -316 OFFCURVE",
"-67 -310 CURVE",
"-65 -309 LINE",
"-63 -313 LINE",
"-65 -314 LINE"
);
},
{
closed = 1;
nodes = (
"723 -48 OFFCURVE",
"712 -62 OFFCURVE",
"700 -77 CURVE",
"698 -79 LINE",
"695 -76 LINE",
"696 -75 LINE",
"708 -60 OFFCURVE",
"719 -46 OFFCURVE",
"731 -31 CURVE",
"733 -29 LINE",
"736 -32 LINE",
"735 -33 LINE"
);
},
{
closed = 1;
nodes = (
"733 -136 OFFCURVE",
"736 -139 OFFCURVE",
"736 -142 CURVE",
"736 -142 LINE",
"736 -142 LINE",
"733 -159 OFFCURVE",
"735 -176 OFFCURVE",
"735 -193 CURVE",
"735 -199 OFFCURVE",
"732 -203 OFFCURVE",
"730 -209 CURVE",
"729 -211 LINE",
"725 -209 LINE",
"726 -207 LINE",
"728 -203 OFFCURVE",
"731 -199 OFFCURVE",
"731 -193 CURVE",
"731 -176 OFFCURVE",
"729 -159 OFFCURVE",
"732 -142 CURVE",
"732 -142 LINE",
"732 -139 OFFCURVE",
"729 -136 OFFCURVE",
"728 -134 CURVE",
"727 -132 LINE",
"731 -130 LINE",
"732 -132 LINE"
);
},
{
closed = 1;
nodes = (
"649 -275 OFFCURVE",
"644 -287 OFFCURVE",
"648 -298 CURVE",
"649 -300 LINE",
"645 -302 LINE",
"644 -300 LINE",
"640 -289 OFFCURVE",
"645 -277 OFFCURVE",
"641 -266 CURVE",
"640 -264 LINE",
"644 -262 LINE",
"645 -264 LINE"
);
},
{
closed = 1;
nodes = (
"649 -191 OFFCURVE",
"644 -202 OFFCURVE",
"648 -213 CURVE",
"649 -215 LINE",
"645 -217 LINE",
"644 -215 LINE",
"640 -204 OFFCURVE",
"645 -193 OFFCURVE",
"641 -182 CURVE",
"640 -180 LINE",
"644 -178 LINE",
"645 -180 LINE"
);
},
{
closed = 1;
nodes = (
"647 -153 OFFCURVE",
"645 -163 OFFCURVE",
"648 -172 CURVE",
"648 -174 LINE",
"645 -175 LINE",
"644 -174 LINE",
"641 -163 OFFCURVE",
"643 -153 OFFCURVE",
"643 -142 CURVE",
"643 -140 LINE",
"647 -140 LINE",
"647 -142 LINE"
);
},
{
closed = 1;
nodes = (
"-11 -333 OFFCURVE",
"-1 -338 OFFCURVE",
"8 -343 CURVE",
"10 -344 LINE",
"8 -348 LINE",
"6 -347 LINE",
"-3 -342 OFFCURVE",
"-13 -337 OFFCURVE",
"-22 -332 CURVE",
"-24 -331 LINE",
"-22 -327 LINE",
"-20 -328 LINE"
);
},
{
closed = 1;
nodes = (
"695 -328 OFFCURVE",
"699 -333 OFFCURVE",
"702 -338 CURVE",
"703 -340 LINE",
"699 -342 LINE",
"698 -340 LINE",
"695 -333 OFFCURVE",
"691 -326 OFFCURVE",
"700 -319 CURVE",
"701 -318 LINE",
"704 -321 LINE",
"702 -323 LINE"
);
},
{
closed = 1;
nodes = (
"724 -324 OFFCURVE",
"712 -330 OFFCURVE",
"711 -338 CURVE",
"711 -340 LINE",
"707 -340 LINE",
"707 -338 LINE",
"708 -334 OFFCURVE",
"720 -326 OFFCURVE",
"706 -323 CURVE",
"705 -322 LINE",
"706 -319 LINE",
"708 -319 LINE"
);
},
{
closed = 1;
nodes = (
"647 -349 OFFCURVE",
"641 -358 OFFCURVE",
"630 -356 CURVE",
"628 -356 LINE",
"628 -352 LINE",
"630 -352 LINE",
"641 -354 OFFCURVE",
"645 -345 OFFCURVE",
"649 -338 CURVE",
"650 -336 LINE",
"654 -338 LINE",
"653 -340 LINE"
);
},
{
closed = 1;
nodes = (
"729 -73 OFFCURVE",
"726 -77 OFFCURVE",
"723 -80 CURVE",
"722 -82 LINE",
"719 -79 LINE",
"721 -78 LINE",
"724 -75 OFFCURVE",
"727 -71 OFFCURVE",
"730 -68 CURVE",
"731 -66 LINE",
"734 -69 LINE",
"732 -70 LINE"
);
},
{
closed = 1;
nodes = (
"650 -299 OFFCURVE",
"648 -303 OFFCURVE",
"645 -307 CURVE",
"643 -309 LINE",
"640 -306 LINE",
"641 -305 LINE",
"644 -301 OFFCURVE",
"646 -297 OFFCURVE",
"649 -293 CURVE",
"651 -291 LINE",
"654 -294 LINE",
"653 -295 LINE"
);
}
);
width = 600;
}
);
unicode = 006D;
},
{
glyphname = n;
lastChange = "2017-11-27 16:46:27 +0000";
layers = (
{
layerId = "E9291901-8CC5-48BD-9A84-10F491B4D832";
paths = (
{
closed = 0;
nodes = (
"317 788 LINE",
"324 756 OFFCURVE",
"316 726 OFFCURVE",
"307 696 CURVE"
);
},
{
closed = 0;
nodes = (
"289 172 LINE",
"282 142 OFFCURVE",
"275 112 OFFCURVE",
"268 82 CURVE"
);
},
{
closed = 0;
nodes = (
"322 461 LINE",
"301 451 OFFCURVE",
"306 428 OFFCURVE",
"299 412 CURVE",
"297 407 OFFCURVE",
"297 402 OFFCURVE",
"296 396 CURVE"
);
},
{
closed = 0;
nodes = (
"327 618 LINE",
"320 602 OFFCURVE",
"323 583 OFFCURVE",
"317 567 CURVE"
);
},
{
closed = 0;
nodes = (
"333 314 LINE",
"323 301 OFFCURVE",
"319 284 OFFCURVE",
"321 270 CURVE",
"323 255 OFFCURVE",
"309 267 OFFCURVE",
"309 260 CURVE"
);
},
{
closed = 0;
nodes = (
"281 438 LINE",
"272 421 OFFCURVE",
"271 404 OFFCURVE",
"276 386 CURVE"
);
},
{
closed = 0;
nodes = (
"314 154 LINE",
"313 136 OFFCURVE",
"292 123 OFFCURVE",
"303 102 CURVE",
"312 105 OFFCURVE",
"319 109 OFFCURVE",
"322 118 CURVE"
);
},
{
closed = 0;
nodes = (
"291 -145 LINE",
"286 -162 OFFCURVE",
"281 -178 OFFCURVE",
"276 -194 CURVE"
);
},
{
closed = 0;
nodes = (
"322 -120 LINE",
"314 -143 OFFCURVE",
"308 -167 OFFCURVE",
"304 -192 CURVE"
);
},
{
closed = 0;
nodes = (
"325 469 LINE",
"325 450 OFFCURVE",
"327 431 OFFCURVE",
"322 412 CURVE"
);
},
{
closed = 0;
nodes = (
"299 -22 LINE",
"291 -29 OFFCURVE",
"290 -39 OFFCURVE",
"299 -44 CURVE",
"308 -49 OFFCURVE",
"314 -40 OFFCURVE",
"317 -32 CURVE"
);
},
{
closed = 0;
nodes = (
"276 283 LINE",
"269 266 OFFCURVE",
"271 249 OFFCURVE",
"271 231 CURVE"
);
},
{
closed = 0;
nodes = (
"276 -11 LINE",
"265 -27 OFFCURVE",
"275 -46 OFFCURVE",
"268 -63 CURVE"
);
},
{
closed = 0;
nodes = (
"304 303 LINE",
"308 287 OFFCURVE",
"297 271 OFFCURVE",
"302 254 CURVE"
);
},
{
closed = 0;
nodes = (
"289 634 LINE",
"288 622 OFFCURVE",
"291 609 OFFCURVE",
"284 598 CURVE"
);
},
{
closed = 0;
nodes = (
"307 613 LINE",
"303 595 OFFCURVE",
"301 577 OFFCURVE",
"302 559 CURVE"
);
},
{
closed = 0;
nodes = (
"289 322 LINE",
"286 310 OFFCURVE",
"285 298 OFFCURVE",
"278 288 CURVE"
);
},
{
closed = 0;
nodes = (
"302 788 LINE",
"288 761 OFFCURVE",
"292 730 OFFCURVE",
"286 701 CURVE"
);
},
{
closed = 0;
nodes = (
"291 35 LINE",
"285 22 OFFCURVE",
"287 6 OFFCURVE",
"278 -6 CURVE"
);
},
{
closed = 1;
nodes = (
"326 756 OFFCURVE",
"318 726 OFFCURVE",
"309 695 CURVE",
"308 694 LINE",
"305 695 LINE",
"305 697 LINE",
"314 726 OFFCURVE",
"322 756 OFFCURVE",
"315 788 CURVE",
"315 790 LINE",
"319 790 LINE",
"319 788 LINE"
);
},
{
closed = 1;
nodes = (
"284 142 OFFCURVE",
"277 112 OFFCURVE",
"270 82 CURVE",
"269 80 LINE",
"266 81 LINE",
"266 82 LINE",
"273 112 OFFCURVE",
"280 142 OFFCURVE",
"287 172 CURVE",
"288 174 LINE",
"291 173 LINE",
"291 172 LINE"
);
},
{
closed = 1;
nodes = (
"302 449 OFFCURVE",
"308 427 OFFCURVE",
"301 411 CURVE",
"299 406 OFFCURVE",
"299 402 OFFCURVE",
"298 396 CURVE",
"298 394 LINE",
"294 394 LINE",
"294 396 LINE",
"295 402 OFFCURVE",
"295 408 OFFCURVE",
"297 413 CURVE",
"304 429 OFFCURVE",
"300 453 OFFCURVE",
"321 463 CURVE",
"323 464 LINE",
"325 460 LINE",
"323 459 LINE"
);
},
{
closed = 1;
nodes = (
"322 601 OFFCURVE",
"325 582 OFFCURVE",
"319 566 CURVE",
"318 564 LINE",
"314 566 LINE",
"315 568 LINE",
"321 584 OFFCURVE",
"318 603 OFFCURVE",
"325 619 CURVE",
"326 621 LINE",
"330 619 LINE",
"329 617 LINE"
);
},
{
closed = 1;
nodes = (
"325 300 OFFCURVE",
"321 284 OFFCURVE",
"323 270 CURVE",
"325 255 OFFCURVE",
"311 267 OFFCURVE",
"311 260 CURVE",
"311 258 LINE",
"307 258 LINE",
"307 260 LINE",
"307 267 OFFCURVE",
"321 255 OFFCURVE",
"319 270 CURVE",
"317 284 OFFCURVE",
"321 302 OFFCURVE",
"331 315 CURVE",
"333 317 LINE",
"336 314 LINE",
"335 313 LINE"
);
},
{
closed = 1;
nodes = (
"274 421 OFFCURVE",
"273 404 OFFCURVE",
"278 387 CURVE",
"278 385 LINE",
"275 384 LINE",
"274 385 LINE",
"269 404 OFFCURVE",
"270 421 OFFCURVE",
"279 439 CURVE",
"280 441 LINE",
"284 439 LINE",
"283 437 LINE"
);
},
{
closed = 1;
nodes = (
"315 136 OFFCURVE",
"294 124 OFFCURVE",
"305 103 CURVE",
"302 104 LINE",
"311 107 OFFCURVE",
"317 110 OFFCURVE",
"320 119 CURVE",
"321 121 LINE",
"325 119 LINE",
"324 117 LINE",
"321 108 OFFCURVE",
"313 103 OFFCURVE",
"304 100 CURVE",
"303 100 LINE",
"302 100 LINE",
"301 101 LINE",
"290 122 OFFCURVE",
"311 136 OFFCURVE",
"312 154 CURVE",
"312 156 LINE",
"316 156 LINE",
"316 154 LINE"
);
},
{
closed = 1;
nodes = (
"288 -163 OFFCURVE",
"283 -179 OFFCURVE",
"278 -195 CURVE",
"277 -197 LINE",
"273 -195 LINE",
"274 -193 LINE",
"279 -177 OFFCURVE",
"284 -161 OFFCURVE",
"289 -144 CURVE",
"290 -143 LINE",
"293 -144 LINE",
"293 -146 LINE"
);
},
{
closed = 1;
nodes = (
"316 -144 OFFCURVE",
"310 -167 OFFCURVE",
"306 -192 CURVE",
"306 -194 LINE",
"302 -194 LINE",
"302 -192 LINE",
"306 -167 OFFCURVE",
"312 -142 OFFCURVE",
"320 -119 CURVE",
"321 -117 LINE",
"325 -119 LINE",
"324 -121 LINE"
);
},
{
closed = 1;
nodes = (
"327 450 OFFCURVE",
"329 431 OFFCURVE",
"324 411 CURVE",
"323 410 LINE",
"320 411 LINE",
"320 413 LINE",
"325 431 OFFCURVE",
"323 450 OFFCURVE",
"323 469 CURVE",
"323 471 LINE",
"327 471 LINE",
"327 469 LINE"
);
},
{
closed = 1;
nodes = (
"294 -29 OFFCURVE",
"292 -38 OFFCURVE",
"300 -42 CURVE",
"308 -47 OFFCURVE",
"313 -38 OFFCURVE",
"315 -31 CURVE",
"316 -29 LINE",
"320 -31 LINE",
"319 -33 LINE",
"315 -42 OFFCURVE",
"308 -51 OFFCURVE",
"298 -46 CURVE",
"288 -40 OFFCURVE",
"288 -29 OFFCURVE",
"298 -20 CURVE",
"299 -19 LINE",
"302 -22 LINE",
"300 -24 LINE"
);
},
{
closed = 1;
nodes = (
"271 265 OFFCURVE",
"273 249 OFFCURVE",
"273 231 CURVE",
"273 229 LINE",
"269 229 LINE",
"269 231 LINE",
"269 249 OFFCURVE",
"267 267 OFFCURVE",
"274 284 CURVE",
"275 286 LINE",
"279 284 LINE",
"278 282 LINE"
);
},
{
closed = 1;
nodes = (
"267 -28 OFFCURVE",
"277 -47 OFFCURVE",
"270 -64 CURVE",
"269 -66 LINE",
"265 -64 LINE",
"266 -62 LINE",
"273 -45 OFFCURVE",
"263 -26 OFFCURVE",
"274 -10 CURVE",
"275 -8 LINE",
"279 -10 LINE",
"278 -12 LINE"
);
},
{
closed = 1;
nodes = (
"310 288 OFFCURVE",
"299 272 OFFCURVE",
"304 255 CURVE",
"304 253 LINE",
"301 252 LINE",
"300 253 LINE",
"295 270 OFFCURVE",
"306 286 OFFCURVE",
"302 303 CURVE",
"302 304 LINE",
"305 305 LINE",
"306 303 LINE"
);
},
{
closed = 1;
nodes = (
"290 621 OFFCURVE",
"293 608 OFFCURVE",
"286 597 CURVE",
"285 595 LINE",
"281 597 LINE",
"282 599 LINE",
"289 610 OFFCURVE",
"286 623 OFFCURVE",
"287 634 CURVE",
"287 636 LINE",
"291 636 LINE",
"291 634 LINE"
);
},
{
closed = 1;
nodes = (
"305 595 OFFCURVE",
"303 577 OFFCURVE",
"304 559 CURVE",
"304 557 LINE",
"300 557 LINE",
"300 559 LINE",
"299 577 OFFCURVE",
"301 595 OFFCURVE",
"305 613 CURVE",
"305 615 LINE",
"309 615 LINE",
"309 613 LINE"
);
},
{
closed = 1;
nodes = (
"288 309 OFFCURVE",
"287 297 OFFCURVE",
"280 287 CURVE",
"278 285 LINE",
"275 288 LINE",
"276 289 LINE",
"283 299 OFFCURVE",
"284 311 OFFCURVE",
"287 322 CURVE",
"288 324 LINE",
"291 323 LINE",
"291 322 LINE"
);
},
{
closed = 1;
nodes = (
"290 760 OFFCURVE",
"294 729 OFFCURVE",
"288 701 CURVE",
"288 699 LINE",
"284 699 LINE",
"284 701 LINE",
"290 731 OFFCURVE",
"286 762 OFFCURVE",
"300 789 CURVE",
"301 791 LINE",
"305 789 LINE",
"304 787 LINE"
);
},
{
closed = 1;
nodes = (
"287 21 OFFCURVE",
"289 5 OFFCURVE",
"280 -7 CURVE",
"278 -9 LINE",
"275 -6 LINE",
"276 -5 LINE",
"285 7 OFFCURVE",
"283 23 OFFCURVE",
"289 36 CURVE",
"290 38 LINE",
"294 36 LINE",
"293 34 LINE"
);
}
);
width = 600;
}
);
unicode = 006E;
},
{
glyphname = o;
lastChange = "2017-11-27 16:46:48 +0000";
layers = (
{
layerId = "E9291901-8CC5-48BD-9A84-10F491B4D832";
paths = (
{
closed = 0;
nodes = (
"531 88 LINE",
"513 106 OFFCURVE",
"488 109 OFFCURVE",
"466 120 CURVE",
"433 135 OFFCURVE",
"398 147 OFFCURVE",
"364 161 CURVE",
"346 169 OFFCURVE",
"327 172 OFFCURVE",
"308 175 CURVE",
"265 182 OFFCURVE",
"222 193 OFFCURVE",
"179 202 CURVE",
"176 203 OFFCURVE",
"172 205 OFFCURVE",
"169 204 CURVE",
"139 198 OFFCURVE",
"109 198 OFFCURVE",
"79 193 CURVE",
"43 188 OFFCURVE",
"7 185 OFFCURVE",
"-28 181 CURVE",
"-71 176 OFFCURVE",
"-113 172 OFFCURVE",
"-156 168 CURVE",
"-165 168 OFFCURVE",
"-174 164 OFFCURVE",
"-184 159 CURVE",
"-158 138 OFFCURVE",
"-131 120 OFFCURVE",
"-104 104 CURVE",
"-57 76 OFFCURVE",
"-9 48 OFFCURVE",
"38 20 CURVE"
);
},
{
closed = 0;
nodes = (
"24 11 LINE",
"27 11 OFFCURVE",
"31 13 OFFCURVE",
"34 12 CURVE",
"83 6 OFFCURVE",
"130 16 OFFCURVE",
"178 22 CURVE",
"216 26 OFFCURVE",
"252 22 OFFCURVE",
"289 11 CURVE"
);
},
{
closed = 0;
nodes = (
"-176 46 LINE",
"-172 38 OFFCURVE",
"-167 30 OFFCURVE",
"-163 21 CURVE",
"-153 0 OFFCURVE",
"-133 -3 OFFCURVE",
"-113 -8 CURVE",
"-69 -19 OFFCURVE",
"-25 -13 OFFCURVE",
"18 -7 CURVE",
"27 -6 OFFCURVE",
"35 -5 OFFCURVE",
"41 2 CURVE"
);
},
{
closed = 0;
nodes = (
"414 100 LINE",
"394 100 OFFCURVE",
"375 99 OFFCURVE",
"355 98 CURVE"
);
},
{
closed = 0;
nodes = (
"-186 154 LINE",
"-194 147 OFFCURVE",
"-188 140 OFFCURVE",
"-188 132 CURVE",
"-188 112 OFFCURVE",
"-187 91 OFFCURVE",
"-186 70 CURVE",
"-186 62 OFFCURVE",
"-186 55 OFFCURVE",
"-179 50 CURVE"
);
},
{
closed = 0;
nodes = (
"206 104 LINE",
"196 109 OFFCURVE",
"186 113 OFFCURVE",
"174 113 CURVE"
);
},
{
closed = 0;
nodes = (
"68 72 LINE",
"91 69 OFFCURVE",
"114 75 OFFCURVE",
"136 77 CURVE",
"146 79 OFFCURVE",
"155 80 OFFCURVE",
"165 81 CURVE"
);
},
{
closed = 1;
nodes = (
"512 104 OFFCURVE",
"487 107 OFFCURVE",
"465 118 CURVE",
"432 133 OFFCURVE",
"397 145 OFFCURVE",
"363 159 CURVE",
"345 167 OFFCURVE",
"327 170 OFFCURVE",
"308 173 CURVE",
"265 180 OFFCURVE",
"222 191 OFFCURVE",
"179 200 CURVE",
"178 200 LINE",
"178 200 LINE",
"176 201 OFFCURVE",
"172 203 OFFCURVE",
"170 202 CURVE",
"170 202 LINE",
"169 202 LINE",
"139 196 OFFCURVE",
"109 196 OFFCURVE",
"79 191 CURVE",
"43 186 OFFCURVE",
"7 183 OFFCURVE",
"-28 179 CURVE",
"-71 174 OFFCURVE",
"-113 170 OFFCURVE",
"-156 166 CURVE",
"-156 166 LINE",
"-156 166 LINE",
"-165 166 OFFCURVE",
"-173 162 OFFCURVE",
"-183 157 CURVE",
"-183 161 LINE",
"-157 140 OFFCURVE",
"-130 122 OFFCURVE",
"-103 106 CURVE",
"-56 78 OFFCURVE",
"-8 50 OFFCURVE",
"39 22 CURVE",
"41 21 LINE",
"39 17 LINE",
"37 18 LINE",
"-10 46 OFFCURVE",
"-58 74 OFFCURVE",
"-105 102 CURVE",
"-132 118 OFFCURVE",
"-159 136 OFFCURVE",
"-185 157 CURVE",
"-186 158 LINE",
"-186 160 LINE",
"-185 161 LINE",
"-175 166 OFFCURVE",
"-165 170 OFFCURVE",
"-156 170 CURVE",
"-156 170 LINE",
"-113 174 OFFCURVE",
"-71 178 OFFCURVE",
"-28 183 CURVE",
"7 187 OFFCURVE",
"43 190 OFFCURVE",
"79 195 CURVE",
"109 200 OFFCURVE",
"139 200 OFFCURVE",
"169 206 CURVE",
"168 206 LINE",
"172 207 OFFCURVE",
"176 205 OFFCURVE",
"180 204 CURVE",
"179 204 LINE",
"222 195 OFFCURVE",
"265 184 OFFCURVE",
"308 177 CURVE",
"327 174 OFFCURVE",
"347 171 OFFCURVE",
"365 163 CURVE",
"399 149 OFFCURVE",
"434 137 OFFCURVE",
"467 122 CURVE",
"489 111 OFFCURVE",
"514 108 OFFCURVE",
"532 89 CURVE",
"534 88 LINE",
"531 85 LINE",
"530 87 LINE"
);
},
{
closed = 1;
nodes = (
"27 13 OFFCURVE",
"31 15 OFFCURVE",
"35 14 CURVE",
"34 14 LINE",
"83 8 OFFCURVE",
"130 18 OFFCURVE",
"178 24 CURVE",
"216 28 OFFCURVE",
"252 24 OFFCURVE",
"290 13 CURVE",
"291 12 LINE",
"290 9 LINE",
"288 9 LINE",
"252 20 OFFCURVE",
"216 24 OFFCURVE",
"178 20 CURVE",
"130 14 OFFCURVE",
"83 4 OFFCURVE",
"34 10 CURVE",
"34 10 LINE",
"33 10 LINE",
"31 11 OFFCURVE",
"27 9 OFFCURVE",
"24 9 CURVE",
"22 9 LINE",
"22 13 LINE",
"24 13 LINE"
);
},
{
closed = 1;
nodes = (
"-170 39 OFFCURVE",
"-165 31 OFFCURVE",
"-161 22 CURVE",
"-151 1 OFFCURVE",
"-132 -1 OFFCURVE",
"-113 -6 CURVE",
"-69 -17 OFFCURVE",
"-25 -11 OFFCURVE",
"18 -5 CURVE",
"26 -4 OFFCURVE",
"34 -3 OFFCURVE",
"39 3 CURVE",
"41 5 LINE",
"44 2 LINE",
"43 1 LINE",
"36 -7 OFFCURVE",
"28 -8 OFFCURVE",
"18 -9 CURVE",
"-25 -15 OFFCURVE",
"-69 -21 OFFCURVE",
"-113 -10 CURVE",
"-134 -5 OFFCURVE",
"-155 -1 OFFCURVE",
"-165 20 CURVE",
"-169 29 OFFCURVE",
"-174 37 OFFCURVE",
"-178 45 CURVE",
"-179 47 LINE",
"-175 49 LINE",
"-174 47 LINE"
);
},
{
closed = 1;
nodes = (
"394 98 OFFCURVE",
"375 97 OFFCURVE",
"355 96 CURVE",
"353 96 LINE",
"353 100 LINE",
"355 100 LINE",
"375 101 OFFCURVE",
"394 102 OFFCURVE",
"414 102 CURVE",
"416 102 LINE",
"416 98 LINE",
"414 98 LINE"
);
},
{
closed = 1;
nodes = (
"-192 146 OFFCURVE",
"-186 139 OFFCURVE",
"-186 132 CURVE",
"-186 112 OFFCURVE",
"-185 91 OFFCURVE",
"-184 70 CURVE",
"-184 63 OFFCURVE",
"-184 56 OFFCURVE",
"-178 52 CURVE",
"-176 50 LINE",
"-179 47 LINE",
"-180 48 LINE",
"-188 54 OFFCURVE",
"-188 61 OFFCURVE",
"-188 70 CURVE",
"-189 91 OFFCURVE",
"-190 112 OFFCURVE",
"-190 132 CURVE",
"-190 141 OFFCURVE",
"-196 148 OFFCURVE",
"-187 156 CURVE",
"-186 157 LINE",
"-183 154 LINE",
"-185 152 LINE"
);
},
{
closed = 1;
nodes = (
"195 107 OFFCURVE",
"186 111 OFFCURVE",
"174 111 CURVE",
"172 111 LINE",
"172 115 LINE",
"174 115 LINE",
"186 115 OFFCURVE",
"197 111 OFFCURVE",
"207 106 CURVE",
"209 105 LINE",
"207 101 LINE",
"205 102 LINE"
);
},
{
closed = 1;
nodes = (
"91 71 OFFCURVE",
"114 77 OFFCURVE",
"136 79 CURVE",
"136 79 LINE",
"146 81 OFFCURVE",
"155 82 OFFCURVE",
"165 83 CURVE",
"167 83 LINE",
"167 79 LINE",
"165 79 LINE",
"155 78 OFFCURVE",
"146 77 OFFCURVE",
"136 75 CURVE",
"136 75 LINE",
"136 75 LINE",
"114 73 OFFCURVE",
"91 67 OFFCURVE",
"68 70 CURVE",
"66 70 LINE",
"66 74 LINE",
"68 74 LINE"
);
}
);
width = 600;
}
);
unicode = 006F;
},
{
glyphname = p;
lastChange = "2017-11-27 16:47:14 +0000";
layers = (
{
backgroundImage = {
crop = "{{0, 0}, {945, 582}}";
imagePath = "../../../Desktop/Capture d’écran 2017-11-13 à 08.21.39.png";
transform = "{1, 0, 0, 1, -1735, 1434}";
};
layerId = "E9291901-8CC5-48BD-9A84-10F491B4D832";
paths = (
{
closed = 0;
nodes = (
"-51 448 LINE",
"-51 471 LINE",
"4 471 LINE"
);
},
{
closed = 0;
nodes = (
"-52 331 LINE",
"-52 304 LINE",
"0 304 LINE"
);
},
{
closed = 0;
nodes = (
"-55 216 LINE",
"-55 234 LINE",
"1 234 LINE"
);
},
{
closed = 0;
nodes = (
"21 434 LINE",
"21 390 LINE"
);
},
{
closed = 0;
nodes = (
"40 435 LINE",
"40 391 LINE"
);
},
{
closed = 0;
nodes = (
"21 150 LINE",
"21 107 LINE"
);
},
{
closed = 0;
nodes = (
"40 150 LINE",
"40 107 LINE"
);
},
{
closed = 0;
nodes = (
"129 345 LINE",
"129 197 LINE"
);
},
{
closed = 0;
nodes = (
"222 434 LINE",
"222 388 LINE"
);
},
{
closed = 0;
nodes = (
"257 434 LINE",
"257 388 LINE"
);
},
{
closed = 0;
nodes = (
"222 342 LINE",
"222 297 LINE"
);
},
{
closed = 0;
nodes = (
"257 343 LINE",
"257 297 LINE"
);
},
{
closed = 0;
nodes = (
"222 239 LINE",
"222 196 LINE"
);
},
{
closed = 0;
nodes = (
"257 238 LINE",
"257 195 LINE"
);
},
{
closed = 0;
nodes = (
"222 149 LINE",
"222 103 LINE"
);
},
{
closed = 0;
nodes = (
"257 149 LINE",
"257 104 LINE"
);
},
{
closed = 0;
nodes = (
"333 238 LINE",
"333 195 LINE"
);
},
{
closed = 0;
nodes = (
"364 238 LINE",
"364 194 LINE"
);
},
{
closed = 0;
nodes = (
"333 148 LINE",
"333 103 LINE"
);
},
{
closed = 0;
nodes = (
"364 147 LINE",
"364 107 LINE"
);
},
{
closed = 0;
nodes = (
"333 341 LINE",
"333 297 LINE"
);
},
{
closed = 0;
nodes = (
"364 339 LINE",
"364 297 LINE"
);
},
{
closed = 0;
nodes = (
"333 433 LINE",
"333 388 LINE"
);
},
{
closed = 0;
nodes = (
"364 433 LINE",
"364 387 LINE"
);
},
{
closed = 0;
nodes = (
"588 457 LINE",
"650 457 LINE"
);
},
{
closed = 0;
nodes = (
"725 458 LINE",
"751 458 LINE",
"751 374 LINE"
);
},
{
closed = 0;
nodes = (
"531 290 LINE",
"531 428 LINE"
);
},
{
closed = 0;
nodes = (
"655 363 LINE",
"617 363 LINE"
);
},
{
closed = 0;
nodes = (
"550 363 LINE",
"505 363 LINE"
);
},
{
closed = 0;
nodes = (
"531 100 LINE",
"531 241 LINE"
);
},
{
closed = 0;
nodes = (
"559 167 LINE",
"503 167 LINE"
);
},
{
closed = 0;
nodes = (
"651 167 LINE",
"619 167 LINE"
);
},
{
closed = 0;
nodes = (
"447 147 LINE",
"447 120 LINE",
"726 120 LINE",
"726 140 LINE"
);
},
{
closed = 0;
nodes = (
"627 80 LINE",
"583 80 LINE"
);
},
{
closed = 0;
nodes = (
"662 145 LINE",
"662 104 LINE"
);
},
{
closed = 0;
nodes = (
"444 290 LINE",
"444 340 LINE"
);
},
{
closed = 0;
nodes = (
"444 236 LINE",
"444 198 LINE"
);
},
{
closed = 1;
nodes = (
"364 386 LINE",
"356 393 LINE",
"372 393 LINE"
);
},
{
closed = 1;
nodes = (
"364 294 LINE",
"356 301 LINE",
"372 301 LINE"
);
},
{
closed = 1;
nodes = (
"364 194 LINE",
"356 201 LINE",
"372 201 LINE"
);
},
{
closed = 1;
nodes = (
"751 374 LINE",
"743 381 LINE",
"759 381 LINE"
);
},
{
closed = 1;
nodes = (
"364 104 LINE",
"356 111 LINE",
"372 111 LINE"
);
},
{
closed = 0;
nodes = (
"441 20 LINE",
"424 20 LINE",
"424 54 LINE"
);
},
{
closed = 1;
nodes = (
"444 194 LINE",
"436 201 LINE",
"452 201 LINE"
);
},
{
closed = 1;
nodes = (
"222 386 LINE",
"214 393 LINE",
"230 393 LINE"
);
},
{
closed = 1;
nodes = (
"222 295 LINE",
"214 302 LINE",
"230 302 LINE"
);
},
{
closed = 1;
nodes = (
"222 195 LINE",
"214 202 LINE",
"230 202 LINE"
);
},
{
closed = 1;
nodes = (
"222 103 LINE",
"214 110 LINE",
"230 110 LINE"
);
},
{
closed = 1;
nodes = (
"40 103 LINE",
"32 110 LINE",
"48 110 LINE"
);
},
{
closed = 1;
nodes = (
"40 389 LINE",
"32 396 LINE",
"48 396 LINE"
);
},
{
closed = 1;
nodes = (
"249 427 LINE",
"257 434 LINE",
"265 427 LINE"
);
},
{
closed = 1;
nodes = (
"249 336 LINE",
"257 343 LINE",
"265 336 LINE"
);
},
{
closed = 1;
nodes = (
"249 231 LINE",
"257 238 LINE",
"265 231 LINE"
);
},
{
closed = 1;
nodes = (
"325 231 LINE",
"333 238 LINE",
"341 231 LINE"
);
},
{
closed = 1;
nodes = (
"325 141 LINE",
"333 148 LINE",
"341 141 LINE"
);
},
{
closed = 1;
nodes = (
"249 142 LINE",
"257 149 LINE",
"265 142 LINE"
);
},
{
closed = 1;
nodes = (
"416 48 LINE",
"424 55 LINE",
"432 48 LINE"
);
},
{
closed = 1;
nodes = (
"325 334 LINE",
"333 341 LINE",
"341 334 LINE"
);
},
{
closed = 1;
nodes = (
"325 426 LINE",
"333 433 LINE",
"341 426 LINE"
);
},
{
closed = 1;
nodes = (
"436 334 LINE",
"444 341 LINE",
"452 334 LINE"
);
},
{
closed = 1;
nodes = (
"523 424 LINE",
"531 431 LINE",
"539 424 LINE"
);
},
{
closed = 1;
nodes = (
"523 237 LINE",
"531 244 LINE",
"539 237 LINE"
);
},
{
closed = 1;
nodes = (
"718 137 LINE",
"726 144 LINE",
"734 137 LINE"
);
},
{
closed = 1;
nodes = (
"121 338 LINE",
"129 345 LINE",
"137 338 LINE"
);
},
{
closed = 1;
nodes = (
"13 430 LINE",
"21 437 LINE",
"29 430 LINE"
);
},
{
closed = 1;
nodes = (
"13 143 LINE",
"21 150 LINE",
"29 143 LINE"
);
},
{
closed = 1;
nodes = (
"-1 479 LINE",
"6 471 LINE",
"-1 463 LINE"
);
},
{
closed = 1;
nodes = (
"-1 312 LINE",
"6 304 LINE",
"-1 296 LINE"
);
},
{
closed = 1;
nodes = (
"129 195 LINE",
"121 202 LINE",
"137 202 LINE"
);
},
{
closed = 1;
nodes = (
"510 355 LINE",
"503 363 LINE",
"510 371 LINE"
);
},
{
closed = 1;
nodes = (
"623 355 LINE",
"616 363 LINE",
"623 371 LINE"
);
},
{
closed = 1;
nodes = (
"623 159 LINE",
"616 167 LINE",
"623 175 LINE"
);
},
{
closed = 1;
nodes = (
"510 159 LINE",
"503 167 LINE",
"510 175 LINE"
);
},
{
closed = 1;
nodes = (
"590 72 LINE",
"583 80 LINE",
"590 88 LINE"
);
},
{
closed = 1;
nodes = (
"-1 242 LINE",
"6 234 LINE",
"-1 226 LINE"
);
},
{
closed = 1;
nodes = (
"372 391 LINE",
"356 391 LINE",
"357 395 LINE",
"365 388 LINE",
"363 388 LINE",
"371 395 LINE"
);
},
{
closed = 1;
nodes = (
"372 299 LINE",
"356 299 LINE",
"357 303 LINE",
"365 296 LINE",
"363 296 LINE",
"371 303 LINE"
);
},
{
closed = 1;
nodes = (
"372 199 LINE",
"356 199 LINE",
"357 203 LINE",
"365 196 LINE",
"363 196 LINE",
"371 203 LINE"
);
},
{
closed = 1;
nodes = (
"759 379 LINE",
"743 379 LINE",
"744 383 LINE",
"752 376 LINE",
"750 376 LINE",
"758 383 LINE"
);
},
{
closed = 1;
nodes = (
"372 109 LINE",
"356 109 LINE",
"357 113 LINE",
"365 106 LINE",
"363 106 LINE",
"371 113 LINE"
);
},
{
closed = 1;
nodes = (
"452 199 LINE",
"436 199 LINE",
"437 203 LINE",
"445 196 LINE",
"443 196 LINE",
"451 203 LINE"
);
},
{
closed = 1;
nodes = (
"230 391 LINE",
"214 391 LINE",
"215 395 LINE",
"223 388 LINE",
"221 388 LINE",
"229 395 LINE"
);
},
{
closed = 1;
nodes = (
"230 300 LINE",
"214 300 LINE",
"215 304 LINE",
"223 297 LINE",
"221 297 LINE",
"229 304 LINE"
);
},
{
closed = 1;
nodes = (
"230 200 LINE",
"214 200 LINE",
"215 204 LINE",
"223 197 LINE",
"221 197 LINE",
"229 204 LINE"
);
},
{
closed = 1;
nodes = (
"230 108 LINE",
"214 108 LINE",
"215 112 LINE",
"223 105 LINE",
"221 105 LINE",
"229 112 LINE"
);
},
{
closed = 1;
nodes = (
"48 108 LINE",
"32 108 LINE",
"33 112 LINE",
"41 105 LINE",
"39 105 LINE",
"47 112 LINE"
);
},
{
closed = 1;
nodes = (
"48 394 LINE",
"32 394 LINE",
"33 398 LINE",
"41 391 LINE",
"39 391 LINE",
"47 398 LINE"
);
},
{
closed = 1;
nodes = (
"264 425 LINE",
"256 432 LINE",
"258 432 LINE",
"250 425 LINE",
"249 429 LINE",
"265 429 LINE"
);
},
{
closed = 1;
nodes = (
"264 334 LINE",
"256 341 LINE",
"258 341 LINE",
"250 334 LINE",
"249 338 LINE",
"265 338 LINE"
);
},
{
closed = 1;
nodes = (
"264 229 LINE",
"256 236 LINE",
"258 236 LINE",
"250 229 LINE",
"249 233 LINE",
"265 233 LINE"
);
},
{
closed = 1;
nodes = (
"340 229 LINE",
"332 236 LINE",
"334 236 LINE",
"326 229 LINE",
"325 233 LINE",
"341 233 LINE"
);
},
{
closed = 1;
nodes = (
"340 139 LINE",
"332 146 LINE",
"334 146 LINE",
"326 139 LINE",
"325 143 LINE",
"341 143 LINE"
);
},
{
closed = 1;
nodes = (
"264 140 LINE",
"256 147 LINE",
"258 147 LINE",
"250 140 LINE",
"249 144 LINE",
"265 144 LINE"
);
},
{
closed = 1;
nodes = (
"431 46 LINE",
"423 53 LINE",
"425 53 LINE",
"417 46 LINE",
"416 50 LINE",
"432 50 LINE"
);
},
{
closed = 1;
nodes = (
"340 332 LINE",
"332 339 LINE",
"334 339 LINE",
"326 332 LINE",
"325 336 LINE",
"341 336 LINE"
);
},
{
closed = 1;
nodes = (
"340 424 LINE",
"332 431 LINE",
"334 431 LINE",
"326 424 LINE",
"325 428 LINE",
"341 428 LINE"
);
},
{
closed = 1;
nodes = (
"451 332 LINE",
"443 339 LINE",
"445 339 LINE",
"437 332 LINE",
"436 336 LINE",
"452 336 LINE"
);
},
{
closed = 1;
nodes = (
"538 422 LINE",
"530 429 LINE",
"532 429 LINE",
"524 422 LINE",
"523 426 LINE",
"539 426 LINE"
);
},
{
closed = 1;
nodes = (
"538 235 LINE",
"530 242 LINE",
"532 242 LINE",
"524 235 LINE",
"523 239 LINE",
"539 239 LINE"
);
},
{
closed = 1;
nodes = (
"733 135 LINE",
"725 142 LINE",
"727 142 LINE",
"719 135 LINE",
"718 139 LINE",
"734 139 LINE"
);
},
{
closed = 1;
nodes = (
"136 336 LINE",
"128 343 LINE",
"130 343 LINE",
"122 336 LINE",
"121 340 LINE",
"137 340 LINE"
);
},
{
closed = 1;
nodes = (
"28 428 LINE",
"20 435 LINE",
"22 435 LINE",
"14 428 LINE",
"13 432 LINE",
"29 432 LINE"
);
},
{
closed = 1;
nodes = (
"28 141 LINE",
"20 148 LINE",
"22 148 LINE",
"14 141 LINE",
"13 145 LINE",
"29 145 LINE"
);
},
{
closed = 1;
nodes = (
"-3 464 LINE",
"4 472 LINE",
"4 470 LINE",
"-3 478 LINE",
"1 479 LINE",
"1 463 LINE"
);
},
{
closed = 1;
nodes = (
"-3 297 LINE",
"4 305 LINE",
"4 303 LINE",
"-3 311 LINE",
"1 312 LINE",
"1 296 LINE"
);
},
{
closed = 1;
nodes = (
"137 200 LINE",
"121 200 LINE",
"122 204 LINE",
"130 197 LINE",
"128 197 LINE",
"136 204 LINE"
);
},
{
closed = 1;
nodes = (
"512 370 LINE",
"505 362 LINE",
"505 364 LINE",
"512 356 LINE",
"508 355 LINE",
"508 371 LINE"
);
},
{
closed = 1;
nodes = (
"625 370 LINE",
"618 362 LINE",
"618 364 LINE",
"625 356 LINE",
"621 355 LINE",
"621 371 LINE"
);
},
{
closed = 1;
nodes = (
"625 174 LINE",
"618 166 LINE",
"618 168 LINE",
"625 160 LINE",
"621 159 LINE",
"621 175 LINE"
);
},
{
closed = 1;
nodes = (
"512 174 LINE",
"505 166 LINE",
"505 168 LINE",
"512 160 LINE",
"508 159 LINE",
"508 175 LINE"
);
},
{
closed = 1;
nodes = (
"592 87 LINE",
"585 79 LINE",
"585 81 LINE",
"592 73 LINE",
"588 72 LINE",
"588 88 LINE"
);
},
{
closed = 1;
nodes = (
"-3 227 LINE",
"4 235 LINE",
"4 233 LINE",
"-3 241 LINE",
"1 242 LINE",
"1 226 LINE"
);
},
{
closed = 1;
nodes = (
"-52 473 LINE",
"6 473 LINE",
"6 469 LINE",
"-51 469 LINE",
"-49 471 LINE",
"-49 446 LINE",
"-53 446 LINE",
"-53 472 LINE"
);
},
{
closed = 1;
nodes = (
"-52 306 LINE",
"2 306 LINE",
"2 302 LINE",
"-53 302 LINE",
"-54 303 LINE",
"-54 333 LINE",
"-50 333 LINE",
"-50 304 LINE"
);
},
{
closed = 1;
nodes = (
"-56 236 LINE",
"3 236 LINE",
"3 232 LINE",
"-55 232 LINE",
"-53 234 LINE",
"-53 214 LINE",
"-57 214 LINE",
"-57 235 LINE"
);
},
{
closed = 1;
nodes = (
"19 388 LINE",
"19 436 LINE",
"23 436 LINE",
"23 388 LINE"
);
},
{
closed = 1;
nodes = (
"38 389 LINE",
"38 437 LINE",
"42 437 LINE",
"42 389 LINE"
);
},
{
closed = 1;
nodes = (
"19 105 LINE",
"19 152 LINE",
"23 152 LINE",
"23 105 LINE"
);
},
{
closed = 1;
nodes = (
"38 105 LINE",
"38 152 LINE",
"42 152 LINE",
"42 105 LINE"
);
},
{
closed = 1;
nodes = (
"127 195 LINE",
"127 347 LINE",
"131 347 LINE",
"131 195 LINE"
);
},
{
closed = 1;
nodes = (
"220 386 LINE",
"220 436 LINE",
"224 436 LINE",
"224 386 LINE"
);
},
{
closed = 1;
nodes = (
"255 386 LINE",
"255 436 LINE",
"259 436 LINE",
"259 386 LINE"
);
},
{
closed = 1;
nodes = (
"220 295 LINE",
"220 344 LINE",
"224 344 LINE",
"224 295 LINE"
);
},
{
closed = 1;
nodes = (
"255 295 LINE",
"255 345 LINE",
"259 345 LINE",
"259 295 LINE"
);
},
{
closed = 1;
nodes = (
"220 194 LINE",
"220 241 LINE",
"224 241 LINE",
"224 194 LINE"
);
},
{
closed = 1;
nodes = (
"255 193 LINE",
"255 240 LINE",
"259 240 LINE",
"259 193 LINE"
);
},
{
closed = 1;
nodes = (
"220 101 LINE",
"220 151 LINE",
"224 151 LINE",
"224 101 LINE"
);
},
{
closed = 1;
nodes = (
"255 102 LINE",
"255 151 LINE",
"259 151 LINE",
"259 102 LINE"
);
},
{
closed = 1;
nodes = (
"331 193 LINE",
"331 240 LINE",
"335 240 LINE",
"335 193 LINE"
);
},
{
closed = 1;
nodes = (
"362 192 LINE",
"362 240 LINE",
"366 240 LINE",
"366 192 LINE"
);
},
{
closed = 1;
nodes = (
"331 101 LINE",
"331 150 LINE",
"335 150 LINE",
"335 101 LINE"
);
},
{
closed = 1;
nodes = (
"362 105 LINE",
"362 149 LINE",
"366 149 LINE",
"366 105 LINE"
);
},
{
closed = 1;
nodes = (
"331 295 LINE",
"331 343 LINE",
"335 343 LINE",
"335 295 LINE"
);
},
{
closed = 1;
nodes = (
"362 295 LINE",
"362 341 LINE",
"366 341 LINE",
"366 295 LINE"
);
},
{
closed = 1;
nodes = (
"331 386 LINE",
"331 435 LINE",
"335 435 LINE",
"335 386 LINE"
);
},
{
closed = 1;
nodes = (
"362 385 LINE",
"362 435 LINE",
"366 435 LINE",
"366 385 LINE"
);
},
{
closed = 1;
nodes = (
"652 455 LINE",
"586 455 LINE",
"586 459 LINE",
"652 459 LINE"
);
},
{
closed = 1;
nodes = (
"753 459 LINE",
"753 372 LINE",
"749 372 LINE",
"749 458 LINE",
"751 456 LINE",
"723 456 LINE",
"723 460 LINE",
"752 460 LINE"
);
},
{
closed = 1;
nodes = (
"533 430 LINE",
"533 288 LINE",
"529 288 LINE",
"529 430 LINE"
);
},
{
closed = 1;
nodes = (
"615 365 LINE",
"657 365 LINE",
"657 361 LINE",
"615 361 LINE"
);
},
{
closed = 1;
nodes = (
"503 365 LINE",
"552 365 LINE",
"552 361 LINE",
"503 361 LINE"
);
},
{
closed = 1;
nodes = (
"533 243 LINE",
"533 98 LINE",
"529 98 LINE",
"529 243 LINE"
);
},
{
closed = 1;
nodes = (
"501 169 LINE",
"561 169 LINE",
"561 165 LINE",
"501 165 LINE"
);
},
{
closed = 1;
nodes = (
"617 169 LINE",
"653 169 LINE",
"653 165 LINE",
"617 165 LINE"
);
},
{
closed = 1;
nodes = (
"447 122 LINE",
"726 122 LINE",
"724 120 LINE",
"724 142 LINE",
"728 142 LINE",
"728 119 LINE",
"727 118 LINE",
"446 118 LINE",
"445 119 LINE",
"445 149 LINE",
"449 149 LINE",
"449 120 LINE"
);
},
{
closed = 1;
nodes = (
"581 82 LINE",
"629 82 LINE",
"629 78 LINE",
"581 78 LINE"
);
},
{
closed = 1;
nodes = (
"660 102 LINE",
"660 147 LINE",
"664 147 LINE",
"664 102 LINE"
);
},
{
closed = 1;
nodes = (
"446 342 LINE",
"446 288 LINE",
"442 288 LINE",
"442 342 LINE"
);
},
{
closed = 1;
nodes = (
"442 196 LINE",
"442 238 LINE",
"446 238 LINE",
"446 196 LINE"
);
},
{
closed = 1;
nodes = (
"363 384 LINE",
"354 392 LINE",
"355 395 LINE",
"373 395 LINE",
"374 392 LINE",
"365 384 LINE"
);
},
{
closed = 1;
nodes = (
"363 292 LINE",
"354 300 LINE",
"355 303 LINE",
"373 303 LINE",
"374 300 LINE",
"365 292 LINE"
);
},
{
closed = 1;
nodes = (
"363 192 LINE",
"354 200 LINE",
"355 203 LINE",
"373 203 LINE",
"374 200 LINE",
"365 192 LINE"
);
},
{
closed = 1;
nodes = (
"750 372 LINE",
"741 380 LINE",
"742 383 LINE",
"760 383 LINE",
"761 380 LINE",
"752 372 LINE"
);
},
{
closed = 1;
nodes = (
"363 102 LINE",
"354 110 LINE",
"355 113 LINE",
"373 113 LINE",
"374 110 LINE",
"365 102 LINE"
);
},
{
closed = 1;
nodes = (
"422 19 LINE",
"422 56 LINE",
"426 56 LINE",
"426 20 LINE",
"424 22 LINE",
"443 22 LINE",
"443 18 LINE",
"423 18 LINE"
);
},
{
closed = 1;
nodes = (
"443 192 LINE",
"434 200 LINE",
"435 203 LINE",
"453 203 LINE",
"454 200 LINE",
"445 192 LINE"
);
},
{
closed = 1;
nodes = (
"221 384 LINE",
"212 392 LINE",
"213 395 LINE",
"231 395 LINE",
"232 392 LINE",
"223 384 LINE"
);
},
{
closed = 1;
nodes = (
"221 293 LINE",
"212 301 LINE",
"213 304 LINE",
"231 304 LINE",
"232 301 LINE",
"223 293 LINE"
);
},
{
closed = 1;
nodes = (
"221 193 LINE",
"212 201 LINE",
"213 204 LINE",
"231 204 LINE",
"232 201 LINE",
"223 193 LINE"
);
},
{
closed = 1;
nodes = (
"221 101 LINE",
"212 109 LINE",
"213 112 LINE",
"231 112 LINE",
"232 109 LINE",
"223 101 LINE"
);
},
{
closed = 1;
nodes = (
"39 101 LINE",
"30 109 LINE",
"31 112 LINE",
"49 112 LINE",
"50 109 LINE",
"41 101 LINE"
);
},
{
closed = 1;
nodes = (
"39 387 LINE",
"30 395 LINE",
"31 398 LINE",
"49 398 LINE",
"50 395 LINE",
"41 387 LINE"
);
},
{
closed = 1;
nodes = (
"247 428 LINE",
"256 436 LINE",
"258 436 LINE",
"267 428 LINE",
"266 425 LINE",
"248 425 LINE"
);
},
{
closed = 1;
nodes = (
"247 337 LINE",
"256 345 LINE",
"258 345 LINE",
"267 337 LINE",
"266 334 LINE",
"248 334 LINE"
);
},
{
closed = 1;
nodes = (
"247 232 LINE",
"256 240 LINE",
"258 240 LINE",
"267 232 LINE",
"266 229 LINE",
"248 229 LINE"
);
},
{
closed = 1;
nodes = (
"323 232 LINE",
"332 240 LINE",
"334 240 LINE",
"343 232 LINE",
"342 229 LINE",
"324 229 LINE"
);
},
{
closed = 1;
nodes = (
"323 142 LINE",
"332 150 LINE",
"334 150 LINE",
"343 142 LINE",
"342 139 LINE",
"324 139 LINE"
);
},
{
closed = 1;
nodes = (
"247 143 LINE",
"256 151 LINE",
"258 151 LINE",
"267 143 LINE",
"266 140 LINE",
"248 140 LINE"
);
},
{
closed = 1;
nodes = (
"414 49 LINE",
"423 57 LINE",
"425 57 LINE",
"434 49 LINE",
"433 46 LINE",
"415 46 LINE"
);
},
{
closed = 1;
nodes = (
"323 335 LINE",
"332 343 LINE",
"334 343 LINE",
"343 335 LINE",
"342 332 LINE",
"324 332 LINE"
);
},
{
closed = 1;
nodes = (
"323 427 LINE",
"332 435 LINE",
"334 435 LINE",
"343 427 LINE",
"342 424 LINE",
"324 424 LINE"
);
},
{
closed = 1;
nodes = (
"434 335 LINE",
"443 343 LINE",
"445 343 LINE",
"454 335 LINE",
"453 332 LINE",
"435 332 LINE"
);
},
{
closed = 1;
nodes = (
"521 425 LINE",
"530 433 LINE",
"532 433 LINE",
"541 425 LINE",
"540 422 LINE",
"522 422 LINE"
);
},
{
closed = 1;
nodes = (
"521 238 LINE",
"530 246 LINE",
"532 246 LINE",
"541 238 LINE",
"540 235 LINE",
"522 235 LINE"
);
},
{
closed = 1;
nodes = (
"716 138 LINE",
"725 146 LINE",
"727 146 LINE",
"736 138 LINE",
"735 135 LINE",
"717 135 LINE"
);
},
{
closed = 1;
nodes = (
"119 339 LINE",
"128 347 LINE",
"130 347 LINE",
"139 339 LINE",
"138 336 LINE",
"120 336 LINE"
);
},
{
closed = 1;
nodes = (
"11 431 LINE",
"20 439 LINE",
"22 439 LINE",
"31 431 LINE",
"30 428 LINE",
"12 428 LINE"
);
},
{
closed = 1;
nodes = (
"11 144 LINE",
"20 152 LINE",
"22 152 LINE",
"31 144 LINE",
"30 141 LINE",
"12 141 LINE"
);
},
{
closed = 1;
nodes = (
"0 481 LINE",
"8 472 LINE",
"8 470 LINE",
"0 461 LINE",
"-3 462 LINE",
"-3 480 LINE"
);
},
{
closed = 1;
nodes = (
"0 314 LINE",
"8 305 LINE",
"8 303 LINE",
"0 294 LINE",
"-3 295 LINE",
"-3 313 LINE"
);
},
{
closed = 1;
nodes = (
"128 193 LINE",
"119 201 LINE",
"120 204 LINE",
"138 204 LINE",
"139 201 LINE",
"130 193 LINE"
);
},
{
closed = 1;
nodes = (
"509 353 LINE",
"501 362 LINE",
"501 364 LINE",
"509 373 LINE",
"512 372 LINE",
"512 354 LINE"
);
},
{
closed = 1;
nodes = (
"622 353 LINE",
"614 362 LINE",
"614 364 LINE",
"622 373 LINE",
"625 372 LINE",
"625 354 LINE"
);
},
{
closed = 1;
nodes = (
"622 157 LINE",
"614 166 LINE",
"614 168 LINE",
"622 177 LINE",
"625 176 LINE",
"625 158 LINE"
);
},
{
closed = 1;
nodes = (
"509 157 LINE",
"501 166 LINE",
"501 168 LINE",
"509 177 LINE",
"512 176 LINE",
"512 158 LINE"
);
},
{
closed = 1;
nodes = (
"589 70 LINE",
"581 79 LINE",
"581 81 LINE",
"589 90 LINE",
"592 89 LINE",
"592 71 LINE"
);
},
{
closed = 1;
nodes = (
"0 244 LINE",
"8 235 LINE",
"8 233 LINE",
"0 224 LINE",
"-3 225 LINE",
"-3 243 LINE"
);
}
);
width = 600;
}
);
unicode = 0070;
},
{
glyphname = q;
lastChange = "2017-11-27 16:47:38 +0000";
layers = (
{
layerId = "E9291901-8CC5-48BD-9A84-10F491B4D832";
paths = (
{
closed = 0;
nodes = (
"462 449 LINE",
"464 456 OFFCURVE",
"464 461 OFFCURVE",
"465 466 CURVE SMOOTH",
"464 475 OFFCURVE",
"461 481 OFFCURVE",
"447 487 CURVE SMOOTH",
"439 490 OFFCURVE",
"432 492 OFFCURVE",
"425 492 CURVE SMOOTH",
"379 492 OFFCURVE",
"354 412 OFFCURVE",
"319 395 CURVE SMOOTH",
"317 393 OFFCURVE",
"313 392 OFFCURVE",
"309 390 CURVE SMOOTH",
"279 374 OFFCURVE",
"223 390 OFFCURVE",
"197 364 CURVE SMOOTH",
"185 352 OFFCURVE",
"182 324 OFFCURVE",
"174 304 CURVE SMOOTH",
"161 266 OFFCURVE",
"141 227 OFFCURVE",
"119 192 CURVE SMOOTH",
"105 168 OFFCURVE",
"71 143 OFFCURVE",
"64 116 CURVE SMOOTH",
"54 88 OFFCURVE",
"51 65 OFFCURVE",
"51 51 CURVE SMOOTH",
"51 38 OFFCURVE",
"54 31 OFFCURVE",
"63 31 CURVE SMOOTH",
"75 31 OFFCURVE",
"95 41 OFFCURVE",
"122 69 CURVE SMOOTH",
"128 73 OFFCURVE",
"148 77 OFFCURVE",
"153 80 CURVE SMOOTH",
"189 104 OFFCURVE",
"235 138 OFFCURVE",
"263 167 CURVE SMOOTH",
"284 188 OFFCURVE",
"329 166 OFFCURVE",
"340 204 CURVE"
);
},
{
closed = 0;
nodes = (
"226 317 LINE",
"213 284 OFFCURVE",
"206 279 OFFCURVE",
"205 277 CURVE SMOOTH",
"206 274 OFFCURVE",
"214 276 OFFCURVE",
"238 253 CURVE SMOOTH",
"248 242 OFFCURVE",
"255 223 OFFCURVE",
"275 223 CURVE SMOOTH",
"299 223 OFFCURVE",
"333 244 OFFCURVE",
"356 244 CURVE SMOOTH",
"371 244 OFFCURVE",
"380 236 OFFCURVE",
"380 210 CURVE"
);
},
{
closed = 0;
nodes = (
"535 451 LINE",
"494 432 OFFCURVE",
"347 368 OFFCURVE",
"346 330 CURVE SMOOTH",
"347 329 OFFCURVE",
"347 329 OFFCURVE",
"347 328 CURVE SMOOTH",
"376 312 OFFCURVE",
"528 300 OFFCURVE",
"536 276 CURVE SMOOTH",
"541 261 OFFCURVE",
"520 244 OFFCURVE",
"513 236 CURVE SMOOTH",
"491 214 OFFCURVE",
"440 201 OFFCURVE",
"413 184 CURVE SMOOTH",
"356 148 OFFCURVE",
"301 106 OFFCURVE",
"244 70 CURVE"
);
},
{
closed = 1;
nodes = (
"462 456 OFFCURVE",
"462 461 OFFCURVE",
"463 466 CURVE",
"463 466 LINE",
"462 474 OFFCURVE",
"459 480 OFFCURVE",
"446 485 CURVE",
"439 488 OFFCURVE",
"432 490 OFFCURVE",
"425 490 CURVE",
"379 490 OFFCURVE",
"355 410 OFFCURVE",
"320 393 CURVE",
"320 394 LINE",
"318 391 OFFCURVE",
"314 390 OFFCURVE",
"310 388 CURVE",
"280 372 OFFCURVE",
"224 388 OFFCURVE",
"198 363 CURVE",
"187 351 OFFCURVE",
"184 323 OFFCURVE",
"176 303 CURVE",
"163 265 OFFCURVE",
"143 226 OFFCURVE",
"121 191 CURVE",
"107 167 OFFCURVE",
"73 142 OFFCURVE",
"66 115 CURVE",
"66 115 LINE",
"66 115 LINE",
"56 88 OFFCURVE",
"53 65 OFFCURVE",
"53 51 CURVE",
"53 40 OFFCURVE",
"55 33 OFFCURVE",
"63 33 CURVE",
"75 33 OFFCURVE",
"94 43 OFFCURVE",
"121 70 CURVE",
"121 71 LINE",
"121 71 LINE",
"127 75 OFFCURVE",
"147 79 OFFCURVE",
"152 82 CURVE",
"188 106 OFFCURVE",
"234 139 OFFCURVE",
"262 168 CURVE",
"282 189 OFFCURVE",
"327 167 OFFCURVE",
"338 205 CURVE",
"339 206 LINE",
"342 205 LINE",
"342 203 LINE",
"331 165 OFFCURVE",
"286 187 OFFCURVE",
"264 166 CURVE",
"236 137 OFFCURVE",
"190 102 OFFCURVE",
"154 78 CURVE",
"149 75 OFFCURVE",
"129 71 OFFCURVE",
"123 67 CURVE",
"123 68 LINE",
"96 39 OFFCURVE",
"75 29 OFFCURVE",
"63 29 CURVE",
"53 29 OFFCURVE",
"49 36 OFFCURVE",
"49 51 CURVE",
"49 65 OFFCURVE",
"52 88 OFFCURVE",
"62 117 CURVE",
"62 117 LINE",
"69 144 OFFCURVE",
"103 169 OFFCURVE",
"117 193 CURVE",
"139 228 OFFCURVE",
"159 267 OFFCURVE",
"172 305 CURVE",
"180 325 OFFCURVE",
"183 353 OFFCURVE",
"196 365 CURVE",
"222 392 OFFCURVE",
"278 376 OFFCURVE",
"308 392 CURVE",
"312 394 OFFCURVE",
"316 395 OFFCURVE",
"318 396 CURVE",
"318 397 LINE",
"318 397 LINE",
"353 414 OFFCURVE",
"379 494 OFFCURVE",
"425 494 CURVE",
"432 494 OFFCURVE",
"439 492 OFFCURVE",
"448 489 CURVE",
"463 482 OFFCURVE",
"466 476 OFFCURVE",
"467 466 CURVE",
"467 466 LINE",
"467 466 LINE",
"466 461 OFFCURVE",
"466 456 OFFCURVE",
"464 448 CURVE",
"463 447 LINE",
"460 448 LINE",
"460 450 LINE"
);
},
{
closed = 1;
nodes = (
"215 283 OFFCURVE",
"208 278 OFFCURVE",
"207 276 CURVE",
"207 278 LINE",
"208 275 OFFCURVE",
"216 277 OFFCURVE",
"239 254 CURVE",
"249 244 OFFCURVE",
"256 225 OFFCURVE",
"275 225 CURVE",
"299 225 OFFCURVE",
"333 246 OFFCURVE",
"356 246 CURVE",
"372 246 OFFCURVE",
"382 238 OFFCURVE",
"382 210 CURVE",
"382 208 LINE",
"378 208 LINE",
"378 210 LINE",
"378 234 OFFCURVE",
"370 242 OFFCURVE",
"356 242 CURVE",
"333 242 OFFCURVE",
"299 221 OFFCURVE",
"275 221 CURVE",
"254 221 OFFCURVE",
"247 240 OFFCURVE",
"237 252 CURVE",
"212 275 OFFCURVE",
"204 273 OFFCURVE",
"203 276 CURVE",
"203 277 LINE",
"203 278 LINE",
"204 280 OFFCURVE",
"211 285 OFFCURVE",
"224 318 CURVE",
"225 320 LINE",
"229 318 LINE",
"228 316 LINE"
);
},
{
closed = 1;
nodes = (
"495 430 OFFCURVE",
"349 368 OFFCURVE",
"348 330 CURVE",
"347 331 LINE",
"349 330 OFFCURVE",
"349 330 OFFCURVE",
"349 328 CURVE",
"348 330 LINE",
"377 314 OFFCURVE",
"530 301 OFFCURVE",
"538 277 CURVE",
"543 261 OFFCURVE",
"522 243 OFFCURVE",
"515 235 CURVE",
"492 212 OFFCURVE",
"441 199 OFFCURVE",
"414 182 CURVE",
"357 146 OFFCURVE",
"302 104 OFFCURVE",
"245 68 CURVE",
"243 67 LINE",
"241 71 LINE",
"243 72 LINE",
"300 108 OFFCURVE",
"355 150 OFFCURVE",
"412 186 CURVE",
"439 203 OFFCURVE",
"490 216 OFFCURVE",
"511 237 CURVE",
"518 245 OFFCURVE",
"539 261 OFFCURVE",
"534 275 CURVE",
"526 299 OFFCURVE",
"375 310 OFFCURVE",
"346 326 CURVE",
"345 327 LINE",
"345 327 LINE",
"345 328 LINE",
"345 328 OFFCURVE",
"345 328 OFFCURVE",
"345 329 CURVE",
"344 329 LINE",
"344 330 LINE",
"345 368 OFFCURVE",
"493 434 OFFCURVE",
"534 453 CURVE",
"536 454 LINE",
"538 450 LINE",
"536 449 LINE"
);
}
);
width = 600;
}
);
unicode = 0071;
},
{
glyphname = r;
lastChange = "2017-11-27 16:47:57 +0000";
layers = (
{
layerId = "E9291901-8CC5-48BD-9A84-10F491B4D832";
paths = (
{
closed = 0;
nodes = (
"381 109 LINE",
"447 125 OFFCURVE",
"456 182 OFFCURVE",
"532 184 CURVE"
);
},
{
closed = 0;
nodes = (
"306 195 LINE",
"347 195 OFFCURVE",
"369 249 OFFCURVE",
"415 264 CURVE"
);
},
{
closed = 0;
nodes = (
"258 277 LINE",
"281 303 OFFCURVE",
"298 335 OFFCURVE",
"328 352 CURVE"
);
},
{
closed = 0;
nodes = (
"113 274 LINE",
"144 279 OFFCURVE",
"153 309 OFFCURVE",
"180 323 CURVE"
);
},
{
closed = 0;
nodes = (
"81 340 LINE",
"99 374 OFFCURVE",
"115 377 OFFCURVE",
"144 397 CURVE"
);
},
{
closed = 1;
nodes = (
"447 127 OFFCURVE",
"456 184 OFFCURVE",
"532 186 CURVE",
"534 186 LINE",
"534 182 LINE",
"532 182 LINE",
"456 180 OFFCURVE",
"447 123 OFFCURVE",
"381 107 CURVE",
"380 107 LINE",
"379 110 LINE",
"381 111 LINE"
);
},
{
closed = 1;
nodes = (
"347 197 OFFCURVE",
"369 251 OFFCURVE",
"414 266 CURVE",
"416 267 LINE",
"418 263 LINE",
"416 262 LINE",
"369 247 OFFCURVE",
"347 193 OFFCURVE",
"306 193 CURVE",
"304 193 LINE",
"304 197 LINE",
"306 197 LINE"
);
},
{
closed = 1;
nodes = (
"280 304 OFFCURVE",
"297 337 OFFCURVE",
"327 354 CURVE",
"329 355 LINE",
"331 351 LINE",
"329 350 LINE",
"299 333 OFFCURVE",
"282 302 OFFCURVE",
"259 276 CURVE",
"258 274 LINE",
"255 277 LINE",
"257 278 LINE"
);
},
{
closed = 1;
nodes = (
"143 281 OFFCURVE",
"152 311 OFFCURVE",
"179 325 CURVE",
"181 326 LINE",
"183 322 LINE",
"181 321 LINE",
"154 307 OFFCURVE",
"145 277 OFFCURVE",
"113 272 CURVE",
"111 272 LINE",
"111 276 LINE",
"113 276 LINE"
);
},
{
closed = 1;
nodes = (
"97 375 OFFCURVE",
"114 378 OFFCURVE",
"143 399 CURVE",
"145 400 LINE",
"147 396 LINE",
"145 395 LINE",
"116 376 OFFCURVE",
"101 373 OFFCURVE",
"83 339 CURVE",
"82 337 LINE",
"78 339 LINE",
"79 341 LINE"
);
}
);
width = 600;
}
);
unicode = 0072;
},
{
glyphname = s;
lastChange = "2017-11-27 16:54:28 +0000";
layers = (
{
layerId = "E9291901-8CC5-48BD-9A84-10F491B4D832";
paths = (
{
closed = 1;
nodes = (
"239 11 LINE",
"241 10 OFFCURVE",
"243 11 OFFCURVE",
"245 10 CURVE",
"250 9 OFFCURVE",
"256 7 OFFCURVE",
"261 8 CURVE",
"269 10 OFFCURVE",
"277 8 OFFCURVE",
"284 11 CURVE",
"284 4 LINE",
"277 1 OFFCURVE",
"269 3 OFFCURVE",
"261 1 CURVE",
"256 0 OFFCURVE",
"250 2 OFFCURVE",
"245 3 CURVE",
"243 4 OFFCURVE",
"241 3 OFFCURVE",
"239 4 CURVE"
);
},
{
closed = 1;
nodes = (
"450 12 LINE",
"461 11 OFFCURVE",
"473 9 OFFCURVE",
"484 9 CURVE",
"484 2 LINE",
"473 2 OFFCURVE",
"461 4 OFFCURVE",
"450 5 CURVE"
);
},
{
closed = 1;
nodes = (
"291 82 LINE",
"293 80 OFFCURVE",
"295 80 OFFCURVE",
"296 81 CURVE",
"307 84 OFFCURVE",
"318 84 OFFCURVE",
"329 85 CURVE",
"335 85 OFFCURVE",
"341 86 OFFCURVE",
"346 89 CURVE",
"356 97 OFFCURVE",
"367 103 OFFCURVE",
"378 110 CURVE",
"390 117 OFFCURVE",
"403 124 OFFCURVE",
"415 131 CURVE",
"427 138 OFFCURVE",
"427 138 OFFCURVE",
"442 135 CURVE",
"442 135 OFFCURVE",
"442 135 OFFCURVE",
"442 135 CURVE",
"442 128 LINE",
"442 128 OFFCURVE",
"442 128 OFFCURVE",
"442 128 CURVE",
"427 131 OFFCURVE",
"427 131 OFFCURVE",
"415 124 CURVE",
"403 117 OFFCURVE",
"390 110 OFFCURVE",
"378 103 CURVE",
"367 96 OFFCURVE",
"356 90 OFFCURVE",
"346 82 CURVE",
"341 79 OFFCURVE",
"335 78 OFFCURVE",
"329 78 CURVE",
"318 77 OFFCURVE",
"307 77 OFFCURVE",
"296 74 CURVE",
"295 73 OFFCURVE",
"293 73 OFFCURVE",
"291 75 CURVE"
);
},
{
closed = 1;
nodes = (
"271 166 LINE",
"282 168 OFFCURVE",
"291 174 OFFCURVE",
"301 176 CURVE",
"301 169 LINE",
"291 167 OFFCURVE",
"282 161 OFFCURVE",
"271 159 CURVE"
);
},
{
closed = 1;
nodes = (
"327 -5 LINE",
"289 -5 OFFCURVE",
"250 -5 OFFCURVE",
"212 -5 CURVE",
"208 -5 OFFCURVE",
"203 -4 OFFCURVE",
"201 0 CURVE",
"202 3 LINE",
"200 1 OFFCURVE",
"198 2 OFFCURVE",
"197 2 CURVE",
"188 5 OFFCURVE",
"179 3 OFFCURVE",
"170 4 CURVE",
"167 4 LINE SMOOTH",
"163 4 OFFCURVE",
"159 4 OFFCURVE",
"154 4 CURVE",
"154 14 OFFCURVE",
"155 24 OFFCURVE",
"154 34 CURVE",
"154 40 OFFCURVE",
"155 43 OFFCURVE",
"162 46 CURVE",
"180 53 OFFCURVE",
"199 58 OFFCURVE",
"217 65 CURVE",
"220 66 OFFCURVE",
"223 66 OFFCURVE",
"226 63 CURVE",
"226 56 LINE",
"223 59 OFFCURVE",
"220 59 OFFCURVE",
"217 58 CURVE",
"199 51 OFFCURVE",
"180 46 OFFCURVE",
"162 39 CURVE",
"155 36 OFFCURVE",
"154 33 OFFCURVE",
"154 27 CURVE",
"155 17 OFFCURVE",
"154 7 OFFCURVE",
"154 -3 CURVE",
"159 -3 OFFCURVE",
"163 -3 OFFCURVE",
"167 -3 CURVE SMOOTH",
"170 -3 LINE",
"179 -4 OFFCURVE",
"188 -2 OFFCURVE",
"197 -5 CURVE",
"198 -5 OFFCURVE",
"200 -6 OFFCURVE",
"202 -4 CURVE",
"201 7 LINE",
"203 3 OFFCURVE",
"208 2 OFFCURVE",
"212 2 CURVE",
"250 2 OFFCURVE",
"289 2 OFFCURVE",
"327 2 CURVE"
);
},
{
closed = 1;
nodes = (
"155 81 LINE",
"153 95 OFFCURVE",
"155 108 OFFCURVE",
"156 122 CURVE",
"156 115 LINE",
"155 101 OFFCURVE",
"153 88 OFFCURVE",
"155 74 CURVE"
);
},
{
closed = 1;
nodes = (
"409 15 LINE",
"417 16 OFFCURVE",
"424 17 OFFCURVE",
"431 18 CURVE",
"431 11 LINE",
"424 10 OFFCURVE",
"417 9 OFFCURVE",
"409 8 CURVE"
);
},
{
closed = 1;
nodes = (
"323 185 LINE",
"329 187 OFFCURVE",
"335 189 OFFCURVE",
"342 191 CURVE",
"342 184 LINE",
"335 182 OFFCURVE",
"329 180 OFFCURVE",
"323 178 CURVE"
);
},
{
closed = 1;
nodes = (
"617 67 LINE",
"620 72 OFFCURVE",
"620 78 OFFCURVE",
"619 84 CURVE",
"617 85 LINE",
"622 90 OFFCURVE",
"619 96 OFFCURVE",
"619 102 CURVE",
"619 95 LINE SMOOTH",
"619 89 OFFCURVE",
"622 83 OFFCURVE",
"617 78 CURVE",
"619 77 LINE",
"620 71 OFFCURVE",
"620 65 OFFCURVE",
"617 60 CURVE"
);
},
{
closed = 1;
nodes = (
"249 79 LINE",
"244 77 OFFCURVE",
"238 77 OFFCURVE",
"232 80 CURVE",
"232 73 LINE",
"238 70 OFFCURVE",
"244 70 OFFCURVE",
"249 72 CURVE"
);
},
{
closed = 1;
nodes = (
"579 66 LINE",
"578 71 OFFCURVE",
"577 77 OFFCURVE",
"579 83 CURVE",
"579 76 LINE",
"577 70 OFFCURVE",
"578 64 OFFCURVE",
"579 59 CURVE"
);
},
{
closed = 1;
nodes = (
"607 15 LINE",
"612 14 OFFCURVE",
"614 11 OFFCURVE",
"612 5 CURVE",
"610 -1 OFFCURVE",
"606 -1 OFFCURVE",
"601 0 CURVE",
"599 1 LINE",
"600 5 OFFCURVE",
"600 10 OFFCURVE",
"600 14 CURVE",
"600 7 LINE SMOOTH",
"600 3 OFFCURVE",
"600 -2 OFFCURVE",
"599 -6 CURVE",
"601 -7 LINE",
"606 -8 OFFCURVE",
"610 -8 OFFCURVE",
"612 -2 CURVE",
"614 4 OFFCURVE",
"612 7 OFFCURVE",
"607 8 CURVE"
);
},
{
closed = 1;
nodes = (
"163 31 LINE SMOOTH",
"163 36 OFFCURVE",
"164 40 OFFCURVE",
"162 45 CURVE",
"155 45 LINE",
"154 50 OFFCURVE",
"154 54 OFFCURVE",
"155 58 CURVE",
"156 60 LINE",
"160 69 OFFCURVE",
"167 76 OFFCURVE",
"177 79 CURVE",
"182 80 OFFCURVE",
"188 84 OFFCURVE",
"193 86 CURVE",
"213 93 OFFCURVE",
"231 104 OFFCURVE",
"252 108 CURVE",
"260 109 OFFCURVE",
"268 111 OFFCURVE",
"275 110 CURVE",
"287 108 OFFCURVE",
"291 105 OFFCURVE",
"286 93 CURVE",
"284 89 OFFCURVE",
"280 87 OFFCURVE",
"277 84 CURVE",
"271 78 OFFCURVE",
"264 74 OFFCURVE",
"255 74 CURVE",
"247 73 OFFCURVE",
"243 69 OFFCURVE",
"238 63 CURVE",
"236 63 LINE",
"230 54 OFFCURVE",
"234 45 OFFCURVE",
"247 40 CURVE",
"258 35 OFFCURVE",
"269 37 OFFCURVE",
"280 40 CURVE",
"291 42 OFFCURVE",
"301 47 OFFCURVE",
"311 49 CURVE",
"324 53 OFFCURVE",
"336 52 OFFCURVE",
"348 48 CURVE",
"369 41 OFFCURVE",
"391 40 OFFCURVE",
"412 45 CURVE",
"426 49 OFFCURVE",
"439 46 OFFCURVE",
"452 42 CURVE",
"465 39 OFFCURVE",
"477 38 OFFCURVE",
"489 42 CURVE",
"503 47 OFFCURVE",
"518 45 OFFCURVE",
"532 44 CURVE",
"546 42 OFFCURVE",
"559 46 OFFCURVE",
"572 50 CURVE",
"582 53 OFFCURVE",
"586 63 OFFCURVE",
"591 71 CURVE",
"598 81 OFFCURVE",
"605 90 OFFCURVE",
"611 100 CURVE",
"618 112 OFFCURVE",
"621 125 OFFCURVE",
"618 139 CURVE",
"615 139 OFFCURVE",
"611 139 OFFCURVE",
"608 139 CURVE",
"608 132 LINE",
"611 132 OFFCURVE",
"615 132 OFFCURVE",
"618 132 CURVE",
"621 118 OFFCURVE",
"618 105 OFFCURVE",
"611 93 CURVE",
"605 83 OFFCURVE",
"598 74 OFFCURVE",
"591 64 CURVE",
"586 56 OFFCURVE",
"582 46 OFFCURVE",
"572 43 CURVE",
"559 39 OFFCURVE",
"546 35 OFFCURVE",
"532 37 CURVE",
"518 38 OFFCURVE",
"503 40 OFFCURVE",
"489 35 CURVE",
"477 31 OFFCURVE",
"465 32 OFFCURVE",
"452 35 CURVE",
"439 39 OFFCURVE",
"426 42 OFFCURVE",
"412 38 CURVE",
"391 33 OFFCURVE",
"369 34 OFFCURVE",
"348 41 CURVE",
"336 45 OFFCURVE",
"324 46 OFFCURVE",
"311 42 CURVE",
"301 40 OFFCURVE",
"291 35 OFFCURVE",
"280 33 CURVE",
"269 30 OFFCURVE",
"258 28 OFFCURVE",
"247 33 CURVE",
"234 38 OFFCURVE",
"230 47 OFFCURVE",
"236 56 CURVE",
"238 56 LINE",
"243 62 OFFCURVE",
"247 66 OFFCURVE",
"255 67 CURVE",
"264 67 OFFCURVE",
"271 71 OFFCURVE",
"277 77 CURVE",
"280 80 OFFCURVE",
"284 82 OFFCURVE",
"286 86 CURVE",
"291 98 OFFCURVE",
"287 101 OFFCURVE",
"275 103 CURVE",
"268 104 OFFCURVE",
"260 102 OFFCURVE",
"252 101 CURVE",
"231 97 OFFCURVE",
"213 86 OFFCURVE",
"193 79 CURVE",
"188 77 OFFCURVE",
"182 73 OFFCURVE",
"177 72 CURVE",
"167 69 OFFCURVE",
"160 62 OFFCURVE",
"156 53 CURVE",
"155 51 LINE",
"154 47 OFFCURVE",
"154 43 OFFCURVE",
"155 38 CURVE",
"162 38 LINE",
"164 33 OFFCURVE",
"163 29 OFFCURVE",
"163 24 CURVE"
);
},
{
closed = 1;
nodes = (
"201 45 LINE",
"200 50 OFFCURVE",
"201 54 OFFCURVE",
"199 58 CURVE",
"199 51 LINE",
"201 47 OFFCURVE",
"200 43 OFFCURVE",
"201 38 CURVE"
);
},
{
closed = 1;
nodes = (
"180 41 LINE SMOOTH",
"180 44 OFFCURVE",
"181 47 OFFCURVE",
"180 50 CURVE",
"180 43 LINE",
"181 40 OFFCURVE",
"180 37 OFFCURVE",
"180 34 CURVE"
);
},
{
closed = 1;
nodes = (
"253 158 LINE",
"255 161 OFFCURVE",
"258 162 OFFCURVE",
"261 162 CURVE",
"261 155 LINE",
"258 155 OFFCURVE",
"255 154 OFFCURVE",
"253 151 CURVE"
);
},
{
closed = 1;
nodes = (
"427 142 LINE",
"423 142 OFFCURVE",
"426 139 OFFCURVE",
"425 138 CURVE"
);
},
{
closed = 1;
nodes = (
"304 11 LINE",
"306 11 OFFCURVE",
"308 11 OFFCURVE",
"310 12 CURVE",
"322 15 OFFCURVE",
"335 16 OFFCURVE",
"347 11 CURVE",
"362 5 OFFCURVE",
"377 3 OFFCURVE",
"393 4 CURVE",
"393 11 LINE",
"377 10 OFFCURVE",
"362 12 OFFCURVE",
"347 18 CURVE",
"335 23 OFFCURVE",
"322 22 OFFCURVE",
"310 19 CURVE",
"308 18 OFFCURVE",
"306 18 OFFCURVE",
"304 18 CURVE"
);
},
{
closed = 1;
nodes = (
"237 129 LINE",
"242 131 OFFCURVE",
"248 132 OFFCURVE",
"254 133 CURVE",
"267 135 OFFCURVE",
"281 137 OFFCURVE",
"294 132 CURVE",
"294 139 LINE",
"281 144 OFFCURVE",
"267 142 OFFCURVE",
"254 140 CURVE",
"248 139 OFFCURVE",
"242 138 OFFCURVE",
"237 136 CURVE"
);
},
{
closed = 1;
nodes = (
"195 132 LINE",
"204 135 OFFCURVE",
"213 139 OFFCURVE",
"223 142 CURVE",
"233 145 OFFCURVE",
"242 150 OFFCURVE",
"252 151 CURVE",
"266 151 OFFCURVE",
"279 151 OFFCURVE",
"293 151 CURVE",
"293 158 LINE",
"279 158 OFFCURVE",
"266 158 OFFCURVE",
"252 158 CURVE",
"242 157 OFFCURVE",
"233 152 OFFCURVE",
"223 149 CURVE",
"213 146 OFFCURVE",
"204 142 OFFCURVE",
"195 139 CURVE"
);
},
{
closed = 1;
nodes = (
"525 -8 LINE",
"537 -8 OFFCURVE",
"549 -7 OFFCURVE",
"560 -8 CURVE",
"574 -9 OFFCURVE",
"582 -4 OFFCURVE",
"586 8 CURVE",
"586 15 LINE",
"582 3 OFFCURVE",
"574 -2 OFFCURVE",
"560 -1 CURVE",
"549 0 OFFCURVE",
"537 -1 OFFCURVE",
"525 -1 CURVE",
"522 1 LINE",
"464 1 OFFCURVE",
"406 1 OFFCURVE",
"349 1 CURVE",
"349 -6 LINE",
"406 -6 OFFCURVE",
"464 -6 OFFCURVE",
"522 -6 CURVE"
);
},
{
closed = 1;
nodes = (
"373 64 LINE",
"384 63 OFFCURVE",
"393 67 OFFCURVE",
"404 67 CURVE",
"404 74 LINE",
"393 74 OFFCURVE",
"384 70 OFFCURVE",
"373 71 CURVE"
);
},
{
closed = 1;
nodes = (
"379 195 LINE",
"389 196 OFFCURVE",
"399 196 OFFCURVE",
"409 197 CURVE",
"409 204 LINE",
"399 203 OFFCURVE",
"389 203 OFFCURVE",
"379 202 CURVE"
);
},
{
closed = 1;
nodes = (
"432 139 LINE",
"433 143 OFFCURVE",
"437 144 OFFCURVE",
"440 145 CURVE",
"446 149 OFFCURVE",
"448 154 OFFCURVE",
"448 161 CURVE",
"448 154 LINE SMOOTH",
"448 147 OFFCURVE",
"446 142 OFFCURVE",
"440 138 CURVE",
"437 137 OFFCURVE",
"433 136 OFFCURVE",
"432 132 CURVE",
"427 135 LINE",
"423 135 OFFCURVE",
"426 132 OFFCURVE",
"425 131 CURVE"
);
},
{
closed = 1;
nodes = (
"317 92 LINE",
"322 99 OFFCURVE",
"323 107 OFFCURVE",
"320 116 CURVE",
"320 109 LINE",
"323 100 OFFCURVE",
"322 92 OFFCURVE",
"317 85 CURVE",
"314 87 LINE",
"314 84 OFFCURVE",
"315 81 OFFCURVE",
"311 80 CURVE",
"314 80 LINE",
"314 77 OFFCURVE",
"315 74 OFFCURVE",
"311 73 CURVE",
"293 70 LINE",
"288 68 OFFCURVE",
"283 66 OFFCURVE",
"278 65 CURVE",
"267 61 OFFCURVE",
"263 64 OFFCURVE",
"265 75 CURVE"
);
},
{
closed = 1;
nodes = (
"293 63 LINE",
"288 61 OFFCURVE",
"283 59 OFFCURVE",
"278 58 CURVE",
"267 54 OFFCURVE",
"263 57 OFFCURVE",
"265 68 CURVE"
);
},
{
closed = 1;
nodes = (
"576 12 LINE",
"559 8 OFFCURVE",
"541 6 OFFCURVE",
"524 7 CURVE",
"514 7 OFFCURVE",
"504 6 OFFCURVE",
"494 5 CURVE",
"494 12 LINE",
"504 13 OFFCURVE",
"514 14 OFFCURVE",
"524 14 CURVE",
"541 13 OFFCURVE",
"559 15 OFFCURVE",
"576 19 CURVE",
"579 16 LINE",
"577 22 OFFCURVE",
"579 27 OFFCURVE",
"577 33 CURVE",
"577 40 LINE",
"579 34 OFFCURVE",
"577 29 OFFCURVE",
"579 23 CURVE",
"581 25 LINE",
"575 18 OFFCURVE",
"578 10 OFFCURVE",
"579 3 CURVE",
"579 -4 LINE",
"578 3 OFFCURVE",
"575 11 OFFCURVE",
"581 18 CURVE"
);
}
);
width = 600;
}
);
unicode = 0073;
},
{
glyphname = t;
lastChange = "2017-11-27 16:50:48 +0000";
layers = (
{
layerId = "E9291901-8CC5-48BD-9A84-10F491B4D832";
paths = (
{
closed = 0;
nodes = (
"390 646 LINE",
"377 609 OFFCURVE",
"365 571 OFFCURVE",
"349 536 CURVE",
"333 502 OFFCURVE",
"331 466 OFFCURVE",
"338 432 CURVE",
"344 398 OFFCURVE",
"342 363 OFFCURVE",
"346 329 CURVE",
"348 316 OFFCURVE",
"353 309 OFFCURVE",
"365 306 CURVE"
);
},
{
closed = 0;
nodes = (
"380 698 LINE",
"343 716 OFFCURVE",
"303 707 OFFCURVE",
"264 708 CURVE",
"165 709 OFFCURVE",
"66 708 OFFCURVE",
"-33 708 CURVE",
"-117 709 OFFCURVE",
"-201 710 OFFCURVE",
"-285 711 CURVE",
"-293 711 OFFCURVE",
"-301 714 OFFCURVE",
"-306 705 CURVE",
"-267 630 OFFCURVE",
"-233 552 OFFCURVE",
"-190 479 CURVE",
"-187 475 OFFCURVE",
"-187 471 OFFCURVE",
"-188 468 CURVE",
"-199 427 OFFCURVE",
"-173 397 OFFCURVE",
"-159 363 CURVE",
"-136 306 OFFCURVE",
"-107 252 OFFCURVE",
"-84 195 CURVE",
"-64 147 OFFCURVE",
"-33 109 OFFCURVE",
"16 86 CURVE",
"29 80 OFFCURVE",
"40 71 OFFCURVE",
"52 63 CURVE"
);
},
{
closed = 0;
nodes = (
"321 293 LINE",
"267 292 OFFCURVE",
"214 292 OFFCURVE",
"161 290 CURVE",
"107 288 OFFCURVE",
"52 284 OFFCURVE",
"-2 283 CURVE",
"-18 283 OFFCURVE",
"-34 284 OFFCURVE",
"-51 283 CURVE",
"-71 282 OFFCURVE",
"-91 280 OFFCURVE",
"-110 275 CURVE"
);
},
{
closed = 0;
nodes = (
"-110 533 LINE",
"-121 499 OFFCURVE",
"-97 473 OFFCURVE",
"-86 445 CURVE",
"-66 393 OFFCURVE",
"-42 342 OFFCURVE",
"-20 290 CURVE"
);
},
{
closed = 0;
nodes = (
"329 486 LINE",
"230 486 OFFCURVE",
"131 487 OFFCURVE",
"32 486 CURVE",
"-3 486 OFFCURVE",
"-39 483 OFFCURVE",
"-74 481 CURVE",
"-80 481 OFFCURVE",
"-86 478 OFFCURVE",
"-92 476 CURVE"
);
},
{
closed = 0;
nodes = (
"-270 342 LINE",
"-256 341 OFFCURVE",
"-246 333 OFFCURVE",
"-242 321 CURVE",
"-212 243 OFFCURVE",
"-173 169 OFFCURVE",
"-140 92 CURVE",
"-133 75 OFFCURVE",
"-137 62 OFFCURVE",
"-138 48 CURVE"
);
},
{
closed = 0;
nodes = (
"-203 675 LINE",
"-174 644 OFFCURVE",
"-156 606 OFFCURVE",
"-134 571 CURVE",
"-118 546 OFFCURVE",
"-102 526 OFFCURVE",
"-69 530 CURVE"
);
},
{
closed = 0;
nodes = (
"-167 50 LINE",
"-149 52 OFFCURVE",
"-135 46 OFFCURVE",
"-125 30 CURVE",
"-105 -3 OFFCURVE",
"-81 -33 OFFCURVE",
"-66 -68 CURVE"
);
},
{
closed = 0;
nodes = (
"401 288 LINE",
"375 282 OFFCURVE",
"351 297 OFFCURVE",
"326 293 CURVE"
);
},
{
closed = 0;
nodes = (
"-113 486 LINE",
"-126 478 OFFCURVE",
"-142 482 OFFCURVE",
"-156 481 CURVE",
"-166 481 OFFCURVE",
"-176 483 OFFCURVE",
"-185 479 CURVE"
);
},
{
closed = 0;
nodes = (
"-95 197 LINE",
"-112 192 OFFCURVE",
"-130 191 OFFCURVE",
"-149 192 CURVE",
"-158 193 OFFCURVE",
"-167 192 OFFCURVE",
"-175 187 CURVE"
);
},
{
closed = 0;
nodes = (
"-242 432 LINE",
"-225 432 OFFCURVE",
"-209 432 OFFCURVE",
"-193 432 CURVE"
);
},
{
closed = 0;
nodes = (
"256 53 LINE",
"226 54 OFFCURVE",
"220 49 OFFCURVE",
"207 9 CURVE"
);
},
{
closed = 0;
nodes = (
"-244 360 LINE",
"-247 352 OFFCURVE",
"-249 344 OFFCURVE",
"-252 337 CURVE"
);
},
{
closed = 0;
nodes = (
"176 35 LINE",
"174 37 OFFCURVE",
"171 38 OFFCURVE",
"169 40 CURVE",
"170 42 OFFCURVE",
"172 43 OFFCURVE",
"174 45 CURVE",
"179 26 OFFCURVE",
"195 47 OFFCURVE",
"202 37 CURVE"
);
},
{
closed = 0;
nodes = (
"452 484 LINE",
"447 483 OFFCURVE",
"446 468 OFFCURVE",
"437 479 CURVE"
);
},
{
closed = 0;
nodes = (
"380 412 LINE",
"375 408 OFFCURVE",
"375 405 OFFCURVE",
"380 401 CURVE"
);
},
{
closed = 0;
nodes = (
"194 71 LINE",
"198 66 OFFCURVE",
"201 66 OFFCURVE",
"205 71 CURVE"
);
},
{
closed = 0;
nodes = (
"261 61 LINE",
"265 66 OFFCURVE",
"268 66 OFFCURVE",
"272 61 CURVE"
);
},
{
closed = 0;
nodes = (
"401 448 LINE",
"395 444 OFFCURVE",
"395 441 OFFCURVE",
"401 437 CURVE"
);
},
{
closed = 0;
nodes = (
"251 71 LINE",
"254 68 OFFCURVE",
"256 66 OFFCURVE",
"259 63 CURVE"
);
},
{
closed = 1;
nodes = (
"379 608 OFFCURVE",
"367 570 OFFCURVE",
"351 535 CURVE",
"335 502 OFFCURVE",
"333 466 OFFCURVE",
"340 432 CURVE",
"346 398 OFFCURVE",
"344 363 OFFCURVE",
"348 329 CURVE",
"350 317 OFFCURVE",
"354 311 OFFCURVE",
"365 308 CURVE",
"367 307 LINE",
"366 304 LINE",
"365 304 LINE",
"352 307 OFFCURVE",
"346 315 OFFCURVE",
"344 329 CURVE",
"340 363 OFFCURVE",
"342 398 OFFCURVE",
"336 432 CURVE",
"329 466 OFFCURVE",
"331 502 OFFCURVE",
"347 537 CURVE",
"363 572 OFFCURVE",
"375 610 OFFCURVE",
"388 647 CURVE",
"389 649 LINE",
"393 647 LINE",
"392 645 LINE"
);
},
{
closed = 1;
nodes = (
"342 714 OFFCURVE",
"303 705 OFFCURVE",
"264 706 CURVE",
"165 707 OFFCURVE",
"66 706 OFFCURVE",
"-33 706 CURVE",
"-117 707 OFFCURVE",
"-201 708 OFFCURVE",
"-285 709 CURVE",
"-292 709 OFFCURVE",
"-300 712 OFFCURVE",
"-304 704 CURVE",
"-304 706 LINE",
"-265 631 OFFCURVE",
"-231 553 OFFCURVE",
"-188 480 CURVE",
"-188 480 LINE",
"-185 476 OFFCURVE",
"-185 471 OFFCURVE",
"-186 467 CURVE",
"-197 427 OFFCURVE",
"-171 397 OFFCURVE",
"-157 364 CURVE",
"-134 307 OFFCURVE",
"-105 253 OFFCURVE",
"-82 196 CURVE",
"-62 148 OFFCURVE",
"-32 111 OFFCURVE",
"17 88 CURVE",
"30 82 OFFCURVE",
"41 73 OFFCURVE",
"53 65 CURVE",
"55 64 LINE",
"53 60 LINE",
"51 61 LINE",
"39 69 OFFCURVE",
"28 78 OFFCURVE",
"15 84 CURVE",
"-34 107 OFFCURVE",
"-66 146 OFFCURVE",
"-86 194 CURVE",
"-109 251 OFFCURVE",
"-138 305 OFFCURVE",
"-161 362 CURVE",
"-175 397 OFFCURVE",
"-201 427 OFFCURVE",
"-190 469 CURVE",
"-189 471 OFFCURVE",
"-189 474 OFFCURVE",
"-192 478 CURVE",
"-192 478 LINE",
"-192 478 LINE",
"-235 551 OFFCURVE",
"-269 629 OFFCURVE",
"-308 704 CURVE",
"-308 705 LINE",
"-308 705 LINE",
"-308 706 LINE",
"-302 716 OFFCURVE",
"-294 713 OFFCURVE",
"-285 713 CURVE",
"-201 712 OFFCURVE",
"-117 711 OFFCURVE",
"-33 710 CURVE",
"66 710 OFFCURVE",
"165 711 OFFCURVE",
"264 710 CURVE",
"303 709 OFFCURVE",
"344 718 OFFCURVE",
"381 700 CURVE",
"383 699 LINE",
"381 695 LINE",
"379 696 LINE"
);
},
{
closed = 1;
nodes = (
"267 290 OFFCURVE",
"214 290 OFFCURVE",
"161 288 CURVE",
"107 286 OFFCURVE",
"52 282 OFFCURVE",
"-2 281 CURVE",
"-18 281 OFFCURVE",
"-34 282 OFFCURVE",
"-51 281 CURVE",
"-71 280 OFFCURVE",
"-91 278 OFFCURVE",
"-109 273 CURVE",
"-111 273 LINE",
"-112 276 LINE",
"-111 277 LINE",
"-91 282 OFFCURVE",
"-71 284 OFFCURVE",
"-51 285 CURVE",
"-34 286 OFFCURVE",
"-18 285 OFFCURVE",
"-2 285 CURVE",
"52 286 OFFCURVE",
"107 290 OFFCURVE",
"161 292 CURVE",
"214 294 OFFCURVE",
"267 294 OFFCURVE",
"321 295 CURVE",
"323 295 LINE",
"323 291 LINE",
"321 291 LINE"
);
},
{
closed = 1;
nodes = (
"-119 499 OFFCURVE",
"-95 473 OFFCURVE",
"-84 446 CURVE",
"-64 394 OFFCURVE",
"-40 343 OFFCURVE",
"-18 291 CURVE",
"-17 289 LINE",
"-21 287 LINE",
"-22 289 LINE",
"-44 341 OFFCURVE",
"-68 392 OFFCURVE",
"-88 444 CURVE",
"-99 473 OFFCURVE",
"-123 499 OFFCURVE",
"-112 534 CURVE",
"-111 536 LINE",
"-107 534 LINE",
"-108 532 LINE"
);
},
{
closed = 1;
nodes = (
"230 484 OFFCURVE",
"131 485 OFFCURVE",
"32 484 CURVE",
"-3 484 OFFCURVE",
"-39 481 OFFCURVE",
"-74 479 CURVE",
"-80 479 OFFCURVE",
"-86 476 OFFCURVE",
"-91 474 CURVE",
"-93 473 LINE",
"-95 477 LINE",
"-93 478 LINE",
"-86 480 OFFCURVE",
"-80 483 OFFCURVE",
"-74 483 CURVE",
"-39 485 OFFCURVE",
"-3 488 OFFCURVE",
"32 488 CURVE",
"131 489 OFFCURVE",
"230 488 OFFCURVE",
"329 488 CURVE",
"331 488 LINE",
"331 484 LINE",
"329 484 LINE"
);
},
{
closed = 1;
nodes = (
"-255 343 OFFCURVE",
"-244 334 OFFCURVE",
"-240 322 CURVE",
"-210 244 OFFCURVE",
"-171 170 OFFCURVE",
"-138 93 CURVE",
"-131 75 OFFCURVE",
"-135 62 OFFCURVE",
"-136 48 CURVE",
"-136 46 LINE",
"-140 46 LINE",
"-140 48 LINE",
"-139 62 OFFCURVE",
"-135 75 OFFCURVE",
"-142 91 CURVE",
"-175 168 OFFCURVE",
"-214 242 OFFCURVE",
"-244 320 CURVE",
"-248 332 OFFCURVE",
"-257 339 OFFCURVE",
"-270 340 CURVE",
"-272 340 LINE",
"-272 344 LINE",
"-270 344 LINE"
);
},
{
closed = 1;
nodes = (
"-172 645 OFFCURVE",
"-154 607 OFFCURVE",
"-132 572 CURVE",
"-117 548 OFFCURVE",
"-101 528 OFFCURVE",
"-69 532 CURVE",
"-67 532 LINE",
"-67 528 LINE",
"-69 528 LINE",
"-103 524 OFFCURVE",
"-119 544 OFFCURVE",
"-136 570 CURVE",
"-158 605 OFFCURVE",
"-176 643 OFFCURVE",
"-204 674 CURVE",
"-206 675 LINE",
"-203 678 LINE",
"-202 676 LINE"
);
},
{
closed = 1;
nodes = (
"-148 54 OFFCURVE",
"-134 48 OFFCURVE",
"-123 31 CURVE",
"-103 -2 OFFCURVE",
"-79 -32 OFFCURVE",
"-64 -67 CURVE",
"-63 -69 LINE",
"-67 -71 LINE",
"-68 -69 LINE",
"-83 -34 OFFCURVE",
"-107 -4 OFFCURVE",
"-127 29 CURVE",
"-136 44 OFFCURVE",
"-150 50 OFFCURVE",
"-167 48 CURVE",
"-169 48 LINE",
"-169 52 LINE",
"-167 52 LINE"
);
},
{
closed = 1;
nodes = (
"375 280 OFFCURVE",
"351 295 OFFCURVE",
"326 291 CURVE",
"324 291 LINE",
"324 295 LINE",
"326 295 LINE",
"351 299 OFFCURVE",
"375 284 OFFCURVE",
"401 290 CURVE",
"402 290 LINE",
"403 287 LINE",
"401 286 LINE"
);
},
{
closed = 1;
nodes = (
"-125 476 OFFCURVE",
"-142 480 OFFCURVE",
"-156 479 CURVE",
"-166 479 OFFCURVE",
"-175 481 OFFCURVE",
"-184 477 CURVE",
"-186 476 LINE",
"-188 480 LINE",
"-186 481 LINE",
"-177 485 OFFCURVE",
"-166 483 OFFCURVE",
"-156 483 CURVE",
"-142 484 OFFCURVE",
"-127 480 OFFCURVE",
"-114 488 CURVE",
"-112 489 LINE",
"-110 485 LINE",
"-112 484 LINE"
);
},
{
closed = 1;
nodes = (
"-112 190 OFFCURVE",
"-130 189 OFFCURVE",
"-149 190 CURVE",
"-158 191 OFFCURVE",
"-166 190 OFFCURVE",
"-174 185 CURVE",
"-176 184 LINE",
"-178 188 LINE",
"-176 189 LINE",
"-168 194 OFFCURVE",
"-158 195 OFFCURVE",
"-149 194 CURVE",
"-130 193 OFFCURVE",
"-112 194 OFFCURVE",
"-96 199 CURVE",
"-94 199 LINE",
"-93 196 LINE",
"-94 195 LINE"
);
},
{
closed = 1;
nodes = (
"-225 434 OFFCURVE",
"-209 434 OFFCURVE",
"-193 434 CURVE",
"-191 434 LINE",
"-191 430 LINE",
"-193 430 LINE",
"-209 430 OFFCURVE",
"-225 430 OFFCURVE",
"-242 430 CURVE",
"-244 430 LINE",
"-244 434 LINE",
"-242 434 LINE"
);
},
{
closed = 1;
nodes = (
"227 52 OFFCURVE",
"221 47 OFFCURVE",
"209 8 CURVE",
"208 6 LINE",
"204 8 LINE",
"205 10 LINE",
"219 51 OFFCURVE",
"225 56 OFFCURVE",
"256 55 CURVE",
"258 55 LINE",
"258 51 LINE",
"256 51 LINE"
);
},
{
closed = 1;
nodes = (
"-245 351 OFFCURVE",
"-247 343 OFFCURVE",
"-250 336 CURVE",
"-251 334 LINE",
"-255 336 LINE",
"-254 338 LINE",
"-251 345 OFFCURVE",
"-249 353 OFFCURVE",
"-246 361 CURVE",
"-245 363 LINE",
"-241 361 LINE",
"-242 359 LINE"
);
},
{
closed = 1;
nodes = (
"173 36 OFFCURVE",
"170 37 OFFCURVE",
"168 39 CURVE",
"167 39 LINE",
"167 40 LINE",
"167 41 LINE",
"168 43 OFFCURVE",
"170 44 OFFCURVE",
"173 46 CURVE",
"173 47 LINE",
"176 46 LINE",
"176 46 LINE",
"181 27 OFFCURVE",
"197 48 OFFCURVE",
"204 38 CURVE",
"205 37 LINE",
"202 34 LINE",
"200 36 LINE",
"193 46 OFFCURVE",
"177 25 OFFCURVE",
"172 44 CURVE",
"175 44 LINE",
"174 42 OFFCURVE",
"172 41 OFFCURVE",
"171 39 CURVE",
"170 41 LINE",
"172 39 OFFCURVE",
"175 38 OFFCURVE",
"177 36 CURVE",
"179 35 LINE",
"176 32 LINE",
"175 34 LINE"
);
},
{
closed = 1;
nodes = (
"446 481 OFFCURVE",
"445 465 OFFCURVE",
"435 478 CURVE",
"434 479 LINE",
"437 482 LINE",
"439 480 LINE",
"447 471 OFFCURVE",
"448 485 OFFCURVE",
"452 486 CURVE",
"454 486 LINE",
"454 482 LINE",
"452 482 LINE"
);
},
{
closed = 1;
nodes = (
"378 408 OFFCURVE",
"378 405 OFFCURVE",
"381 403 CURVE",
"383 401 LINE",
"380 398 LINE",
"379 399 LINE",
"372 405 OFFCURVE",
"372 408 OFFCURVE",
"379 414 CURVE",
"380 415 LINE",
"383 412 LINE",
"381 410 LINE"
);
},
{
closed = 1;
nodes = (
"198 69 OFFCURVE",
"201 69 OFFCURVE",
"203 72 CURVE",
"205 74 LINE",
"208 71 LINE",
"207 70 LINE",
"201 63 OFFCURVE",
"198 63 OFFCURVE",
"192 70 CURVE",
"191 71 LINE",
"194 74 LINE",
"196 72 LINE"
);
},
{
closed = 1;
nodes = (
"265 69 OFFCURVE",
"268 69 OFFCURVE",
"274 62 CURVE",
"275 61 LINE",
"272 58 LINE",
"270 60 LINE",
"268 63 OFFCURVE",
"265 63 OFFCURVE",
"263 60 CURVE",
"261 58 LINE",
"258 61 LINE",
"259 62 LINE"
);
},
{
closed = 1;
nodes = (
"398 444 OFFCURVE",
"398 441 OFFCURVE",
"402 439 CURVE",
"404 438 LINE",
"402 434 LINE",
"400 435 LINE",
"392 441 OFFCURVE",
"392 444 OFFCURVE",
"400 450 CURVE",
"402 451 LINE",
"404 447 LINE",
"402 446 LINE"
);
},
{
closed = 1;
nodes = (
"255 69 OFFCURVE",
"257 67 OFFCURVE",
"260 64 CURVE",
"262 63 LINE",
"259 60 LINE",
"258 62 LINE",
"255 65 OFFCURVE",
"253 67 OFFCURVE",
"250 70 CURVE",
"248 71 LINE",
"251 74 LINE",
"252 72 LINE"
);
}
);
width = 600;
}
);
unicode = 0074;
},
{
glyphname = u;
lastChange = "2017-11-27 16:51:38 +0000";
layers = (
{
layerId = "E9291901-8CC5-48BD-9A84-10F491B4D832";
paths = (
{
closed = 0;
nodes = (
"6 391 LINE",
"48 391 OFFCURVE",
"62 461 OFFCURVE",
"106 475 CURVE SMOOTH",
"122 483 OFFCURVE",
"251 359 OFFCURVE",
"276 358 CURVE SMOOTH",
"279 358 OFFCURVE",
"285 356 OFFCURVE",
"286 354 CURVE SMOOTH",
"285 342 OFFCURVE",
"297 341 OFFCURVE",
"304 334 CURVE SMOOTH",
"308 330 OFFCURVE",
"309 326 OFFCURVE",
"314 322 CURVE SMOOTH",
"321 320 OFFCURVE",
"321 314 OFFCURVE",
"324 310 CURVE SMOOTH",
"329 306 OFFCURVE",
"330 302 OFFCURVE",
"334 298 CURVE SMOOTH",
"356 276 OFFCURVE",
"397 243 OFFCURVE",
"409 220 CURVE SMOOTH",
"415 208 OFFCURVE",
"408 194 OFFCURVE",
"418 181 CURVE SMOOTH",
"429 167 OFFCURVE",
"453 170 OFFCURVE",
"462 151 CURVE SMOOTH",
"471 134 OFFCURVE",
"467 113 OFFCURVE",
"475 93 CURVE SMOOTH",
"477 82 OFFCURVE",
"481 51 OFFCURVE",
"482 51 CURVE SMOOTH",
"483 50 OFFCURVE",
"483 56 OFFCURVE",
"483 70 CURVE SMOOTH",
"483 131 OFFCURVE",
"505 217 OFFCURVE",
"571 222 CURVE"
);
},
{
closed = 1;
nodes = (
"48 393 OFFCURVE",
"62 463 OFFCURVE",
"105 477 CURVE",
"105 477 LINE",
"121 485 OFFCURVE",
"251 361 OFFCURVE",
"276 360 CURVE",
"276 360 LINE",
"280 360 OFFCURVE",
"287 357 OFFCURVE",
"288 355 CURVE",
"288 354 LINE",
"288 354 LINE",
"287 343 OFFCURVE",
"299 342 OFFCURVE",
"305 335 CURVE",
"309 331 OFFCURVE",
"310 328 OFFCURVE",
"315 324 CURVE",
"315 324 LINE",
"322 322 OFFCURVE",
"322 316 OFFCURVE",
"326 311 CURVE",
"325 312 LINE",
"330 308 OFFCURVE",
"331 303 OFFCURVE",
"335 299 CURVE",
"358 277 OFFCURVE",
"399 244 OFFCURVE",
"411 221 CURVE",
"417 209 OFFCURVE",
"410 195 OFFCURVE",
"420 182 CURVE",
"431 168 OFFCURVE",
"455 171 OFFCURVE",
"464 152 CURVE",
"473 135 OFFCURVE",
"469 114 OFFCURVE",
"477 94 CURVE",
"477 94 LINE",
"477 93 LINE",
"478 85 OFFCURVE",
"481 53 OFFCURVE",
"482 53 CURVE",
"483 53 LINE",
"483 52 LINE",
"484 51 OFFCURVE",
"481 54 OFFCURVE",
"481 70 CURVE",
"481 132 OFFCURVE",
"504 219 OFFCURVE",
"571 224 CURVE",
"573 224 LINE",
"573 220 LINE",
"571 220 LINE",
"506 215 OFFCURVE",
"485 130 OFFCURVE",
"485 70 CURVE",
"485 58 OFFCURVE",
"482 49 OFFCURVE",
"481 50 CURVE",
"482 49 LINE",
"481 49 OFFCURVE",
"476 79 OFFCURVE",
"473 93 CURVE",
"473 92 LINE",
"465 112 OFFCURVE",
"469 133 OFFCURVE",
"460 150 CURVE",
"451 169 OFFCURVE",
"427 166 OFFCURVE",
"416 180 CURVE",
"406 193 OFFCURVE",
"413 207 OFFCURVE",
"407 219 CURVE",
"395 242 OFFCURVE",
"354 275 OFFCURVE",
"333 297 CURVE",
"329 301 OFFCURVE",
"328 304 OFFCURVE",
"323 308 CURVE",
"323 309 LINE",
"322 309 LINE",
"320 312 OFFCURVE",
"320 318 OFFCURVE",
"313 320 CURVE",
"313 320 LINE",
"313 320 LINE",
"308 324 OFFCURVE",
"307 329 OFFCURVE",
"303 333 CURVE",
"295 340 OFFCURVE",
"283 341 OFFCURVE",
"284 354 CURVE",
"284 353 LINE",
"283 355 OFFCURVE",
"278 356 OFFCURVE",
"276 356 CURVE",
"276 356 LINE",
"276 356 LINE",
"251 357 OFFCURVE",
"123 481 OFFCURVE",
"107 473 CURVE",
"107 473 LINE",
"107 473 LINE",
"62 459 OFFCURVE",
"48 389 OFFCURVE",
"6 389 CURVE",
"4 389 LINE",
"4 393 LINE",
"6 393 LINE"
);
}
);
width = 600;
}
);
unicode = 0075;
},
{
glyphname = v;
lastChange = "2017-11-27 16:51:58 +0000";
layers = (
{
layerId = "E9291901-8CC5-48BD-9A84-10F491B4D832";
paths = (
{
closed = 0;
nodes = (
"368 515 LINE",
"357 510 OFFCURVE",
"349 508 OFFCURVE",
"342 508 CURVE SMOOTH",
"323 508 OFFCURVE",
"317 526 OFFCURVE",
"298 526 CURVE SMOOTH",
"294 526 OFFCURVE",
"291 526 OFFCURVE",
"286 524 CURVE SMOOTH",
"272 518 OFFCURVE",
"245 489 OFFCURVE",
"235 479 CURVE SMOOTH",
"184 428 OFFCURVE",
"168 365 OFFCURVE",
"168 302 CURVE SMOOTH",
"168 245 OFFCURVE",
"184 186 OFFCURVE",
"208 127 CURVE"
);
},
{
closed = 0;
nodes = (
"182 415 LINE",
"165 375 OFFCURVE",
"153 309 OFFCURVE",
"153 241 CURVE SMOOTH",
"153 125 OFFCURVE",
"189 4 OFFCURVE",
"302 0 CURVE SMOOTH",
"334 -1 OFFCURVE",
"344 48 OFFCURVE",
"373 62 CURVE SMOOTH",
"391 71 OFFCURVE",
"428 66 OFFCURVE",
"448 69 CURVE"
);
},
{
closed = 0;
nodes = (
"154 182 LINE",
"154 140 OFFCURVE",
"161 116 OFFCURVE",
"168 81 CURVE SMOOTH",
"170 71 OFFCURVE",
"150 65 OFFCURVE",
"153 54 CURVE SMOOTH",
"157 40 OFFCURVE",
"198 42 OFFCURVE",
"198 26 CURVE SMOOTH",
"198 15 OFFCURVE",
"184 -11 OFFCURVE",
"184 -23 CURVE SMOOTH",
"184 -26 OFFCURVE",
"184 -29 OFFCURVE",
"186 -30 CURVE SMOOTH",
"192 -33 OFFCURVE",
"200 -36 OFFCURVE",
"209 -36 CURVE SMOOTH",
"230 -36 OFFCURVE",
"256 -27 OFFCURVE",
"273 -30 CURVE"
);
},
{
closed = 0;
nodes = (
"228 85 LINE",
"256 71 OFFCURVE",
"294 54 OFFCURVE",
"302 37 CURVE"
);
},
{
closed = 1;
nodes = (
"357 508 OFFCURVE",
"349 506 OFFCURVE",
"342 506 CURVE",
"323 506 OFFCURVE",
"317 524 OFFCURVE",
"298 524 CURVE",
"294 524 OFFCURVE",
"291 524 OFFCURVE",
"287 522 CURVE",
"273 516 OFFCURVE",
"246 487 OFFCURVE",
"236 478 CURVE",
"186 427 OFFCURVE",
"170 364 OFFCURVE",
"170 302 CURVE",
"170 245 OFFCURVE",
"186 186 OFFCURVE",
"210 128 CURVE",
"211 126 LINE",
"207 124 LINE",
"206 126 LINE",
"182 186 OFFCURVE",
"166 245 OFFCURVE",
"166 302 CURVE",
"166 366 OFFCURVE",
"182 429 OFFCURVE",
"234 480 CURVE",
"244 491 OFFCURVE",
"271 520 OFFCURVE",
"285 526 CURVE",
"291 528 OFFCURVE",
"294 528 OFFCURVE",
"298 528 CURVE",
"317 528 OFFCURVE",
"323 510 OFFCURVE",
"342 510 CURVE",
"349 510 OFFCURVE",
"357 512 OFFCURVE",
"367 517 CURVE",
"369 518 LINE",
"371 514 LINE",
"369 513 LINE"
);
},
{
closed = 1;
nodes = (
"167 374 OFFCURVE",
"155 309 OFFCURVE",
"155 241 CURVE",
"155 126 OFFCURVE",
"190 6 OFFCURVE",
"302 2 CURVE",
"334 1 OFFCURVE",
"344 50 OFFCURVE",
"372 64 CURVE",
"390 73 OFFCURVE",
"428 68 OFFCURVE",
"448 71 CURVE",
"450 71 LINE",
"450 67 LINE",
"448 67 LINE",
"428 64 OFFCURVE",
"392 69 OFFCURVE",
"374 60 CURVE",
"344 46 OFFCURVE",
"334 -3 OFFCURVE",
"302 -2 CURVE",
"188 2 OFFCURVE",
"151 124 OFFCURVE",
"151 241 CURVE",
"151 309 OFFCURVE",
"163 376 OFFCURVE",
"180 416 CURVE",
"181 418 LINE",
"185 416 LINE",
"184 414 LINE"
);
},
{
closed = 1;
nodes = (
"156 140 OFFCURVE",
"163 116 OFFCURVE",
"170 81 CURVE",
"172 71 OFFCURVE",
"152 65 OFFCURVE",
"155 55 CURVE",
"159 40 OFFCURVE",
"200 42 OFFCURVE",
"200 26 CURVE",
"200 15 OFFCURVE",
"186 -11 OFFCURVE",
"186 -23 CURVE",
"186 -25 OFFCURVE",
"185 -27 OFFCURVE",
"187 -28 CURVE",
"193 -31 OFFCURVE",
"200 -34 OFFCURVE",
"209 -34 CURVE",
"230 -34 OFFCURVE",
"256 -25 OFFCURVE",
"273 -28 CURVE",
"275 -28 LINE",
"275 -32 LINE",
"273 -32 LINE",
"256 -29 OFFCURVE",
"230 -38 OFFCURVE",
"209 -38 CURVE",
"200 -38 OFFCURVE",
"191 -35 OFFCURVE",
"185 -32 CURVE",
"183 -31 OFFCURVE",
"182 -27 OFFCURVE",
"182 -23 CURVE",
"182 -11 OFFCURVE",
"196 15 OFFCURVE",
"196 26 CURVE",
"196 42 OFFCURVE",
"155 40 OFFCURVE",
"151 53 CURVE",
"148 65 OFFCURVE",
"168 71 OFFCURVE",
"166 81 CURVE",
"159 116 OFFCURVE",
"152 140 OFFCURVE",
"152 182 CURVE",
"152 184 LINE",
"156 184 LINE",
"156 182 LINE"
);
},
{
closed = 1;
nodes = (
"257 73 OFFCURVE",
"296 55 OFFCURVE",
"304 38 CURVE",
"305 36 LINE",
"301 34 LINE",
"300 36 LINE",
"292 53 OFFCURVE",
"255 69 OFFCURVE",
"227 83 CURVE",
"225 84 LINE",
"227 88 LINE",
"229 87 LINE"
);
}
);
width = 600;
}
);
unicode = 0076;
},
{
glyphname = w;
lastChange = "2017-11-13 09:25:19 +0000";
layers = (
{
layerId = "E9291901-8CC5-48BD-9A84-10F491B4D832";
paths = (
{
closed = 1;
nodes = (
"2 292 LINE",
"23 292 LINE SMOOTH",
"81 292 OFFCURVE",
"65 298 OFFCURVE",
"112 323 CURVE SMOOTH",
"116 325 OFFCURVE",
"131 318 OFFCURVE",
"141 306 CURVE SMOOTH",
"152 294 OFFCURVE",
"204 273 OFFCURVE",
"264 300 CURVE SMOOTH",
"324 327 OFFCURVE",
"282 283 OFFCURVE",
"345 283 CURVE SMOOTH",
"407 283 OFFCURVE",
"398 302 OFFCURVE",
"421 300 CURVE SMOOTH",
"444 298 OFFCURVE",
"461 283 OFFCURVE",
"477 283 CURVE SMOOTH",
"494 283 OFFCURVE",
"523 294 OFFCURVE",
"533 294 CURVE SMOOTH",
"544 294 OFFCURVE",
"579 285 OFFCURVE",
"589 285 CURVE",
"589 258 LINE",
"554 258 OFFCURVE",
"502 260 OFFCURVE",
"481 256 CURVE SMOOTH",
"461 252 OFFCURVE",
"436 260 OFFCURVE",
"417 267 CURVE SMOOTH",
"398 273 OFFCURVE",
"369 252 OFFCURVE",
"345 254 CURVE SMOOTH",
"320 256 OFFCURVE",
"291 273 OFFCURVE",
"276 271 CURVE SMOOTH",
"262 269 OFFCURVE",
"228 254 OFFCURVE",
"204 254 CURVE SMOOTH",
"179 254 OFFCURVE",
"129 275 OFFCURVE",
"112 292 CURVE SMOOTH",
"96 308 OFFCURVE",
"73 263 OFFCURVE",
"36 263 CURVE SMOOTH",
"-12 263 LINE",
"-14 292 LINE"
);
}
);
width = 600;
}
);
unicode = 0077;
},
{
glyphname = x;
lastChange = "2017-11-27 16:52:28 +0000";
layers = (
{
layerId = "E9291901-8CC5-48BD-9A84-10F491B4D832";
paths = (
{
closed = 1;
nodes = (
"484 562 OFFCURVE",
"476 568 OFFCURVE",
"463 568 CURVE",
"458 568 OFFCURVE",
"451 567 OFFCURVE",
"446 565 CURVE",
"413 554 OFFCURVE",
"390 511 OFFCURVE",
"362 491 CURVE",
"318 460 OFFCURVE",
"256 475 OFFCURVE",
"195 424 CURVE",
"165 399 OFFCURVE",
"161 338 OFFCURVE",
"146 302 CURVE",
"135 276 OFFCURVE",
"106 234 OFFCURVE",
"106 201 CURVE",
"106 184 OFFCURVE",
"114 170 OFFCURVE",
"137 162 CURVE",
"139 161 LINE",
"137 157 LINE",
"135 158 LINE",
"110 166 OFFCURVE",
"102 182 OFFCURVE",
"102 201 CURVE",
"102 234 OFFCURVE",
"131 278 OFFCURVE",
"142 304 CURVE",
"157 340 OFFCURVE",
"161 401 OFFCURVE",
"193 428 CURVE",
"254 479 OFFCURVE",
"316 464 OFFCURVE",
"360 495 CURVE",
"388 515 OFFCURVE",
"411 558 OFFCURVE",
"444 569 CURVE",
"451 571 OFFCURVE",
"458 572 OFFCURVE",
"463 572 CURVE",
"478 572 OFFCURVE",
"488 566 OFFCURVE",
"491 546 CURVE",
"491 544 LINE",
"487 544 LINE",
"487 546 LINE"
);
},
{
closed = 1;
nodes = (
"232 211 OFFCURVE",
"257 274 OFFCURVE",
"300 288 CURVE",
"324 296 OFFCURVE",
"351 297 OFFCURVE",
"367 318 CURVE",
"369 320 LINE",
"372 317 LINE",
"371 316 LINE",
"353 293 OFFCURVE",
"326 292 OFFCURVE",
"302 284 CURVE",
"259 270 OFFCURVE",
"234 207 OFFCURVE",
"189 192 CURVE",
"187 191 LINE",
"185 195 LINE",
"187 196 LINE"
);
},
{
closed = 1;
nodes = (
"203 -49 OFFCURVE",
"235 61 OFFCURVE",
"267 108 CURVE",
"299 153 OFFCURVE",
"333 128 OFFCURVE",
"358 149 CURVE",
"385 169 OFFCURVE",
"390 208 OFFCURVE",
"408 235 CURVE",
"443 288 OFFCURVE",
"491 327 OFFCURVE",
"528 377 CURVE",
"530 379 LINE",
"533 376 LINE",
"532 375 LINE",
"495 325 OFFCURVE",
"447 286 OFFCURVE",
"412 233 CURVE",
"394 206 OFFCURVE",
"387 167 OFFCURVE",
"360 145 CURVE",
"335 126 OFFCURVE",
"301 151 OFFCURVE",
"271 106 CURVE",
"237 57 OFFCURVE",
"205 -53 OFFCURVE",
"139 -57 CURVE",
"137 -57 LINE",
"137 -53 LINE",
"139 -53 LINE"
);
}
);
width = 600;
}
);
unicode = 0078;
},
{
glyphname = y;
lastChange = "2017-11-27 16:52:50 +0000";
layers = (
{
layerId = "E9291901-8CC5-48BD-9A84-10F491B4D832";
paths = (
{
closed = 0;
nodes = (
"515 0 LINE",
"509 0 OFFCURVE",
"505 -4 OFFCURVE",
"499 -6 CURVE",
"496 -7 OFFCURVE",
"493 -7 OFFCURVE",
"490 -5 CURVE",
"484 -2 OFFCURVE",
"478 -2 OFFCURVE",
"471 -3 CURVE",
"456 -5 OFFCURVE",
"441 -5 OFFCURVE",
"426 -7 CURVE",
"411 -9 OFFCURVE",
"395 -11 OFFCURVE",
"379 -14 CURVE",
"353 -19 OFFCURVE",
"326 -24 OFFCURVE",
"300 -29 CURVE",
"267 -36 OFFCURVE",
"233 -44 OFFCURVE",
"200 -52 CURVE",
"185 -56 OFFCURVE",
"169 -60 OFFCURVE",
"153 -63 CURVE",
"150 -64 OFFCURVE",
"148 -66 OFFCURVE",
"147 -68 CURVE"
);
},
{
closed = 0;
nodes = (
"236 -111 LINE",
"239 -115 OFFCURVE",
"243 -114 OFFCURVE",
"247 -114 CURVE",
"279 -114 OFFCURVE",
"311 -114 OFFCURVE",
"344 -114 CURVE",
"352 -114 OFFCURVE",
"360 -116 OFFCURVE",
"369 -116 CURVE",
"405 -116 OFFCURVE",
"442 -116 OFFCURVE",
"478 -116 CURVE",
"488 -116 OFFCURVE",
"498 -117 OFFCURVE",
"509 -118 CURVE",
"514 -118 OFFCURVE",
"520 -117 OFFCURVE",
"526 -116 CURVE"
);
},
{
closed = 0;
nodes = (
"630 44 LINE",
"652 39 OFFCURVE",
"675 37 OFFCURVE",
"696 28 CURVE",
"695 19 OFFCURVE",
"688 13 OFFCURVE",
"684 6 CURVE",
"674 -9 OFFCURVE",
"663 -23 OFFCURVE",
"654 -38 CURVE",
"649 -46 OFFCURVE",
"643 -49 OFFCURVE",
"633 -46 CURVE",
"611 -41 OFFCURVE",
"588 -42 OFFCURVE",
"565 -40 CURVE",
"540 -39 OFFCURVE",
"520 -50 OFFCURVE",
"498 -58 CURVE",
"489 -62 OFFCURVE",
"479 -65 OFFCURVE",
"469 -63 CURVE",
"463 -62 OFFCURVE",
"457 -65 OFFCURVE",
"451 -67 CURVE",
"443 -69 OFFCURVE",
"435 -72 OFFCURVE",
"426 -68 CURVE"
);
},
{
closed = 0;
nodes = (
"643 -78 LINE",
"622 -74 OFFCURVE",
"600 -72 OFFCURVE",
"579 -75 CURVE",
"561 -77 OFFCURVE",
"544 -81 OFFCURVE",
"528 -85 CURVE"
);
},
{
closed = 0;
nodes = (
"644 -113 LINE",
"644 -104 OFFCURVE",
"640 -103 OFFCURVE",
"632 -102 CURVE",
"603 -99 OFFCURVE",
"574 -100 OFFCURVE",
"545 -107 CURVE",
"539 -109 OFFCURVE",
"533 -112 OFFCURVE",
"527 -114 CURVE"
);
},
{
closed = 0;
nodes = (
"645 -114 LINE",
"645 -118 OFFCURVE",
"643 -118 OFFCURVE",
"640 -118 CURVE",
"603 -118 OFFCURVE",
"566 -118 OFFCURVE",
"528 -118 CURVE",
"528 -118 OFFCURVE",
"528 -117 OFFCURVE",
"528 -117 CURVE"
);
},
{
closed = 0;
nodes = (
"548 45 LINE",
"529 49 OFFCURVE",
"510 51 OFFCURVE",
"489 49 CURVE",
"478 47 OFFCURVE",
"465 46 OFFCURVE",
"453 46 CURVE"
);
},
{
closed = 0;
nodes = (
"538 22 LINE",
"531 26 OFFCURVE",
"523 27 OFFCURVE",
"515 28 CURVE",
"498 28 OFFCURVE",
"480 26 OFFCURVE",
"462 26 CURVE"
);
},
{
closed = 0;
nodes = (
"421 -34 LINE",
"413 -29 OFFCURVE",
"405 -34 OFFCURVE",
"397 -34 CURVE",
"384 -35 OFFCURVE",
"371 -38 OFFCURVE",
"357 -39 CURVE",
"339 -41 OFFCURVE",
"320 -45 OFFCURVE",
"301 -49 CURVE",
"295 -50 OFFCURVE",
"289 -52 OFFCURVE",
"283 -55 CURVE",
"271 -61 OFFCURVE",
"267 -69 OFFCURVE",
"268 -81 CURVE"
);
},
{
closed = 0;
nodes = (
"512 103 LINE",
"529 103 OFFCURVE",
"547 104 OFFCURVE",
"564 103 CURVE",
"581 102 OFFCURVE",
"598 101 OFFCURVE",
"614 93 CURVE",
"629 85 OFFCURVE",
"634 72 OFFCURVE",
"632 55 CURVE",
"630 45 OFFCURVE",
"624 38 OFFCURVE",
"617 31 CURVE",
"599 13 OFFCURVE",
"582 -7 OFFCURVE",
"561 -24 CURVE",
"559 -26 OFFCURVE",
"558 -30 OFFCURVE",
"556 -33 CURVE"
);
},
{
closed = 0;
nodes = (
"445 -102 LINE",
"436 -105 OFFCURVE",
"427 -104 OFFCURVE",
"419 -101 CURVE",
"413 -99 OFFCURVE",
"408 -101 OFFCURVE",
"402 -102 CURVE",
"394 -104 OFFCURVE",
"385 -104 OFFCURVE",
"376 -103 CURVE",
"366 -102 OFFCURVE",
"356 -107 OFFCURVE",
"347 -112 CURVE"
);
},
{
closed = 0;
nodes = (
"277 15 LINE",
"262 14 OFFCURVE",
"247 9 OFFCURVE",
"232 6 CURVE",
"225 4 OFFCURVE",
"217 2 OFFCURVE",
"210 2 CURVE"
);
},
{
closed = 0;
nodes = (
"426 -66 LINE",
"427 -68 OFFCURVE",
"426 -69 OFFCURVE",
"424 -69 CURVE",
"409 -69 OFFCURVE",
"394 -74 OFFCURVE",
"380 -69 CURVE",
"373 -67 OFFCURVE",
"367 -70 OFFCURVE",
"361 -72 CURVE",
"354 -74 OFFCURVE",
"348 -78 OFFCURVE",
"342 -80 CURVE",
"334 -83 OFFCURVE",
"327 -84 OFFCURVE",
"318 -83 CURVE",
"310 -81 OFFCURVE",
"300 -79 OFFCURVE",
"291 -82 CURVE",
"285 -84 OFFCURVE",
"278 -85 OFFCURVE",
"272 -81 CURVE",
"269 -80 OFFCURVE",
"266 -82 OFFCURVE",
"263 -83 CURVE"
);
},
{
closed = 0;
nodes = (
"512 -92 LINE",
"493 -100 OFFCURVE",
"472 -101 OFFCURVE",
"452 -99 CURVE"
);
},
{
closed = 0;
nodes = (
"398 38 LINE",
"384 36 OFFCURVE",
"371 35 OFFCURVE",
"357 32 CURVE",
"354 32 OFFCURVE",
"351 32 OFFCURVE",
"348 31 CURVE"
);
},
{
closed = 0;
nodes = (
"495 -8 LINE",
"490 -23 OFFCURVE",
"477 -26 OFFCURVE",
"464 -28 CURVE",
"453 -30 OFFCURVE",
"440 -30 OFFCURVE",
"428 -30 CURVE",
"426 -30 OFFCURVE",
"425 -31 OFFCURVE",
"424 -32 CURVE"
);
},
{
closed = 0;
nodes = (
"141 -76 LINE",
"139 -88 OFFCURVE",
"142 -100 OFFCURVE",
"139 -113 CURVE",
"146 -113 OFFCURVE",
"152 -113 OFFCURVE",
"159 -112 CURVE",
"182 -111 OFFCURVE",
"205 -115 OFFCURVE",
"228 -114 CURVE",
"230 -114 OFFCURVE",
"233 -115 OFFCURVE",
"236 -113 CURVE"
);
},
{
closed = 0;
nodes = (
"462 97 LINE",
"452 97 OFFCURVE",
"442 94 OFFCURVE",
"432 92 CURVE",
"429 92 OFFCURVE",
"426 92 OFFCURVE",
"424 91 CURVE"
);
},
{
closed = 0;
nodes = (
"267 -58 LINE",
"257 -54 OFFCURVE",
"248 -58 OFFCURVE",
"240 -60 CURVE",
"220 -65 OFFCURVE",
"201 -68 OFFCURVE",
"181 -74 CURVE",
"168 -77 OFFCURVE",
"155 -79 OFFCURVE",
"142 -82 CURVE"
);
},
{
closed = 0;
nodes = (
"156 -9 LINE",
"151 -11 OFFCURVE",
"147 -14 OFFCURVE",
"140 -15 CURVE",
"141 -28 OFFCURVE",
"139 -42 OFFCURVE",
"141 -56 CURVE"
);
},
{
closed = 0;
nodes = (
"174 -77 LINE",
"169 -88 OFFCURVE",
"167 -100 OFFCURVE",
"174 -111 CURVE"
);
},
{
closed = 0;
nodes = (
"364 -43 LINE",
"354 -46 OFFCURVE",
"344 -50 OFFCURVE",
"333 -50 CURVE",
"329 -50 OFFCURVE",
"324 -53 OFFCURVE",
"323 -46 CURVE"
);
},
{
closed = 0;
nodes = (
"509 102 LINE",
"498 103 OFFCURVE",
"487 99 OFFCURVE",
"476 100 CURVE"
);
},
{
closed = 0;
nodes = (
"146 -83 LINE",
"145 -93 OFFCURVE",
"143 -102 OFFCURVE",
"150 -111 CURVE"
);
},
{
closed = 0;
nodes = (
"644 -49 LINE",
"644 -63 OFFCURVE",
"644 -76 OFFCURVE",
"644 -89 CURVE",
"644 -92 OFFCURVE",
"644 -95 OFFCURVE",
"645 -98 CURVE"
);
},
{
closed = 0;
nodes = (
"498 -25 LINE",
"507 -29 OFFCURVE",
"515 -29 OFFCURVE",
"524 -29 CURVE",
"529 -29 OFFCURVE",
"535 -27 OFFCURVE",
"540 -30 CURVE"
);
},
{
closed = 0;
nodes = (
"674 -100 LINE",
"675 -106 OFFCURVE",
"677 -112 OFFCURVE",
"673 -117 CURVE",
"679 -120 OFFCURVE",
"684 -122 OFFCURVE",
"688 -116 CURVE"
);
},
{
closed = 0;
nodes = (
"696 21 LINE",
"698 9 OFFCURVE",
"696 -3 OFFCURVE",
"697 -14 CURVE",
"697 -16 OFFCURVE",
"698 -20 OFFCURVE",
"693 -20 CURVE"
);
},
{
closed = 0;
nodes = (
"460 -23 LINE",
"455 -22 OFFCURVE",
"450 -22 OFFCURVE",
"444 -22 CURVE"
);
},
{
closed = 0;
nodes = (
"695 1 LINE",
"690 -4 OFFCURVE",
"688 -10 OFFCURVE",
"685 -16 CURVE"
);
},
{
closed = 0;
nodes = (
"567 31 LINE",
"574 21 OFFCURVE",
"574 11 OFFCURVE",
"571 0 CURVE"
);
},
{
closed = 0;
nodes = (
"696 -21 LINE",
"699 -26 OFFCURVE",
"695 -29 OFFCURVE",
"693 -33 CURVE"
);
},
{
closed = 0;
nodes = (
"654 -64 LINE",
"651 -67 OFFCURVE",
"650 -72 OFFCURVE",
"646 -74 CURVE"
);
},
{
closed = 0;
nodes = (
"441 -24 LINE",
"438 -25 OFFCURVE",
"434 -24 OFFCURVE",
"431 -24 CURVE"
);
},
{
closed = 0;
nodes = (
"232 -64 LINE",
"233 -68 OFFCURVE",
"228 -70 OFFCURVE",
"229 -75 CURVE"
);
},
{
closed = 0;
nodes = (
"652 -104 LINE",
"650 -107 OFFCURVE",
"649 -110 OFFCURVE",
"647 -113 CURVE"
);
},
{
closed = 0;
nodes = (
"451 -33 LINE",
"448 -35 OFFCURVE",
"445 -37 OFFCURVE",
"441 -36 CURVE"
);
},
{
closed = 0;
nodes = (
"419 -36 LINE",
"416 -37 OFFCURVE",
"413 -39 OFFCURVE",
"410 -38 CURVE"
);
},
{
closed = 0;
nodes = (
"433 -36 LINE",
"430 -36 OFFCURVE",
"427 -37 OFFCURVE",
"424 -36 CURVE"
);
},
{
closed = 0;
nodes = (
"564 -14 LINE",
"563 -17 OFFCURVE",
"560 -19 OFFCURVE",
"562 -22 CURVE"
);
},
{
closed = 0;
nodes = (
"201 -70 LINE",
"203 -73 OFFCURVE",
"200 -75 OFFCURVE",
"199 -78 CURVE"
);
},
{
closed = 0;
nodes = (
"650 -92 LINE",
"649 -96 OFFCURVE",
"645 -99 OFFCURVE",
"642 -103 CURVE"
);
},
{
closed = 0;
nodes = (
"677 -109 LINE",
"680 -109 OFFCURVE",
"681 -108 OFFCURVE",
"681 -106 CURVE"
);
},
{
closed = 1;
nodes = (
"509 -2 OFFCURVE",
"505 -6 OFFCURVE",
"500 -8 CURVE",
"496 -9 OFFCURVE",
"492 -9 OFFCURVE",
"489 -7 CURVE",
"489 -7 LINE",
"483 -4 OFFCURVE",
"478 -4 OFFCURVE",
"471 -5 CURVE",
"456 -7 OFFCURVE",
"441 -7 OFFCURVE",
"426 -9 CURVE",
"411 -11 OFFCURVE",
"395 -13 OFFCURVE",
"379 -16 CURVE",
"353 -21 OFFCURVE",
"326 -26 OFFCURVE",
"300 -31 CURVE",
"267 -38 OFFCURVE",
"233 -46 OFFCURVE",
"200 -54 CURVE",
"185 -58 OFFCURVE",
"169 -62 OFFCURVE",
"153 -65 CURVE",
"154 -65 LINE",
"151 -66 OFFCURVE",
"150 -67 OFFCURVE",
"149 -69 CURVE",
"148 -71 LINE",
"144 -69 LINE",
"145 -67 LINE",
"146 -65 OFFCURVE",
"149 -62 OFFCURVE",
"152 -61 CURVE",
"152 -61 LINE",
"153 -61 LINE",
"169 -58 OFFCURVE",
"185 -54 OFFCURVE",
"200 -50 CURVE",
"233 -42 OFFCURVE",
"267 -34 OFFCURVE",
"300 -27 CURVE",
"326 -22 OFFCURVE",
"353 -17 OFFCURVE",
"379 -12 CURVE",
"395 -9 OFFCURVE",
"411 -7 OFFCURVE",
"426 -5 CURVE",
"441 -3 OFFCURVE",
"456 -3 OFFCURVE",
"471 -1 CURVE",
"478 0 OFFCURVE",
"485 0 OFFCURVE",
"491 -3 CURVE",
"491 -3 LINE",
"491 -3 LINE",
"494 -5 OFFCURVE",
"496 -5 OFFCURVE",
"498 -4 CURVE",
"505 -2 OFFCURVE",
"509 2 OFFCURVE",
"515 2 CURVE",
"517 2 LINE",
"517 -2 LINE",
"515 -2 LINE"
);
},
{
closed = 1;
nodes = (
"240 -113 OFFCURVE",
"244 -112 OFFCURVE",
"247 -112 CURVE",
"279 -112 OFFCURVE",
"311 -112 OFFCURVE",
"344 -112 CURVE",
"352 -112 OFFCURVE",
"360 -114 OFFCURVE",
"369 -114 CURVE",
"405 -114 OFFCURVE",
"442 -114 OFFCURVE",
"478 -114 CURVE",
"488 -114 OFFCURVE",
"498 -115 OFFCURVE",
"509 -116 CURVE",
"509 -116 LINE",
"514 -116 OFFCURVE",
"520 -115 OFFCURVE",
"526 -114 CURVE",
"528 -114 LINE",
"528 -118 LINE",
"526 -118 LINE",
"520 -119 OFFCURVE",
"514 -120 OFFCURVE",
"509 -120 CURVE",
"509 -120 LINE",
"509 -120 LINE",
"498 -119 OFFCURVE",
"488 -118 OFFCURVE",
"478 -118 CURVE",
"442 -118 OFFCURVE",
"405 -118 OFFCURVE",
"369 -118 CURVE",
"360 -118 OFFCURVE",
"352 -116 OFFCURVE",
"344 -116 CURVE",
"311 -116 OFFCURVE",
"279 -116 OFFCURVE",
"247 -116 CURVE",
"242 -116 OFFCURVE",
"238 -117 OFFCURVE",
"234 -112 CURVE",
"233 -111 LINE",
"236 -108 LINE",
"238 -110 LINE"
);
},
{
closed = 1;
nodes = (
"653 41 OFFCURVE",
"676 39 OFFCURVE",
"697 30 CURVE",
"698 29 LINE",
"698 29 LINE",
"698 28 LINE",
"697 18 OFFCURVE",
"690 12 OFFCURVE",
"686 5 CURVE",
"676 -10 OFFCURVE",
"665 -24 OFFCURVE",
"656 -39 CURVE",
"650 -48 OFFCURVE",
"644 -51 OFFCURVE",
"632 -48 CURVE",
"611 -43 OFFCURVE",
"588 -44 OFFCURVE",
"565 -42 CURVE",
"540 -41 OFFCURVE",
"520 -52 OFFCURVE",
"499 -60 CURVE",
"489 -64 OFFCURVE",
"479 -67 OFFCURVE",
"469 -65 CURVE",
"463 -64 OFFCURVE",
"457 -67 OFFCURVE",
"452 -69 CURVE",
"443 -71 OFFCURVE",
"435 -74 OFFCURVE",
"425 -70 CURVE",
"423 -69 LINE",
"425 -65 LINE",
"427 -66 LINE",
"435 -70 OFFCURVE",
"443 -67 OFFCURVE",
"450 -65 CURVE",
"457 -63 OFFCURVE",
"463 -60 OFFCURVE",
"469 -61 CURVE",
"479 -63 OFFCURVE",
"489 -60 OFFCURVE",
"497 -56 CURVE",
"520 -48 OFFCURVE",
"540 -37 OFFCURVE",
"565 -38 CURVE",
"588 -40 OFFCURVE",
"611 -39 OFFCURVE",
"634 -44 CURVE",
"642 -47 OFFCURVE",
"648 -44 OFFCURVE",
"652 -37 CURVE",
"661 -22 OFFCURVE",
"672 -8 OFFCURVE",
"682 7 CURVE",
"686 14 OFFCURVE",
"693 20 OFFCURVE",
"694 28 CURVE",
"695 26 LINE",
"674 35 OFFCURVE",
"651 37 OFFCURVE",
"630 42 CURVE",
"628 42 LINE",
"628 46 LINE",
"630 46 LINE"
);
},
{
closed = 1;
nodes = (
"622 -76 OFFCURVE",
"600 -74 OFFCURVE",
"579 -77 CURVE",
"561 -79 OFFCURVE",
"544 -83 OFFCURVE",
"528 -87 CURVE",
"527 -87 LINE",
"526 -84 LINE",
"528 -83 LINE",
"544 -79 OFFCURVE",
"561 -75 OFFCURVE",
"579 -73 CURVE",
"600 -70 OFFCURVE",
"622 -72 OFFCURVE",
"643 -76 CURVE",
"645 -76 LINE",
"645 -80 LINE",
"643 -80 LINE"
);
},
{
closed = 1;
nodes = (
"642 -105 OFFCURVE",
"638 -105 OFFCURVE",
"632 -104 CURVE",
"603 -101 OFFCURVE",
"574 -102 OFFCURVE",
"545 -109 CURVE",
"546 -109 LINE",
"540 -111 OFFCURVE",
"534 -114 OFFCURVE",
"528 -116 CURVE",
"526 -117 LINE",
"524 -113 LINE",
"526 -112 LINE",
"532 -110 OFFCURVE",
"538 -107 OFFCURVE",
"544 -105 CURVE",
"544 -105 LINE",
"545 -105 LINE",
"574 -98 OFFCURVE",
"603 -97 OFFCURVE",
"632 -100 CURVE",
"642 -101 OFFCURVE",
"646 -103 OFFCURVE",
"646 -113 CURVE",
"646 -115 LINE",
"642 -115 LINE",
"642 -113 LINE"
);
},
{
closed = 1;
nodes = (
"647 -120 OFFCURVE",
"645 -120 OFFCURVE",
"640 -120 CURVE",
"603 -120 OFFCURVE",
"566 -120 OFFCURVE",
"528 -120 CURVE",
"527 -120 LINE",
"526 -119 LINE",
"526 -118 LINE",
"526 -118 OFFCURVE",
"526 -117 OFFCURVE",
"526 -117 CURVE",
"526 -115 LINE",
"530 -115 LINE",
"530 -117 LINE",
"530 -117 OFFCURVE",
"530 -118 OFFCURVE",
"530 -118 CURVE",
"528 -116 LINE",
"566 -116 OFFCURVE",
"603 -116 OFFCURVE",
"640 -116 CURVE",
"642 -116 OFFCURVE",
"643 -116 OFFCURVE",
"643 -114 CURVE",
"643 -112 LINE",
"647 -112 LINE",
"647 -114 LINE"
);
},
{
closed = 1;
nodes = (
"529 47 OFFCURVE",
"510 49 OFFCURVE",
"489 47 CURVE",
"489 47 LINE",
"478 45 OFFCURVE",
"465 44 OFFCURVE",
"453 44 CURVE",
"451 44 LINE",
"451 48 LINE",
"453 48 LINE",
"465 48 OFFCURVE",
"478 49 OFFCURVE",
"489 51 CURVE",
"489 51 LINE",
"489 51 LINE",
"510 53 OFFCURVE",
"529 51 OFFCURVE",
"548 47 CURVE",
"550 47 LINE",
"550 43 LINE",
"548 43 LINE"
);
},
{
closed = 1;
nodes = (
"530 24 OFFCURVE",
"522 25 OFFCURVE",
"515 26 CURVE",
"515 26 LINE",
"498 26 OFFCURVE",
"480 24 OFFCURVE",
"462 24 CURVE",
"460 24 LINE",
"460 28 LINE",
"462 28 LINE",
"480 28 OFFCURVE",
"498 30 OFFCURVE",
"515 30 CURVE",
"515 30 LINE",
"515 30 LINE",
"524 29 OFFCURVE",
"532 28 OFFCURVE",
"539 24 CURVE",
"541 23 LINE",
"539 19 LINE",
"537 20 LINE"
);
},
{
closed = 1;
nodes = (
"412 -31 OFFCURVE",
"405 -36 OFFCURVE",
"397 -36 CURVE",
"384 -37 OFFCURVE",
"371 -40 OFFCURVE",
"357 -41 CURVE",
"339 -43 OFFCURVE",
"320 -47 OFFCURVE",
"301 -51 CURVE",
"296 -52 OFFCURVE",
"290 -54 OFFCURVE",
"284 -57 CURVE",
"273 -62 OFFCURVE",
"269 -70 OFFCURVE",
"270 -81 CURVE",
"270 -83 LINE",
"266 -83 LINE",
"266 -81 LINE",
"265 -68 OFFCURVE",
"269 -60 OFFCURVE",
"282 -53 CURVE",
"288 -50 OFFCURVE",
"294 -48 OFFCURVE",
"301 -47 CURVE",
"320 -43 OFFCURVE",
"339 -39 OFFCURVE",
"357 -37 CURVE",
"371 -36 OFFCURVE",
"384 -33 OFFCURVE",
"397 -32 CURVE",
"405 -32 OFFCURVE",
"414 -27 OFFCURVE",
"422 -32 CURVE",
"424 -33 LINE",
"422 -37 LINE",
"420 -36 LINE"
);
},
{
closed = 1;
nodes = (
"529 105 OFFCURVE",
"547 106 OFFCURVE",
"564 105 CURVE",
"581 104 OFFCURVE",
"599 103 OFFCURVE",
"615 95 CURVE",
"631 86 OFFCURVE",
"636 73 OFFCURVE",
"634 55 CURVE",
"634 55 LINE",
"634 55 LINE",
"632 44 OFFCURVE",
"626 37 OFFCURVE",
"618 30 CURVE",
"600 12 OFFCURVE",
"583 -9 OFFCURVE",
"562 -26 CURVE",
"562 -25 LINE",
"560 -27 OFFCURVE",
"560 -31 OFFCURVE",
"558 -34 CURVE",
"557 -36 LINE",
"553 -34 LINE",
"554 -32 LINE",
"556 -29 OFFCURVE",
"558 -25 OFFCURVE",
"560 -23 CURVE",
"560 -23 LINE",
"560 -22 LINE",
"581 -5 OFFCURVE",
"598 14 OFFCURVE",
"616 32 CURVE",
"622 39 OFFCURVE",
"628 46 OFFCURVE",
"630 55 CURVE",
"630 55 LINE",
"632 71 OFFCURVE",
"627 84 OFFCURVE",
"613 91 CURVE",
"597 99 OFFCURVE",
"581 100 OFFCURVE",
"564 101 CURVE",
"547 102 OFFCURVE",
"529 101 OFFCURVE",
"512 101 CURVE",
"510 101 LINE",
"510 105 LINE",
"512 105 LINE"
);
},
{
closed = 1;
nodes = (
"436 -107 OFFCURVE",
"427 -106 OFFCURVE",
"418 -103 CURVE",
"413 -101 OFFCURVE",
"408 -103 OFFCURVE",
"402 -104 CURVE",
"402 -104 LINE",
"394 -106 OFFCURVE",
"385 -106 OFFCURVE",
"376 -105 CURVE",
"366 -104 OFFCURVE",
"357 -109 OFFCURVE",
"348 -114 CURVE",
"346 -115 LINE",
"344 -111 LINE",
"346 -110 LINE",
"355 -105 OFFCURVE",
"366 -100 OFFCURVE",
"376 -101 CURVE",
"385 -102 OFFCURVE",
"394 -102 OFFCURVE",
"402 -100 CURVE",
"402 -100 LINE",
"402 -100 LINE",
"408 -99 OFFCURVE",
"413 -97 OFFCURVE",
"420 -99 CURVE",
"427 -102 OFFCURVE",
"436 -103 OFFCURVE",
"444 -100 CURVE",
"446 -99 LINE",
"448 -103 LINE",
"446 -104 LINE"
);
},
{
closed = 1;
nodes = (
"262 12 OFFCURVE",
"247 7 OFFCURVE",
"232 4 CURVE",
"225 2 OFFCURVE",
"217 0 OFFCURVE",
"210 0 CURVE",
"208 0 LINE",
"208 4 LINE",
"210 4 LINE",
"217 4 OFFCURVE",
"225 6 OFFCURVE",
"232 8 CURVE",
"247 11 OFFCURVE",
"262 16 OFFCURVE",
"277 17 CURVE",
"279 17 LINE",
"279 13 LINE",
"277 13 LINE"
);
},
{
closed = 1;
nodes = (
"430 -69 OFFCURVE",
"428 -71 OFFCURVE",
"424 -71 CURVE",
"409 -71 OFFCURVE",
"394 -76 OFFCURVE",
"379 -71 CURVE",
"373 -69 OFFCURVE",
"367 -72 OFFCURVE",
"362 -74 CURVE",
"355 -76 OFFCURVE",
"349 -80 OFFCURVE",
"343 -82 CURVE",
"334 -85 OFFCURVE",
"327 -86 OFFCURVE",
"318 -85 CURVE",
"318 -85 LINE",
"318 -85 LINE",
"310 -83 OFFCURVE",
"300 -81 OFFCURVE",
"292 -84 CURVE",
"285 -86 OFFCURVE",
"277 -87 OFFCURVE",
"271 -83 CURVE",
"271 -83 LINE",
"269 -82 OFFCURVE",
"266 -84 OFFCURVE",
"264 -85 CURVE",
"262 -86 LINE",
"260 -82 LINE",
"262 -81 LINE",
"266 -80 OFFCURVE",
"269 -78 OFFCURVE",
"273 -79 CURVE",
"273 -79 LINE",
"273 -79 LINE",
"279 -83 OFFCURVE",
"285 -82 OFFCURVE",
"290 -80 CURVE",
"300 -77 OFFCURVE",
"310 -79 OFFCURVE",
"318 -81 CURVE",
"318 -81 LINE",
"327 -82 OFFCURVE",
"334 -81 OFFCURVE",
"341 -78 CURVE",
"347 -76 OFFCURVE",
"353 -72 OFFCURVE",
"360 -70 CURVE",
"367 -68 OFFCURVE",
"373 -65 OFFCURVE",
"381 -67 CURVE",
"394 -72 OFFCURVE",
"409 -67 OFFCURVE",
"424 -67 CURVE",
"424 -67 OFFCURVE",
"424 -67 OFFCURVE",
"424 -67 CURVE",
"423 -65 LINE",
"427 -63 LINE",
"428 -65 LINE"
);
},
{
closed = 1;
nodes = (
"493 -102 OFFCURVE",
"472 -103 OFFCURVE",
"452 -101 CURVE",
"450 -101 LINE",
"450 -97 LINE",
"452 -97 LINE",
"472 -99 OFFCURVE",
"493 -98 OFFCURVE",
"511 -90 CURVE",
"513 -89 LINE",
"515 -93 LINE",
"513 -94 LINE"
);
},
{
closed = 1;
nodes = (
"384 34 OFFCURVE",
"371 33 OFFCURVE",
"357 30 CURVE",
"357 30 LINE",
"357 30 LINE",
"354 30 OFFCURVE",
"351 30 OFFCURVE",
"349 29 CURVE",
"347 28 LINE",
"345 32 LINE",
"347 33 LINE",
"351 34 OFFCURVE",
"354 34 OFFCURVE",
"357 34 CURVE",
"357 34 LINE",
"371 37 OFFCURVE",
"384 38 OFFCURVE",
"398 40 CURVE",
"400 40 LINE",
"400 36 LINE",
"398 36 LINE"
);
},
{
closed = 1;
nodes = (
"492 -24 OFFCURVE",
"478 -28 OFFCURVE",
"464 -30 CURVE",
"453 -32 OFFCURVE",
"440 -32 OFFCURVE",
"428 -32 CURVE",
"427 -32 OFFCURVE",
"426 -33 OFFCURVE",
"425 -33 CURVE",
"424 -35 LINE",
"421 -32 LINE",
"423 -31 LINE",
"424 -29 OFFCURVE",
"425 -28 OFFCURVE",
"428 -28 CURVE",
"440 -28 OFFCURVE",
"453 -28 OFFCURVE",
"464 -26 CURVE",
"476 -24 OFFCURVE",
"488 -22 OFFCURVE",
"493 -7 CURVE",
"494 -5 LINE",
"498 -7 LINE",
"497 -9 LINE"
);
},
{
closed = 1;
nodes = (
"141 -88 OFFCURVE",
"144 -100 OFFCURVE",
"141 -113 CURVE",
"139 -111 LINE",
"146 -111 OFFCURVE",
"152 -111 OFFCURVE",
"159 -110 CURVE",
"159 -110 LINE",
"159 -110 LINE",
"182 -109 OFFCURVE",
"205 -113 OFFCURVE",
"228 -112 CURVE",
"230 -112 OFFCURVE",
"232 -113 OFFCURVE",
"235 -111 CURVE",
"237 -110 LINE",
"239 -114 LINE",
"237 -115 LINE",
"234 -117 OFFCURVE",
"230 -116 OFFCURVE",
"228 -116 CURVE",
"205 -117 OFFCURVE",
"182 -113 OFFCURVE",
"159 -114 CURVE",
"159 -114 LINE",
"152 -115 OFFCURVE",
"146 -115 OFFCURVE",
"139 -115 CURVE",
"138 -115 LINE",
"137 -114 LINE",
"137 -113 LINE",
"140 -100 OFFCURVE",
"137 -88 OFFCURVE",
"139 -76 CURVE",
"139 -74 LINE",
"143 -74 LINE",
"143 -76 LINE"
);
},
{
closed = 1;
nodes = (
"452 95 OFFCURVE",
"442 92 OFFCURVE",
"432 90 CURVE",
"432 90 LINE",
"432 90 LINE",
"429 90 OFFCURVE",
"427 90 OFFCURVE",
"425 89 CURVE",
"423 88 LINE",
"421 92 LINE",
"423 93 LINE",
"425 94 OFFCURVE",
"429 94 OFFCURVE",
"432 94 CURVE",
"432 94 LINE",
"442 96 OFFCURVE",
"452 99 OFFCURVE",
"462 99 CURVE",
"464 99 LINE",
"464 95 LINE",
"462 95 LINE"
);
},
{
closed = 1;
nodes = (
"257 -56 OFFCURVE",
"248 -60 OFFCURVE",
"240 -62 CURVE",
"221 -67 OFFCURVE",
"202 -70 OFFCURVE",
"182 -76 CURVE",
"168 -79 OFFCURVE",
"155 -81 OFFCURVE",
"142 -84 CURVE",
"141 -84 LINE",
"140 -81 LINE",
"142 -80 LINE",
"155 -77 OFFCURVE",
"168 -75 OFFCURVE",
"180 -72 CURVE",
"200 -66 OFFCURVE",
"219 -63 OFFCURVE",
"240 -58 CURVE",
"248 -56 OFFCURVE",
"257 -52 OFFCURVE",
"268 -56 CURVE",
"270 -57 LINE",
"268 -61 LINE",
"266 -60 LINE"
);
},
{
closed = 1;
nodes = (
"152 -13 OFFCURVE",
"147 -16 OFFCURVE",
"140 -17 CURVE",
"142 -15 LINE",
"143 -28 OFFCURVE",
"141 -42 OFFCURVE",
"143 -56 CURVE",
"143 -58 LINE",
"139 -58 LINE",
"139 -56 LINE",
"137 -42 OFFCURVE",
"139 -28 OFFCURVE",
"138 -15 CURVE",
"138 -14 LINE",
"139 -13 LINE",
"140 -13 LINE",
"147 -12 OFFCURVE",
"150 -9 OFFCURVE",
"155 -7 CURVE",
"157 -6 LINE",
"159 -10 LINE",
"157 -11 LINE"
);
},
{
closed = 1;
nodes = (
"171 -88 OFFCURVE",
"169 -100 OFFCURVE",
"176 -110 CURVE",
"177 -112 LINE",
"173 -114 LINE",
"172 -112 LINE",
"165 -100 OFFCURVE",
"167 -88 OFFCURVE",
"172 -76 CURVE",
"173 -74 LINE",
"177 -76 LINE",
"176 -78 LINE"
);
},
{
closed = 1;
nodes = (
"354 -48 OFFCURVE",
"344 -52 OFFCURVE",
"333 -52 CURVE",
"328 -52 OFFCURVE",
"322 -55 OFFCURVE",
"321 -46 CURVE",
"321 -44 LINE",
"325 -44 LINE",
"325 -46 LINE",
"326 -51 OFFCURVE",
"330 -48 OFFCURVE",
"333 -48 CURVE",
"344 -48 OFFCURVE",
"354 -44 OFFCURVE",
"363 -41 CURVE",
"365 -41 LINE",
"366 -44 LINE",
"365 -45 LINE"
);
},
{
closed = 1;
nodes = (
"498 101 OFFCURVE",
"487 97 OFFCURVE",
"476 98 CURVE",
"474 98 LINE",
"474 102 LINE",
"476 102 LINE",
"487 101 OFFCURVE",
"498 105 OFFCURVE",
"509 104 CURVE",
"511 104 LINE",
"511 100 LINE",
"509 100 LINE"
);
},
{
closed = 1;
nodes = (
"147 -93 OFFCURVE",
"145 -101 OFFCURVE",
"152 -110 CURVE",
"153 -111 LINE",
"150 -114 LINE",
"148 -112 LINE",
"141 -103 OFFCURVE",
"143 -93 OFFCURVE",
"144 -83 CURVE",
"144 -81 LINE",
"148 -81 LINE",
"148 -83 LINE"
);
},
{
closed = 1;
nodes = (
"646 -63 OFFCURVE",
"646 -76 OFFCURVE",
"646 -89 CURVE",
"646 -92 OFFCURVE",
"646 -95 OFFCURVE",
"647 -97 CURVE",
"648 -99 LINE",
"644 -101 LINE",
"643 -99 LINE",
"642 -95 OFFCURVE",
"642 -92 OFFCURVE",
"642 -89 CURVE",
"642 -76 OFFCURVE",
"642 -63 OFFCURVE",
"642 -49 CURVE",
"642 -47 LINE",
"646 -47 LINE",
"646 -49 LINE"
);
},
{
closed = 1;
nodes = (
"508 -27 OFFCURVE",
"515 -27 OFFCURVE",
"524 -27 CURVE",
"529 -27 OFFCURVE",
"536 -25 OFFCURVE",
"541 -28 CURVE",
"543 -29 LINE",
"541 -33 LINE",
"539 -32 LINE",
"534 -29 OFFCURVE",
"529 -31 OFFCURVE",
"524 -31 CURVE",
"515 -31 OFFCURVE",
"506 -31 OFFCURVE",
"497 -27 CURVE",
"495 -26 LINE",
"497 -22 LINE",
"499 -23 LINE"
);
},
{
closed = 1;
nodes = (
"677 -106 OFFCURVE",
"679 -113 OFFCURVE",
"675 -118 CURVE",
"674 -115 LINE",
"679 -118 OFFCURVE",
"683 -120 OFFCURVE",
"686 -115 CURVE",
"687 -113 LINE",
"691 -115 LINE",
"690 -117 LINE",
"685 -124 OFFCURVE",
"679 -122 OFFCURVE",
"672 -119 CURVE",
"671 -118 LINE",
"671 -117 LINE",
"671 -116 LINE",
"675 -111 OFFCURVE",
"673 -106 OFFCURVE",
"672 -100 CURVE",
"672 -98 LINE",
"676 -98 LINE",
"676 -100 LINE"
);
},
{
closed = 1;
nodes = (
"700 9 OFFCURVE",
"698 -3 OFFCURVE",
"699 -14 CURVE",
"699 -14 LINE",
"699 -14 LINE",
"699 -17 OFFCURVE",
"700 -22 OFFCURVE",
"693 -22 CURVE",
"691 -22 LINE",
"691 -18 LINE",
"693 -18 LINE",
"696 -18 OFFCURVE",
"695 -15 OFFCURVE",
"695 -14 CURVE",
"695 -14 LINE",
"694 -3 OFFCURVE",
"696 9 OFFCURVE",
"694 21 CURVE",
"694 23 LINE",
"698 23 LINE",
"698 21 LINE"
);
},
{
closed = 1;
nodes = (
"455 -24 OFFCURVE",
"450 -24 OFFCURVE",
"444 -24 CURVE",
"442 -24 LINE",
"442 -20 LINE",
"444 -20 LINE",
"450 -20 OFFCURVE",
"455 -20 OFFCURVE",
"460 -21 CURVE",
"462 -21 LINE",
"462 -25 LINE",
"460 -25 LINE"
);
},
{
closed = 1;
nodes = (
"692 -5 OFFCURVE",
"690 -11 OFFCURVE",
"687 -17 CURVE",
"686 -19 LINE",
"682 -17 LINE",
"683 -15 LINE",
"686 -9 OFFCURVE",
"688 -3 OFFCURVE",
"694 2 CURVE",
"695 4 LINE",
"698 1 LINE",
"696 0 LINE"
);
},
{
closed = 1;
nodes = (
"576 22 OFFCURVE",
"576 11 OFFCURVE",
"573 -1 CURVE",
"572 -2 LINE",
"569 -1 LINE",
"569 1 LINE",
"572 11 OFFCURVE",
"572 20 OFFCURVE",
"565 30 CURVE",
"564 31 LINE",
"567 34 LINE",
"569 32 LINE"
);
},
{
closed = 1;
nodes = (
"701 -26 OFFCURVE",
"697 -29 OFFCURVE",
"695 -34 CURVE",
"694 -36 LINE",
"690 -34 LINE",
"691 -32 LINE",
"693 -29 OFFCURVE",
"697 -26 OFFCURVE",
"694 -22 CURVE",
"693 -20 LINE",
"697 -18 LINE",
"698 -20 LINE"
);
},
{
closed = 1;
nodes = (
"652 -69 OFFCURVE",
"651 -74 OFFCURVE",
"647 -76 CURVE",
"645 -77 LINE",
"643 -73 LINE",
"645 -72 LINE",
"649 -70 OFFCURVE",
"650 -65 OFFCURVE",
"653 -63 CURVE",
"654 -61 LINE",
"657 -64 LINE",
"655 -65 LINE"
);
},
{
closed = 1;
nodes = (
"438 -27 OFFCURVE",
"434 -26 OFFCURVE",
"431 -26 CURVE",
"429 -26 LINE",
"429 -22 LINE",
"431 -22 LINE",
"434 -22 OFFCURVE",
"438 -23 OFFCURVE",
"440 -22 CURVE",
"442 -21 LINE",
"444 -25 LINE",
"442 -26 LINE"
);
},
{
closed = 1;
nodes = (
"235 -68 OFFCURVE",
"230 -70 OFFCURVE",
"231 -75 CURVE",
"231 -77 LINE",
"227 -77 LINE",
"227 -75 LINE",
"226 -70 OFFCURVE",
"231 -68 OFFCURVE",
"230 -64 CURVE",
"230 -63 LINE",
"233 -62 LINE",
"234 -64 LINE"
);
},
{
closed = 1;
nodes = (
"652 -108 OFFCURVE",
"651 -111 OFFCURVE",
"649 -114 CURVE",
"648 -116 LINE",
"644 -114 LINE",
"645 -112 LINE",
"647 -109 OFFCURVE",
"648 -106 OFFCURVE",
"650 -103 CURVE",
"651 -101 LINE",
"655 -103 LINE",
"654 -105 LINE"
);
},
{
closed = 1;
nodes = (
"449 -37 OFFCURVE",
"445 -39 OFFCURVE",
"441 -38 CURVE",
"439 -37 LINE",
"440 -34 LINE",
"441 -34 LINE",
"445 -35 OFFCURVE",
"447 -33 OFFCURVE",
"450 -31 CURVE",
"452 -30 LINE",
"454 -34 LINE",
"452 -35 LINE"
);
},
{
closed = 1;
nodes = (
"416 -39 OFFCURVE",
"413 -41 OFFCURVE",
"409 -40 CURVE",
"407 -39 LINE",
"409 -35 LINE",
"411 -36 LINE",
"413 -37 OFFCURVE",
"416 -35 OFFCURVE",
"418 -34 CURVE",
"420 -33 LINE",
"422 -37 LINE",
"420 -38 LINE"
);
},
{
closed = 1;
nodes = (
"430 -38 OFFCURVE",
"427 -39 OFFCURVE",
"423 -38 CURVE",
"421 -37 LINE",
"423 -33 LINE",
"425 -34 LINE",
"427 -35 OFFCURVE",
"430 -34 OFFCURVE",
"433 -34 CURVE",
"435 -34 LINE",
"435 -38 LINE",
"433 -38 LINE"
);
},
{
closed = 1;
nodes = (
"565 -17 OFFCURVE",
"562 -18 OFFCURVE",
"564 -21 CURVE",
"565 -23 LINE",
"561 -25 LINE",
"560 -23 LINE",
"558 -20 OFFCURVE",
"561 -17 OFFCURVE",
"562 -13 CURVE",
"563 -11 LINE",
"567 -13 LINE",
"566 -15 LINE"
);
},
{
closed = 1;
nodes = (
"205 -72 OFFCURVE",
"202 -75 OFFCURVE",
"201 -79 CURVE",
"200 -81 LINE",
"196 -79 LINE",
"197 -77 LINE",
"198 -75 OFFCURVE",
"201 -74 OFFCURVE",
"199 -71 CURVE",
"198 -69 LINE",
"202 -67 LINE",
"203 -69 LINE"
);
},
{
closed = 1;
nodes = (
"651 -97 OFFCURVE",
"647 -100 OFFCURVE",
"644 -104 CURVE",
"642 -106 LINE",
"639 -103 LINE",
"640 -102 LINE",
"643 -98 OFFCURVE",
"647 -95 OFFCURVE",
"648 -92 CURVE",
"649 -90 LINE",
"652 -91 LINE",
"652 -92 LINE"
);
},
{
closed = 1;
nodes = (
"678 -107 OFFCURVE",
"679 -107 OFFCURVE",
"679 -106 CURVE",
"679 -104 LINE",
"683 -104 LINE",
"683 -106 LINE",
"683 -109 OFFCURVE",
"682 -111 OFFCURVE",
"677 -111 CURVE",
"675 -111 LINE",
"675 -107 LINE",
"677 -107 LINE"
);
}
);
width = 600;
}
);
unicode = 0079;
},
